<?xml version="1.0" standalone="no"?>
<!DOCTYPE svg PUBLIC "-//W3C//DTD SVG 20010904//EN"
 "http://www.w3.org/TR/2001/REC-SVG-20010904/DTD/svg10.dtd">
<svg version="1.0" xmlns="http://www.w3.org/2000/svg"
 width="662.000000pt" height="322.000000pt" viewBox="0 0 662.000000 322.000000"
 preserveAspectRatio="xMidYMid meet">

<g transform="translate(0.000000,322.000000) scale(0.100000,-0.100000)"
fill="#000000" stroke="none">
<path d="M0 1610 l0 -1610 3310 0 3310 0 0 1610 0 1610 -3310 0 -3310 0 0
-1610z m1844 1418 c-10 -16 -10 -91 1 -107 5 -9 3 -12 -6 -9 -8 3 -16 15 -18
29 -1 13 -8 27 -15 31 -8 6 -8 8 2 8 6 0 12 11 12 23 0 25 7 37 22 37 5 0 6
-5 2 -12z m-996 -5 c-20 -5 -25 -33 -5 -33 9 0 9 -2 1 -8 -7 -4 -14 -18 -17
-32 -4 -25 -4 -25 -6 3 0 15 -7 27 -13 27 -9 0 -9 3 -2 8 6 4 13 15 17 25 3 9
14 16 24 16 17 -1 17 -2 1 -6z m292 -37 c0 -26 5 -46 13 -49 7 -3 5 -6 -5 -6
-15 -1 -18 7 -18 43 0 26 -5 46 -12 49 -8 3 -6 6 5 6 14 1 17 -7 17 -43z m230
0 c0 -24 5 -47 10 -49 6 -3 5 -4 -2 -3 -7 1 -14 20 -16 42 -2 21 -9 42 -15 46
-8 5 -6 8 6 8 14 0 17 -9 17 -44z m-672 27 c-13 -3 -18 -16 -20 -46 l-1 -42
-4 40 c-3 22 -10 43 -16 47 -7 4 4 7 23 7 19 -1 27 -3 18 -6z m522 -62 c-1 -3
-7 5 -15 19 l-14 25 -2 -35 c-1 -26 -3 -29 -6 -11 -3 12 -2 35 2 50 l7 26 14
-34 c8 -18 14 -36 14 -40z m16 43 c-4 -9 -9 -15 -11 -12 -3 3 -3 13 1 22 4 9
9 15 11 12 3 -3 3 -13 -1 -22z m-704 -2 c-17 -5 -15 -50 3 -55 11 -4 11 -5 -2
-3 -11 1 -20 13 -24 33 -7 37 -4 44 19 35 10 -4 12 -7 4 -10z m-314 1 c-21 -5
-25 -49 -5 -56 7 -2 6 -3 -3 -3 -16 1 -25 29 -16 52 3 8 13 13 23 13 17 -1 17
-2 1 -6z m100 -26 c4 -30 -21 -48 -40 -29 -8 8 -5 9 11 5 18 -4 21 -1 21 22 0
22 -4 26 -20 22 -11 -3 -17 -1 -14 4 12 19 39 4 42 -24z m72 25 c0 -4 -9 -8
-19 -8 -11 0 -17 4 -15 8 3 4 12 8 20 8 8 0 14 -4 14 -8z m58 1 c-10 -2 -18
-9 -18 -15 0 -6 -3 -9 -6 -5 -10 10 6 27 24 26 15 -1 15 -2 0 -6z m322 -2 c0
-5 -9 -7 -20 -4 -11 3 -20 7 -20 9 0 2 9 4 20 4 11 0 20 -4 20 -9z m157 -31
c1 -19 -1 -27 -3 -17 -3 9 -12 17 -20 17 -16 0 -19 -16 -4 -23 6 -3 5 -4 -2
-3 -21 4 -21 27 1 33 26 7 27 20 4 27 -14 4 -14 4 2 3 15 -2 20 -10 22 -37z
m67 25 c-11 -8 -15 -20 -11 -34 3 -12 0 -21 -6 -21 -7 0 -12 15 -12 34 0 28 4
34 23 34 20 0 21 -2 6 -13z m94 -8 c3 -13 -3 -17 -25 -16 -23 1 -24 2 -5 6 12
2 22 9 22 15 0 6 -9 8 -20 5 -11 -3 -17 -1 -14 4 9 15 38 6 42 -14z m230 0 c3
-13 -3 -17 -25 -16 -23 1 -24 2 -5 6 12 2 22 9 22 15 0 6 -9 8 -20 5 -11 -3
-17 -1 -14 4 9 15 38 6 42 -14z m230 -10 c4 -30 -21 -48 -40 -29 -8 8 -5 9 11
5 18 -4 21 -1 21 22 0 22 -4 26 -20 22 -11 -3 -17 -1 -14 4 12 19 39 4 42 -24z
m145 16 c-7 -2 -21 -2 -30 0 -10 3 -4 5 12 5 17 0 24 -2 18 -5z m-1228 -34 c0
-8 -11 -15 -25 -16 -22 -1 -22 -1 -2 4 23 5 29 18 12 26 -6 3 -5 4 2 3 7 -2
13 -9 13 -17z m288 11 c-28 -12 -30 -24 -3 -17 11 3 22 2 24 -2 3 -4 -6 -8
-19 -9 -26 -2 -40 12 -30 28 3 6 16 10 28 9 l22 0 -22 -9z m494 -22 c-3 -7 -5
-2 -5 12 0 14 2 19 5 13 2 -7 2 -19 0 -25z m446 15 c-7 -2 -21 -2 -30 0 -10 3
-4 5 12 5 17 0 24 -2 18 -5z m-622 -21 c-7 -2 -18 1 -23 6 -8 8 -4 9 13 5 13
-4 18 -8 10 -11z m230 0 c-7 -2 -18 1 -23 6 -8 8 -4 9 13 5 13 -4 18 -8 10
-11z m166 2 c-3 -3 -12 -4 -19 -1 -8 3 -5 6 6 6 11 1 17 -2 13 -5z m-777 -144
c0 -5 -4 -10 -10 -10 -5 0 -10 5 -10 10 0 6 5 10 10 10 6 0 10 -4 10 -10z
m530 -20 c21 0 34 -29 24 -54 -3 -9 -17 -16 -30 -16 -22 0 -24 3 -23 53 1 28
3 44 6 35 2 -10 13 -18 23 -18z m-220 -8 c-14 -5 -12 -49 3 -55 6 -3 2 -6 -10
-6 -19 -1 -23 4 -23 29 0 17 -5 30 -10 30 -6 0 -5 6 2 14 10 10 17 11 30 2 10
-6 14 -12 8 -14z m163 -17 c17 -49 17 -51 -14 -32 -17 10 -23 10 -26 0 -8 -23
-25 -14 -17 10 25 82 36 86 57 22z m297 17 c-14 -5 -12 -49 3 -55 6 -3 2 -6
-10 -6 -19 -1 -23 4 -23 29 0 17 -5 30 -10 30 -6 0 -5 6 2 14 10 10 17 11 30
2 10 -6 14 -12 8 -14z m-1062 -25 c3 -22 -1 -30 -17 -34 -12 -3 -21 -12 -21
-19 0 -8 -4 -14 -10 -14 -5 0 -10 23 -10 51 0 49 1 50 28 47 21 -2 28 -9 30
-31z m70 -5 c3 -31 2 -33 -24 -30 -34 4 -44 27 -15 35 26 7 27 20 4 27 -11 3
-7 4 7 3 21 -2 26 -8 28 -35z m82 29 c0 -5 -10 -7 -22 -4 l-23 5 24 -20 c28
-22 21 -42 -15 -42 -14 0 -23 4 -19 10 3 5 12 7 20 3 22 -8 18 10 -5 25 -12 7
-18 17 -15 22 8 13 55 13 55 1z m70 -1 c0 -5 -8 -7 -17 -4 -12 4 -10 0 6 -14
13 -11 21 -24 17 -31 -8 -13 -56 -15 -56 -2 0 5 9 7 20 4 11 -3 20 0 20 6 0 6
-6 11 -14 11 -18 0 -29 16 -21 30 8 13 45 13 45 0z m70 -19 c0 -16 6 -32 13
-34 6 -3 -4 -5 -23 -5 -19 0 -29 2 -22 5 6 2 12 15 12 28 0 13 -6 26 -12 28
-7 3 -3 6 10 6 18 1 22 -4 22 -28z m85 -6 c0 -25 -4 -30 -25 -30 -16 0 -26 6
-28 18 -6 30 6 49 30 45 18 -2 23 -9 23 -33z m83 -2 c2 -19 -1 -33 -7 -33 -6
0 -11 14 -11 30 0 17 -4 30 -10 30 -5 0 -10 -13 -10 -30 0 -16 -4 -30 -10 -30
-5 0 -10 16 -10 36 0 33 2 35 28 32 22 -2 28 -8 30 -35z m74 2 c4 -32 2 -35
-23 -35 -45 0 -47 32 -4 42 18 5 18 6 -5 16 l-25 11 26 0 c23 1 27 -4 31 -34z
m156 13 c2 -13 -3 -18 -17 -18 -28 0 -27 -17 2 -23 15 -4 12 -5 -8 -4 -31 2
-43 23 -31 53 8 21 50 14 54 -8z m227 -13 c0 -25 -4 -30 -25 -30 -16 0 -26 6
-28 18 -6 30 6 49 30 45 18 -2 23 -9 23 -33z m45 5 c0 -16 5 -30 10 -30 6 0
10 14 10 30 0 17 5 30 10 30 6 0 10 -16 10 -36 0 -33 -2 -35 -27 -32 -23 2
-29 8 -31 36 -2 18 1 32 7 32 6 0 11 -13 11 -30z m-830 -175 c0 -8 -4 -15 -10
-15 -5 0 -10 7 -10 15 0 8 5 15 10 15 6 0 10 -7 10 -15z m690 5 c0 -5 -2 -10
-4 -10 -3 0 -8 5 -11 10 -3 6 -1 10 4 10 6 0 11 -4 11 -10z m230 -5 c0 -8 -2
-15 -4 -15 -2 0 -6 7 -10 15 -3 8 -1 15 4 15 6 0 10 -7 10 -15z m240 0 c0 -8
-4 -15 -10 -15 -5 0 -10 7 -10 15 0 8 5 15 10 15 6 0 10 -7 10 -15z m301 -15
c16 0 19 -7 18 -37 -1 -36 -2 -37 -8 -9 -3 17 -10 30 -16 30 -5 0 -13 -13 -16
-30 -5 -21 -7 -14 -7 26 0 30 2 47 5 38 2 -10 13 -18 24 -18z m229 -14 c0 -26
5 -47 13 -50 6 -3 3 -5 -8 -3 -16 2 -21 11 -23 42 -2 22 -9 43 -15 47 -7 5 -3
8 11 8 19 0 22 -5 22 -44z m310 29 c0 -8 -4 -15 -10 -15 -5 0 -10 7 -10 15 0
8 5 15 10 15 6 0 10 -7 10 -15z m230 0 c0 -8 -2 -15 -4 -15 -2 0 -6 7 -10 15
-3 8 -1 15 4 15 6 0 10 -7 10 -15z m310 5 c0 -5 -4 -10 -10 -10 -5 0 -10 5
-10 10 0 6 5 10 10 10 6 0 10 -4 10 -10z m230 -5 c0 -8 -4 -15 -10 -15 -5 0
-10 7 -10 15 0 8 5 15 10 15 6 0 10 -7 10 -15z m230 0 c0 -8 -2 -15 -4 -15 -2
0 -6 7 -10 15 -3 8 -1 15 4 15 6 0 10 -7 10 -15z m310 5 c0 -5 -4 -10 -10 -10
-5 0 -10 5 -10 10 0 6 5 10 10 10 6 0 10 -4 10 -10z m230 -5 c0 -8 -4 -15 -10
-15 -5 0 -10 7 -10 15 0 8 5 15 10 15 6 0 10 -7 10 -15z m230 0 c0 -8 -4 -15
-10 -15 -5 0 -10 7 -10 15 0 8 5 15 10 15 6 0 10 -7 10 -15z m230 5 c0 -5 -2
-10 -4 -10 -3 0 -8 5 -11 10 -3 6 -1 10 4 10 6 0 11 -4 11 -10z m230 -5 c0 -8
-2 -15 -4 -15 -2 0 -6 7 -10 15 -3 8 -1 15 4 15 6 0 10 -7 10 -15z m230 0 c0
-8 -2 -15 -4 -15 -2 0 -6 7 -10 15 -3 8 -1 15 4 15 6 0 10 -7 10 -15z m470 0
c0 -8 -4 -15 -10 -15 -5 0 -10 7 -10 15 0 8 5 15 10 15 6 0 10 -7 10 -15z
m230 0 c0 -8 -4 -15 -10 -15 -5 0 -10 7 -10 15 0 8 5 15 10 15 6 0 10 -7 10
-15z m230 5 c0 -5 -4 -10 -10 -10 -5 0 -10 5 -10 10 0 6 5 10 10 10 6 0 10 -4
10 -10z m220 -34 c0 -34 4 -46 18 -49 13 -4 11 -5 -5 -6 -21 -1 -23 4 -23 43
0 26 -5 46 -12 49 -8 3 -6 6 5 6 14 1 17 -7 17 -43z m160 29 c0 -8 -2 -15 -4
-15 -2 0 -6 7 -10 15 -3 8 -1 15 4 15 6 0 10 -7 10 -15z m-5672 -7 c14 -14 -2
-48 -23 -48 -8 0 -15 -7 -15 -15 0 -8 -4 -15 -10 -15 -5 0 -10 20 -10 45 0 40
2 45 23 45 13 0 28 -5 35 -12z m1150 5 c-13 -3 -18 -16 -20 -46 l-1 -42 -4 42
c-3 29 -9 43 -21 46 -9 3 1 5 23 5 22 0 32 -2 23 -5z m1050 -15 l11 -23 0 23
c1 13 7 22 16 22 11 0 15 -12 15 -45 0 -25 -4 -45 -10 -45 -5 0 -10 8 -10 18
0 14 -2 15 -10 2 -8 -12 -11 -11 -17 10 l-7 25 -7 -30 c-6 -26 -7 -23 -8 18
-1 51 9 61 27 25z m798 11 c4 -8 0 -9 -15 -4 -27 8 -27 -9 1 -27 28 -19 18
-48 -17 -48 -14 0 -25 4 -25 9 0 5 9 7 20 4 14 -4 20 0 20 11 0 9 -6 16 -14
16 -19 0 -29 17 -22 35 6 18 42 20 52 4z m767 -34 c17 -49 17 -51 -14 -32 -17
10 -23 10 -26 0 -8 -23 -25 -14 -17 10 25 82 36 86 57 22z m697 36 c0 -5 -8
-8 -17 -7 -13 1 -19 -8 -21 -31 -2 -25 1 -33 12 -33 19 0 21 26 4 33 -7 3 -3
6 10 6 19 1 23 -4 20 -21 -2 -18 -10 -23 -33 -23 -26 0 -30 4 -33 28 -2 16 -1
35 2 43 6 15 56 20 56 5z m689 -32 c13 -42 7 -65 -9 -39 -8 12 -13 13 -30 2
-23 -14 -24 -12 -8 39 15 50 32 49 47 -2z m-4921 5 c0 -17 -8 -29 -22 -34 -21
-9 -21 -9 2 -9 15 -1 22 -7 22 -21 0 -16 -7 -20 -30 -20 -16 0 -30 4 -30 9 0
5 9 7 20 4 11 -3 20 0 20 6 0 6 -9 11 -19 11 -15 0 -19 7 -18 32 2 25 8 34 27
39 14 4 26 7 26 8 1 1 2 -11 2 -25z m540 0 c0 -17 -8 -29 -22 -34 -21 -9 -21
-9 2 -9 15 -1 22 -7 22 -21 0 -16 -7 -20 -30 -20 -16 0 -30 4 -30 9 0 5 9 7
20 4 11 -3 20 0 20 6 0 6 -9 11 -19 11 -15 0 -19 7 -18 32 2 25 8 34 27 39 14
4 26 7 26 8 1 1 2 -11 2 -25z m1000 0 c0 -17 -8 -29 -22 -34 -21 -9 -21 -9 2
-9 15 -1 22 -7 22 -21 0 -16 -7 -20 -30 -20 -16 0 -30 4 -30 9 0 5 9 7 20 4
11 -3 20 0 20 6 0 6 -9 11 -19 11 -15 0 -19 7 -18 32 2 25 8 34 27 39 14 4 26
7 26 8 1 1 2 -11 2 -25z m-1688 1 c0 -9 -6 -12 -16 -8 -14 5 -16 1 -12 -20 4
-20 1 -27 -11 -27 -12 0 -16 9 -16 35 0 32 3 35 28 35 17 0 27 -5 27 -15z m65
-20 c0 -25 -4 -30 -25 -30 -16 0 -26 6 -28 18 -6 30 6 49 30 45 18 -2 23 -9
23 -33z m165 20 c0 -9 -6 -12 -16 -8 -14 5 -16 1 -12 -20 4 -20 1 -27 -11 -27
-12 0 -16 9 -16 35 0 32 3 35 28 35 17 0 27 -5 27 -15z m68 -23 c3 -31 2 -33
-24 -30 -34 4 -44 27 -15 35 26 7 27 20 4 27 -11 3 -7 4 7 3 21 -2 26 -8 28
-35z m161 0 l-2 -37 -7 35 -7 35 -2 -32 c0 -18 -5 -33 -11 -33 -5 0 -11 15
-12 33 l-1 32 -4 -32 c-3 -25 -9 -33 -24 -33 -14 0 -19 8 -21 33 l-1 32 -4
-32 c-5 -40 -23 -44 -24 -5 l-1 27 -8 -30 -8 -30 -1 37 -1 37 70 0 70 0 -1
-37z m61 9 c0 -16 6 -32 13 -34 6 -3 -4 -5 -23 -5 -19 0 -29 2 -22 5 6 2 12
15 12 28 0 13 -6 26 -12 28 -7 3 -3 6 10 6 18 1 22 -4 22 -28z m90 -6 c0 -19
-4 -35 -10 -35 -5 0 -10 14 -10 31 0 17 -4 28 -10 24 -5 -3 -10 -17 -10 -31 0
-13 -4 -24 -10 -24 -5 0 -10 16 -10 35 0 32 2 35 30 35 28 0 30 -3 30 -35z
m538 13 c2 -13 -3 -18 -17 -18 -28 0 -27 -17 2 -23 15 -4 12 -5 -8 -4 -31 2
-43 23 -31 53 8 21 50 14 54 -8z m77 12 c-3 -5 -12 -7 -20 -3 -11 4 -15 -2
-15 -20 0 -18 6 -27 23 -30 15 -4 12 -5 -8 -4 -49 3 -49 67 0 67 15 0 24 -4
20 -10z m155 -25 c0 -19 -4 -35 -10 -35 -5 0 -10 14 -10 31 0 17 -4 28 -10 24
-5 -3 -10 -17 -10 -31 0 -13 -4 -24 -10 -24 -5 0 -10 16 -10 35 0 32 2 35 30
35 28 0 30 -3 30 -35z m75 0 c0 -25 -4 -30 -25 -30 -16 0 -26 6 -28 18 -6 30
6 49 30 45 18 -2 23 -9 23 -33z m150 0 c0 -25 -4 -30 -25 -30 -16 0 -26 6 -28
18 -6 30 6 49 30 45 18 -2 23 -9 23 -33z m125 13 l9 -23 7 23 c3 12 11 22 16
22 19 0 -19 -91 -42 -98 -12 -4 -13 -3 -2 10 9 11 10 23 2 42 -17 46 -8 68 10
24z m495 -13 c0 -25 -4 -30 -25 -30 -16 0 -26 6 -28 18 -6 30 6 49 30 45 18
-2 23 -9 23 -33z m42 13 l10 -23 7 23 c4 12 11 22 16 22 4 0 3 -16 -3 -35 -6
-19 -16 -35 -22 -35 -6 0 -16 16 -22 35 -12 39 -2 48 14 13z m93 -7 c0 -16 6
-32 13 -34 6 -3 -1 -5 -18 -5 -16 0 -24 2 -17 5 6 2 12 15 12 28 0 13 -6 26
-12 28 -8 3 -6 6 5 6 12 1 17 -7 17 -28z m98 7 c2 -13 -3 -18 -17 -18 -28 0
-27 -17 2 -23 15 -4 12 -5 -8 -4 -31 2 -43 23 -31 53 8 21 50 14 54 -8z m72
13 c0 -5 -10 -7 -22 -3 -14 3 -19 2 -14 -6 4 -7 14 -12 22 -12 8 0 14 -9 14
-20 0 -15 -7 -20 -25 -20 -14 0 -25 4 -25 10 0 5 7 7 15 4 8 -4 15 -2 15 4 0
5 -7 12 -15 16 -25 9 -18 36 10 36 14 0 25 -4 25 -9z m468 -13 c2 -12 -5 -18
-25 -20 l-28 -4 25 -12 25 -12 -25 3 c-25 2 -37 25 -26 53 8 20 50 14 54 -8z
m82 13 c0 -15 -20 -24 -21 -9 0 7 -5 3 -12 -10 -8 -19 -8 -25 4 -33 11 -7 10
-9 -6 -9 -16 0 -20 7 -20 35 0 32 3 35 28 35 15 0 27 -4 27 -9z m50 -20 c0
-16 6 -32 13 -34 6 -3 -1 -5 -18 -5 -16 0 -24 2 -17 5 6 2 12 15 12 28 0 13
-6 26 -12 28 -8 3 -6 6 5 6 12 1 17 -7 17 -28z m98 7 c2 -12 -5 -18 -25 -20
l-28 -4 25 -12 25 -12 -25 3 c-25 2 -37 25 -26 53 8 20 50 14 54 -8z m72 13
c0 -5 -10 -7 -22 -3 -14 3 -19 2 -14 -6 4 -7 14 -12 22 -12 8 0 14 -9 14 -20
0 -15 -7 -20 -25 -20 -14 0 -25 4 -25 10 0 5 7 7 15 4 8 -4 15 -2 15 4 0 5 -7
12 -15 16 -25 9 -18 36 10 36 14 0 25 -4 25 -9z m468 -28 c2 -19 -1 -33 -7
-33 -6 0 -11 14 -11 30 0 17 -4 30 -10 30 -5 0 -10 -13 -10 -30 0 -16 -4 -30
-10 -30 -5 0 -10 16 -10 36 0 33 2 35 28 32 22 -2 28 -8 30 -35z m62 7 c0 -16
5 -30 10 -30 6 0 10 14 10 30 0 28 3 30 35 30 34 0 35 -1 34 -37 l-2 -38 -7
35 -7 35 -2 -32 c0 -18 -5 -33 -11 -33 -5 0 -11 15 -12 33 l-1 32 -4 -32 c-4
-32 -6 -33 -46 -32 -23 0 -36 3 -29 6 6 2 12 15 12 28 0 13 -6 26 -12 28 -7 3
-3 6 10 6 18 1 22 -4 22 -29z m168 8 c2 -12 -5 -18 -25 -20 l-28 -4 25 -12 25
-12 -25 3 c-25 2 -37 25 -26 53 8 20 50 14 54 -8z m456 6 c14 -37 7 -54 -24
-54 -23 0 -30 4 -30 20 0 13 7 20 20 20 27 0 25 18 -2 23 -21 4 -20 4 3 6 16
0 29 -5 33 -15z m85 -21 l-2 -38 -7 35 -7 35 -2 -32 c0 -18 -5 -33 -11 -33 -5
0 -11 15 -12 33 l-1 32 -4 -32 c-6 -44 -23 -42 -23 2 0 33 2 35 35 35 34 0 35
-1 34 -37z m71 33 c0 -2 3 -11 6 -19 4 -11 -2 -17 -23 -19 l-28 -4 25 -11 25
-12 -27 0 c-31 -1 -47 31 -28 54 11 13 50 21 50 11z m70 -6 c0 -5 -8 -7 -17
-4 -12 4 -10 0 6 -14 13 -11 21 -24 17 -31 -8 -13 -56 -15 -56 -2 0 5 9 7 20
4 11 -3 20 0 20 6 0 6 -6 11 -14 11 -18 0 -29 16 -21 30 8 13 45 13 45 0z
m470 -25 c0 -19 -4 -35 -10 -35 -5 0 -10 14 -10 31 0 17 -4 28 -10 24 -5 -3
-10 -17 -10 -31 0 -13 -4 -24 -10 -24 -5 0 -10 16 -10 35 0 32 2 35 30 35 28
0 30 -3 30 -35z m60 6 c0 -16 6 -32 13 -34 6 -3 -4 -5 -23 -5 -19 0 -29 2 -22
5 6 2 12 15 12 28 0 13 -6 26 -12 28 -7 3 -3 6 10 6 18 1 22 -4 22 -28z m99
-8 l-2 -38 -7 35 -7 35 -2 -32 c0 -18 -5 -33 -11 -33 -5 0 -11 15 -12 33 l-1
32 -4 -32 c-6 -44 -23 -42 -23 2 0 33 2 35 35 35 34 0 35 -1 34 -37z m69 -1
c3 -31 2 -33 -24 -30 -34 4 -44 27 -15 35 26 7 27 20 4 27 -11 3 -7 4 7 3 21
-2 26 -8 28 -35z m152 28 c0 -5 -8 -7 -17 -4 -12 4 -10 0 6 -14 13 -11 21 -24
17 -31 -8 -13 -56 -15 -56 -2 0 5 9 7 20 4 11 -3 20 0 20 6 0 6 -6 11 -14 11
-18 0 -29 16 -21 30 8 13 45 13 45 0z m-4709 -43 c-1 -4 -1 -14 -1 -22 0 -8
-4 -15 -10 -15 -5 0 -10 12 -10 26 0 14 5 24 11 22 6 -2 10 -7 10 -11z m1077
-9 c-2 -12 -8 -23 -14 -25 -7 -2 -10 6 -7 22 6 30 26 34 21 3z m770 0 c-2 -12
-8 -23 -14 -25 -7 -2 -10 6 -7 22 6 30 26 34 21 3z m770 0 c-2 -12 -8 -23 -14
-25 -7 -2 -10 6 -7 22 6 30 26 34 21 3z m693 9 c-1 -4 -1 -14 -1 -22 0 -8 -4
-15 -10 -15 -5 0 -10 12 -10 26 0 14 5 24 11 22 6 -2 10 -7 10 -11z m693 -20
c-3 -9 -10 -17 -15 -17 -11 0 -12 34 -2 44 11 11 24 -9 17 -27z m-5080 -230
c-3 -9 -10 -17 -15 -17 -11 0 -12 34 -2 44 11 11 24 -9 17 -27z m456 -161 c0
-34 4 -46 18 -50 10 -3 6 -4 -8 -3 -22 2 -25 7 -28 42 -2 22 -9 43 -15 47 -7
5 -3 8 11 8 19 0 22 -5 22 -44z m540 34 c0 -5 -4 -10 -10 -10 -5 0 -10 5 -10
10 0 6 5 10 10 10 6 0 10 -4 10 -10z m-614 -15 c9 -8 11 -15 5 -15 -19 0 -12
-48 7 -54 10 -3 7 -4 -8 -3 -19 2 -26 9 -31 32 -5 29 -2 55 8 55 2 0 11 -7 19
-15z m214 -24 c0 -33 4 -40 23 -44 16 -3 13 -5 -10 -6 -33 -1 -33 0 -33 44 0
25 5 45 10 45 6 0 10 -18 10 -39z m578 3 c0 -17 -8 -29 -22 -34 -21 -9 -21 -9
2 -9 15 -1 22 -7 22 -21 0 -16 -7 -20 -30 -20 -16 0 -30 4 -30 9 0 5 9 7 20 4
11 -3 20 0 20 6 0 6 -9 11 -19 11 -15 0 -19 7 -18 32 2 25 8 34 27 39 14 4 26
7 26 8 1 1 2 -11 2 -25z m-1245 9 c-16 -3 -23 -11 -23 -28 0 -16 7 -25 23 -28
15 -4 12 -5 -8 -4 -20 1 -31 8 -33 20 -6 31 6 47 35 46 24 -2 25 -2 6 -6z m60
-50 c7 2 15 17 18 33 6 27 7 27 8 -8 1 -34 -2 -38 -24 -38 -23 0 -25 4 -23 38
l1 37 4 -33 c3 -20 9 -32 16 -29z m110 40 c-4 -11 -8 -13 -11 -5 -2 7 -8 10
-13 6 -13 -8 -11 -42 4 -47 6 -3 1 -6 -13 -6 -22 -1 -25 3 -25 34 0 33 2 35
32 35 26 0 31 -3 26 -17z m77 0 c0 -15 -2 -16 -10 -3 -8 12 -10 12 -16 -3 -3
-9 -4 -24 0 -32 3 -10 -1 -15 -12 -15 -13 0 -17 9 -17 35 0 32 3 35 28 35 19
0 27 -5 27 -17z m78 -5 c3 -14 -3 -18 -23 -18 -16 0 -24 -4 -20 -11 4 -6 13
-8 21 -5 8 3 14 1 14 -5 0 -6 -10 -9 -22 -7 -23 3 -34 28 -24 54 8 21 50 14
54 -8z m72 -13 c0 -19 -4 -35 -10 -35 -5 0 -10 14 -10 31 0 17 -4 28 -10 24
-5 -3 -10 -17 -10 -31 0 -13 -4 -24 -10 -24 -5 0 -10 16 -10 35 0 32 2 35 30
35 28 0 30 -3 30 -35z m197 8 l10 -28 6 28 c4 15 12 27 17 27 11 0 -18 -87
-32 -96 -5 -3 -12 -3 -16 1 -4 4 -2 10 5 12 9 3 8 14 -2 44 -8 21 -10 39 -5
39 4 0 12 -12 17 -27z m191 5 c3 -14 -3 -18 -23 -18 -16 0 -24 -4 -20 -11 4
-6 13 -8 21 -5 8 3 14 1 14 -5 0 -6 -10 -9 -22 -7 -23 3 -34 28 -24 54 8 21
50 14 54 -8z m70 -16 c3 -31 2 -33 -24 -30 -34 4 -44 27 -15 35 26 7 27 20 4
27 -11 3 -7 4 7 3 21 -2 26 -8 28 -35z m85 21 c-4 -11 -8 -13 -11 -5 -2 7 -8
10 -13 6 -13 -8 -11 -42 4 -47 6 -3 1 -6 -13 -6 -22 -1 -25 3 -25 34 0 33 2
35 32 35 26 0 31 -3 26 -17z m75 -20 c2 -19 -1 -33 -7 -33 -6 0 -11 14 -11 30
0 17 -4 30 -10 30 -5 0 -10 -13 -10 -30 0 -16 -4 -30 -10 -30 -5 0 -10 16 -10
36 0 33 2 35 28 32 22 -2 28 -8 30 -35z m62 8 c0 -16 6 -32 13 -34 6 -3 -4 -5
-23 -5 -19 0 -29 2 -22 5 6 2 12 15 12 28 0 13 -6 26 -12 28 -7 3 -3 6 10 6
18 1 22 -4 22 -28z m90 -6 c0 -19 -4 -35 -10 -35 -5 0 -10 14 -10 31 0 17 -4
28 -10 24 -5 -3 -10 -17 -10 -31 0 -13 -4 -24 -10 -24 -5 0 -10 16 -10 35 0
32 2 35 30 35 28 0 30 -3 30 -35z m-1020 -180 c0 -8 -4 -15 -10 -15 -5 0 -10
7 -10 15 0 8 5 15 10 15 6 0 10 -7 10 -15z m620 5 c0 -5 -4 -10 -10 -10 -5 0
-10 5 -10 10 0 6 5 10 10 10 6 0 10 -4 10 -10z m230 -5 c0 -8 -4 -15 -10 -15
-5 0 -10 7 -10 15 0 8 5 15 10 15 6 0 10 -7 10 -15z m230 0 c0 -8 -4 -15 -10
-15 -5 0 -10 7 -10 15 0 8 5 15 10 15 6 0 10 -7 10 -15z m610 5 c0 -5 -2 -10
-4 -10 -3 0 -8 5 -11 10 -3 6 -1 10 4 10 6 0 11 -4 11 -10z m240 -5 c0 -8 -4
-15 -10 -15 -5 0 -10 7 -10 15 0 8 5 15 10 15 6 0 10 -7 10 -15z m230 0 c0 -8
-4 -15 -10 -15 -5 0 -10 7 -10 15 0 8 5 15 10 15 6 0 10 -7 10 -15z m250 -41
c0 -42 -1 -44 -29 -44 -20 0 -30 6 -34 19 -6 23 10 51 28 51 8 0 15 7 15 16 0
8 5 12 10 9 6 -3 10 -26 10 -51z m280 41 c0 -8 -2 -15 -4 -15 -2 0 -6 7 -10
15 -3 8 -1 15 4 15 6 0 10 -7 10 -15z m240 0 c0 -8 -4 -15 -10 -15 -5 0 -10 7
-10 15 0 8 5 15 10 15 6 0 10 -7 10 -15z m460 0 c0 -8 -4 -15 -10 -15 -5 0
-10 7 -10 15 0 8 5 15 10 15 6 0 10 -7 10 -15z m230 0 c0 -8 -4 -15 -10 -15
-5 0 -10 7 -10 15 0 8 5 15 10 15 6 0 10 -7 10 -15z m310 0 c0 -8 -4 -15 -10
-15 -5 0 -10 7 -10 15 0 8 5 15 10 15 6 0 10 -7 10 -15z m230 0 c0 -8 -4 -15
-10 -15 -5 0 -10 7 -10 15 0 8 5 15 10 15 6 0 10 -7 10 -15z m380 0 c0 -8 -4
-15 -10 -15 -5 0 -10 7 -10 15 0 8 5 15 10 15 6 0 10 -7 10 -15z m-4440 -24
c0 -45 -10 -61 -36 -61 -13 0 -24 4 -24 9 0 5 8 8 18 7 25 -2 30 60 5 67 -12
3 -8 5 10 6 23 1 27 -3 27 -28z m300 19 c0 -5 -6 -7 -14 -4 -26 10 -26 -13 0
-25 33 -15 28 -45 -9 -49 -15 -2 -27 1 -27 6 0 6 9 8 20 5 13 -4 20 0 20 10 0
8 -9 17 -20 20 -31 8 -27 47 5 47 14 0 25 -4 25 -10z m380 -13 c12 -4 11 -6
-2 -6 -12 -1 -18 -9 -18 -25 0 -15 7 -26 18 -29 13 -4 11 -5 -5 -6 -19 -1 -23
4 -23 29 0 17 -5 30 -10 30 -6 0 -5 6 2 14 7 8 15 10 18 6 3 -4 12 -10 20 -13z
m393 16 c-8 -2 -13 -22 -13 -44 0 -21 -4 -39 -10 -39 -5 0 -10 18 -10 39 0 29
-5 41 -17 44 -10 3 0 5 22 5 22 0 34 -2 28 -5z m307 -2 c0 -5 -9 -7 -20 -4
-29 8 -25 -12 6 -26 36 -16 28 -45 -14 -49 -18 -2 -32 1 -32 8 0 6 10 8 25 4
32 -8 32 5 -2 31 -15 13 -23 27 -19 33 8 14 56 16 56 3z m366 -6 c9 -8 11 -15
5 -15 -19 0 -12 -48 7 -54 10 -3 7 -4 -8 -3 -19 2 -26 9 -31 32 -5 29 -2 55 8
55 2 0 11 -7 19 -15z m381 -12 l11 -28 1 28 c2 46 21 30 21 -18 0 -52 -22 -62
-38 -17 l-10 27 -1 -27 c-2 -47 -21 -31 -21 17 0 52 20 61 37 18z m331 -15
c-3 -40 -5 -43 -33 -45 -20 -1 -23 0 -7 4 17 3 22 11 22 38 0 18 -6 36 -12 38
-7 3 -3 6 10 6 21 1 23 -3 20 -41z m469 26 c3 -8 1 -20 -5 -26 -8 -8 -8 -17
-1 -30 6 -12 6 -18 0 -18 -6 0 -16 10 -23 23 l-12 22 -7 -25 c-5 -19 -7 -14
-8 23 -1 44 1 47 24 47 14 0 28 -7 32 -16z m293 -7 c12 -4 11 -6 -2 -6 -12 -1
-18 -9 -18 -25 0 -15 7 -26 18 -29 13 -4 11 -5 -5 -6 -19 -1 -23 4 -23 29 0
17 -5 30 -10 30 -6 0 -5 6 2 14 7 8 15 10 18 6 3 -4 12 -10 20 -13z m400 14
c0 -5 -8 -7 -19 -4 -21 5 -35 -20 -25 -49 4 -13 12 -18 25 -15 10 3 19 1 19
-4 0 -5 -11 -9 -25 -9 -33 0 -52 38 -36 69 12 21 61 31 61 12z m70 0 c0 -5 -9
-7 -20 -4 -11 3 -20 0 -20 -6 0 -6 4 -11 9 -11 17 0 40 -30 35 -45 -7 -16 -64
-21 -64 -6 0 5 8 7 19 4 30 -8 35 16 7 29 -25 11 -33 28 -19 41 10 10 53 8 53
-2z m76 -2 c4 -8 0 -9 -15 -4 -27 8 -27 -9 1 -27 28 -19 18 -48 -17 -48 -14 0
-25 4 -25 9 0 5 9 7 20 4 14 -4 20 0 20 11 0 9 -6 16 -14 16 -19 0 -29 17 -22
35 6 18 42 20 52 4z m382 -31 c-3 -40 -5 -43 -33 -45 -20 -1 -23 0 -7 4 17 3
22 11 22 38 0 18 -6 36 -12 38 -7 3 -3 6 10 6 21 1 23 -3 20 -41z m-4076 -13
c4 -32 2 -35 -23 -35 -45 0 -47 32 -4 42 18 5 18 6 -5 16 l-25 11 26 0 c23 1
27 -4 31 -34z m42 13 l7 -23 11 25 c14 33 22 11 9 -23 -14 -36 -27 -34 -40 4
-13 38 -13 39 -2 39 5 0 12 -10 15 -22z m110 6 c14 -37 7 -54 -24 -54 -23 0
-30 4 -30 20 0 13 7 20 20 20 27 0 25 18 -2 23 -21 4 -20 4 3 6 16 0 29 -5 33
-15z m156 7 c0 -5 -8 -8 -17 -7 -12 1 -18 -6 -18 -19 0 -13 6 -20 18 -19 9 1
17 -2 17 -7 0 -16 -39 -9 -49 8 -12 23 4 53 29 53 11 0 20 -4 20 -9z m83 -8
c-4 -11 -8 -13 -11 -5 -2 7 -8 10 -13 6 -13 -8 -11 -42 4 -47 6 -3 1 -6 -13
-6 -22 -1 -25 3 -25 34 0 33 2 35 32 35 26 0 31 -3 26 -17z m57 -12 c0 -16 6
-32 13 -34 6 -3 -4 -5 -23 -5 -19 0 -29 2 -22 5 6 2 12 15 12 28 0 13 -6 26
-12 28 -7 3 -3 6 10 6 18 1 22 -4 22 -28z m95 10 c8 -26 -4 -51 -25 -51 -10 0
-21 -8 -23 -17 -3 -10 -5 6 -6 35 -1 49 0 52 23 52 15 0 27 -7 31 -19z m502
-8 l10 -28 6 28 c4 15 12 27 17 27 11 0 -18 -87 -32 -96 -5 -3 -12 -3 -16 1
-4 4 -2 10 5 12 9 3 8 14 -2 44 -8 21 -10 39 -5 39 4 0 12 -12 17 -27z m111
-6 c3 -22 -1 -30 -17 -34 -12 -3 -21 -12 -21 -19 0 -8 -4 -14 -10 -14 -5 0
-10 23 -10 51 0 49 1 50 28 47 21 -2 28 -9 30 -31z m80 11 c2 -12 -5 -18 -25
-20 l-28 -4 25 -12 25 -12 -25 3 c-25 2 -37 25 -26 53 8 20 50 14 54 -8z m152
13 c0 -5 -8 -8 -17 -7 -27 2 -28 -33 -1 -44 l23 -10 -24 3 c-32 3 -49 30 -32
51 14 17 51 22 51 7z m80 -6 c0 -9 -6 -12 -16 -8 -14 5 -16 1 -12 -20 4 -20 1
-27 -11 -27 -12 0 -16 9 -16 35 0 32 3 35 28 35 17 0 27 -5 27 -15z m60 -14
c0 -16 6 -32 13 -34 6 -3 -4 -5 -23 -5 -19 0 -29 2 -22 5 6 2 12 15 12 28 0
13 -6 26 -12 28 -7 3 -3 6 10 6 18 1 22 -4 22 -28z m90 -2 c0 -22 -5 -32 -20
-36 -11 -3 -20 -12 -20 -20 0 -8 -4 -11 -10 -8 -5 3 -10 26 -10 51 0 42 1 44
30 44 27 0 30 -3 30 -31z m535 -4 c0 -25 -4 -30 -25 -30 -16 0 -26 6 -28 18
-6 30 6 49 30 45 18 -2 23 -9 23 -33z m155 31 c0 -2 3 -11 6 -19 4 -11 -2 -17
-23 -19 l-28 -4 25 -11 25 -12 -27 0 c-31 -1 -47 31 -28 54 11 13 50 21 50 11z
m150 -6 c0 -5 -8 -7 -17 -4 -12 4 -10 0 6 -14 13 -11 21 -24 17 -31 -8 -13
-56 -15 -56 -2 0 5 9 7 20 4 11 -3 20 0 20 6 0 6 -6 11 -14 11 -18 0 -29 16
-21 30 8 13 45 13 45 0z m468 -12 c2 -13 -3 -18 -17 -18 -28 0 -27 -17 2 -23
15 -4 12 -5 -8 -4 -31 2 -43 23 -31 53 8 21 50 14 54 -8z m74 -13 c4 -32 2
-35 -23 -35 -45 0 -47 32 -4 42 18 5 18 6 -5 16 l-25 11 26 0 c23 1 27 -4 31
-34z m78 26 c0 -5 -8 -8 -17 -7 -12 1 -18 -6 -18 -19 0 -13 6 -20 18 -19 9 1
17 -2 17 -7 0 -16 -39 -9 -49 8 -12 23 4 53 29 53 11 0 20 -4 20 -9z m1078
-29 c3 -31 2 -33 -24 -30 -34 4 -44 27 -15 35 26 7 27 20 4 27 -11 3 -7 4 7 3
21 -2 26 -8 28 -35z m42 16 l9 -23 7 23 c3 12 10 22 15 22 11 0 11 -1 -2 -39
-13 -38 -26 -40 -39 -5 -17 44 -8 65 10 22z m108 -16 c3 -31 2 -33 -24 -30
-34 4 -44 27 -15 35 26 7 27 20 4 27 -11 3 -7 4 7 3 21 -2 26 -8 28 -35z
m-3548 -11 c0 -16 -12 -41 -19 -41 -6 0 -7 32 -2 48 3 7 21 1 21 -7z m1071 -4
c-1 -4 -1 -14 -1 -22 0 -8 -4 -15 -10 -15 -5 0 -10 12 -10 26 0 14 5 24 11 22
6 -2 10 -7 10 -11z m770 0 c-1 -4 -1 -14 -1 -22 0 -8 -4 -15 -10 -15 -5 0 -10
12 -10 26 0 14 5 24 11 22 6 -2 10 -7 10 -11z m693 -20 c-3 -9 -10 -17 -15
-17 -11 0 -12 34 -2 44 11 11 24 -9 17 -27z m540 0 c-3 -9 -10 -17 -15 -17
-11 0 -12 34 -2 44 11 11 24 -9 17 -27z m-4080 -220 c-3 -9 -10 -17 -15 -17
-11 0 -12 34 -2 44 11 11 24 -9 17 -27z m-94 -154 c0 -21 3 -24 12 -15 17 17
33 15 19 -2 -9 -11 -10 -20 -1 -35 12 -23 1 -28 -18 -9 -9 9 -12 9 -12 0 0 -7
-4 -12 -10 -12 -5 0 -10 23 -10 50 0 28 5 50 10 50 6 0 10 -12 10 -27z m320
-17 c0 -34 4 -46 18 -50 10 -3 6 -4 -8 -3 -22 2 -25 7 -28 42 -2 22 -9 43 -15
47 -7 5 -3 8 11 8 19 0 22 -5 22 -44z m180 -7 c0 -49 -1 -50 -27 -47 -22 2
-29 9 -31 31 -3 22 1 30 17 34 12 3 21 12 21 19 0 8 5 14 10 14 6 0 10 -23 10
-51z m76 9 c-3 -13 -5 -26 -5 -30 -1 -5 -9 -8 -18 -9 -13 0 -12 -3 5 -10 13
-5 22 -15 20 -21 -6 -17 -48 -23 -62 -8 -8 9 -4 10 17 5 17 -5 27 -3 27 4 0 6
-9 11 -20 11 -16 0 -20 7 -20 34 0 30 4 35 28 39 15 2 28 5 29 6 2 0 1 -9 -1
-21z m282 -15 c0 -21 -3 -31 -6 -23 -3 8 -10 18 -16 22 -8 5 -7 8 2 8 6 0 12
7 12 15 0 8 2 15 4 15 2 0 4 -17 4 -37z m-749 -10 c-1 -37 -2 -37 -8 -8 -3 17
-11 30 -16 30 -5 0 -13 -13 -16 -30 -6 -29 -7 -29 -8 8 -1 33 2 37 24 37 22 0
25 -4 24 -37z m76 2 c0 -25 -4 -30 -25 -30 -16 0 -26 6 -28 18 -6 30 6 49 30
45 18 -2 23 -9 23 -33z m36 18 c0 -11 3 -13 6 -5 7 17 21 15 26 -5 4 -14 5
-12 6 5 0 12 6 22 12 22 6 0 8 -7 5 -16 -3 -9 -6 -24 -6 -34 0 -14 -7 -18 -30
-18 -16 1 -30 6 -30 12 0 6 -3 21 -6 34 -4 13 -2 22 5 22 6 0 11 -8 12 -17z
m197 -5 c2 -13 -3 -18 -17 -18 -28 0 -27 -17 2 -23 20 -4 19 -4 -4 -6 -30 -1
-43 20 -33 51 7 24 47 21 52 -4z m232 18 c0 -2 3 -11 6 -20 5 -12 0 -16 -21
-16 -16 0 -24 -4 -20 -11 4 -6 13 -8 21 -5 8 3 14 1 14 -4 0 -17 -47 -11 -54
6 -11 28 3 54 30 54 13 0 24 -2 24 -4z m-19 -216 c16 0 19 -7 18 -37 -1 -36
-2 -37 -8 -9 -3 17 -10 30 -16 30 -5 0 -13 -13 -16 -30 -5 -21 -7 -14 -7 26 0
30 2 47 5 38 2 -10 13 -18 24 -18z m232 23 c-8 -3 -13 -24 -13 -53 0 -29 5
-50 13 -53 7 -3 5 -6 -5 -6 -15 -1 -18 8 -18 59 0 51 3 60 18 59 10 0 12 -3 5
-6z m77 -8 c0 -8 -4 -15 -10 -15 -5 0 -10 7 -10 15 0 8 5 15 10 15 6 0 10 -7
10 -15z m160 5 c0 -5 -4 -10 -10 -10 -5 0 -10 5 -10 10 0 6 5 10 10 10 6 0 10
-4 10 -10z m150 -5 c0 -8 -4 -15 -10 -15 -5 0 -10 7 -10 15 0 8 5 15 10 15 6
0 10 -7 10 -15z m230 0 c0 -8 -4 -15 -10 -15 -5 0 -10 7 -10 15 0 8 5 15 10
15 6 0 10 -7 10 -15z m290 1 c0 -7 9 -16 20 -19 15 -4 20 -14 20 -36 0 -17 -4
-31 -10 -31 -5 0 -10 14 -10 30 0 17 -4 30 -10 30 -5 0 -10 -13 -10 -30 0 -16
-4 -30 -10 -30 -5 0 -10 23 -10 50 0 28 5 50 10 50 6 0 10 -6 10 -14z m90 -1
c0 -8 -2 -15 -4 -15 -2 0 -6 7 -10 15 -3 8 -1 15 4 15 6 0 10 -7 10 -15z m240
0 c0 -8 -4 -15 -10 -15 -5 0 -10 7 -10 15 0 8 5 15 10 15 6 0 10 -7 10 -15z
m460 0 c0 -8 -4 -15 -10 -15 -5 0 -10 7 -10 15 0 8 5 15 10 15 6 0 10 -7 10
-15z m230 0 c0 -8 -4 -15 -10 -15 -5 0 -10 7 -10 15 0 8 5 15 10 15 6 0 10 -7
10 -15z m310 5 c0 -5 -4 -10 -10 -10 -5 0 -10 5 -10 10 0 6 5 10 10 10 6 0 10
-4 10 -10z m920 -5 c0 -8 -4 -15 -10 -15 -5 0 -10 7 -10 15 0 8 5 15 10 15 6
0 10 -7 10 -15z m80 -45 c0 -51 -3 -60 -17 -59 -11 0 -13 3 -5 6 7 3 12 24 12
53 0 29 -5 50 -12 53 -8 3 -6 6 5 6 14 1 17 -8 17 -59z m-3675 20 c0 -18 -6
-26 -22 -28 -12 -2 -24 -11 -26 -20 -3 -9 -5 5 -6 31 -1 47 0 48 27 45 21 -2
27 -8 27 -28z m131 15 c9 -8 11 -15 5 -15 -19 0 -12 -48 7 -54 10 -3 7 -4 -8
-3 -19 2 -26 9 -31 32 -5 29 -2 55 8 55 2 0 11 -7 19 -15z m484 7 c0 -5 -10
-8 -22 -8 -17 1 -24 -5 -26 -23 -5 -30 13 -50 30 -33 10 10 10 15 -2 22 -13 8
-12 10 3 10 12 0 17 -8 17 -25 0 -20 -5 -25 -25 -25 -33 0 -52 38 -36 69 11
20 61 31 61 13z m140 -15 c12 -4 11 -6 -2 -6 -12 -1 -18 -9 -18 -25 0 -15 7
-26 18 -29 13 -4 11 -5 -5 -6 -19 -1 -23 4 -23 29 0 17 -5 30 -10 30 -6 0 -5
6 2 14 7 8 15 10 18 6 3 -4 12 -10 20 -13z m395 -22 c0 -36 -3 -40 -27 -43
-27 -3 -28 -2 -28 43 0 45 1 46 28 43 24 -3 27 -7 27 -43z m622 29 c3 -8 1
-20 -5 -26 -8 -8 -8 -17 -1 -30 6 -12 6 -18 0 -18 -6 0 -16 10 -23 23 l-12 22
-7 -25 c-5 -19 -7 -14 -8 23 -1 44 1 47 24 47 14 0 28 -7 32 -16z m688 -29 c0
-36 -3 -40 -27 -43 -27 -3 -28 -2 -28 43 0 45 1 46 28 43 24 -3 27 -7 27 -43z
m543 17 c3 -17 -2 -25 -17 -29 -12 -3 -21 -12 -21 -19 0 -8 -4 -14 -10 -14 -5
0 -10 21 -10 46 0 44 1 45 28 42 19 -2 28 -9 30 -26z m128 13 c9 -8 11 -15 5
-15 -19 0 -12 -48 7 -54 10 -3 7 -4 -8 -3 -19 2 -26 9 -31 32 -5 29 -2 55 8
55 2 0 11 -7 19 -15z m84 -13 c-14 -5 -12 -49 3 -55 6 -3 2 -6 -10 -6 -19 -1
-23 4 -23 29 0 17 -5 30 -10 30 -6 0 -5 6 2 14 10 10 17 11 30 2 10 -6 14 -12
8 -14z m-1294 -4 c-3 -13 -5 -26 -5 -30 -1 -5 -9 -8 -18 -9 -13 0 -12 -3 5
-10 13 -5 22 -15 20 -21 -6 -17 -48 -23 -62 -8 -8 9 -4 10 17 5 17 -5 27 -3
27 4 0 6 -9 11 -21 11 -17 0 -20 5 -17 32 2 25 9 34 28 39 14 4 26 7 27 8 2 1
1 -9 -1 -21z m854 18 c0 -21 -23 -56 -37 -57 -12 -1 -9 -3 7 -8 14 -4 25 -13
25 -21 0 -19 -43 -26 -59 -10 -8 9 -4 10 17 5 17 -5 27 -3 27 4 0 6 -9 11 -19
11 -12 0 -21 10 -25 26 -8 29 -1 40 29 47 30 7 35 7 35 3z m-3012 -44 c3 -31
2 -33 -24 -30 -34 4 -44 27 -15 35 26 7 27 20 4 27 -11 3 -7 4 7 3 21 -2 26
-8 28 -35z m80 1 c2 -19 -1 -33 -7 -33 -6 0 -11 14 -11 30 0 17 -4 30 -10 30
-5 0 -10 -13 -10 -30 0 -16 -4 -30 -10 -30 -5 0 -10 16 -10 36 0 33 2 35 28
32 22 -2 28 -8 30 -35z m42 15 l9 -23 7 23 c3 12 11 22 16 22 19 0 -19 -91
-42 -98 -12 -4 -13 -3 -2 10 9 11 10 23 2 42 -17 46 -8 68 10 24z m184 6 c14
-37 7 -54 -24 -54 -23 0 -30 4 -30 20 0 13 7 20 20 20 27 0 25 18 -2 23 -21 4
-20 4 3 6 16 0 29 -5 33 -15z m606 -13 c0 -16 6 -32 13 -34 6 -3 -4 -5 -23 -5
-19 0 -29 2 -22 5 6 2 12 15 12 28 0 13 -6 26 -12 28 -7 3 -3 6 10 6 18 1 22
-4 22 -28z m548 -9 c3 -31 2 -33 -24 -30 -34 4 -44 27 -15 35 26 7 27 20 4 27
-11 3 -7 4 7 3 21 -2 26 -8 28 -35z m82 29 c0 -5 -10 -7 -22 -4 l-23 5 24 -20
c28 -22 21 -42 -15 -42 -14 0 -23 4 -19 10 3 5 12 7 20 3 22 -8 18 10 -5 25
-12 7 -18 17 -15 22 8 13 55 13 55 1z m538 -13 c2 -13 -3 -18 -17 -18 -28 0
-27 -17 2 -23 15 -4 12 -5 -8 -4 -31 2 -43 23 -31 53 8 21 50 14 54 -8z m152
18 c0 -2 3 -11 6 -19 4 -11 -2 -17 -23 -19 l-28 -4 25 -11 25 -12 -27 0 c-31
-1 -47 31 -28 54 11 13 50 21 50 11z m48 -8 c9 -9 12 -9 12 0 0 7 5 12 10 12
7 0 7 -6 1 -18 -7 -13 -6 -23 1 -30 7 -7 8 -15 4 -19 -4 -4 -11 -1 -15 6 -6 9
-11 10 -15 2 -13 -21 -27 -12 -16 10 9 15 8 24 -1 35 -14 17 2 19 19 2z m490
-10 c2 -13 -3 -18 -17 -18 -28 0 -27 -17 2 -23 20 -4 19 -4 -4 -6 -30 -1 -43
20 -33 51 7 24 47 21 52 -4z m72 12 c0 -5 -8 -7 -17 -4 -12 4 -10 0 6 -14 13
-11 21 -24 17 -31 -8 -13 -56 -15 -56 -2 0 5 9 7 20 4 11 -3 20 0 20 6 0 6 -6
11 -14 11 -18 0 -29 16 -21 30 8 13 45 13 45 0z m70 -19 c0 -16 6 -32 13 -34
6 -3 -4 -5 -23 -5 -19 0 -29 2 -22 5 6 2 12 15 12 28 0 13 -6 26 -12 28 -7 3
-3 6 10 6 18 1 22 -4 22 -28z m170 -6 c0 -19 -4 -35 -10 -35 -5 0 -10 14 -10
31 0 17 -4 28 -10 24 -5 -3 -10 -17 -10 -31 0 -13 -4 -24 -10 -24 -5 0 -10 16
-10 35 0 32 2 35 30 35 28 0 30 -3 30 -35z m228 -3 c3 -31 2 -33 -24 -30 -34
4 -44 27 -15 35 26 7 27 20 4 27 -11 3 -7 4 7 3 21 -2 26 -8 28 -35z m230 16
c2 -13 -3 -18 -17 -18 -28 0 -27 -17 2 -23 20 -4 19 -4 -4 -6 -30 -1 -43 20
-33 51 7 24 47 21 52 -4z m82 5 c0 -15 -2 -16 -10 -3 -8 12 -10 12 -16 -3 -3
-9 -4 -24 0 -32 3 -10 -1 -15 -12 -15 -13 0 -17 9 -17 35 0 32 3 35 28 35 19
0 27 -5 27 -17z m78 -20 c2 -19 -1 -33 -7 -33 -6 0 -11 14 -11 30 0 17 -4 30
-10 30 -5 0 -10 -13 -10 -30 0 -16 -4 -30 -10 -30 -5 0 -10 16 -10 36 0 33 2
35 28 32 22 -2 28 -8 30 -35z m72 28 c0 -5 -10 -7 -22 -4 l-23 5 24 -20 c28
-22 21 -42 -15 -42 -14 0 -23 4 -19 10 3 5 12 7 20 3 22 -8 18 10 -5 25 -12 7
-18 17 -15 22 8 13 55 13 55 1z m-2630 -40 c0 -16 -12 -41 -19 -41 -6 0 -7 32
-2 48 3 7 21 1 21 -7z m611 -4 c-1 -4 -1 -14 -1 -22 0 -8 -4 -15 -10 -15 -5 0
-10 12 -10 26 0 14 5 24 11 22 6 -2 10 -7 10 -11z m693 -20 c-3 -9 -10 -17
-15 -17 -11 0 -12 34 -2 44 11 11 24 -9 17 -27z m1540 0 c-3 -9 -10 -17 -15
-17 -11 0 -12 34 -2 44 11 11 24 -9 17 -27z m-3824 -183 c0 -42 -1 -44 -29
-44 -20 0 -30 6 -34 19 -6 23 10 51 28 51 8 0 15 7 15 16 0 8 5 12 10 9 6 -3
10 -26 10 -51z m283 49 c-8 -3 -13 -24 -13 -53 0 -29 5 -50 13 -53 7 -3 5 -6
-5 -6 -15 -1 -18 8 -18 59 0 51 3 60 18 59 10 0 12 -3 5 -6z m77 -8 c0 -8 -4
-15 -10 -15 -5 0 -10 7 -10 15 0 8 5 15 10 15 6 0 10 -7 10 -15z m620 5 c0 -5
-4 -10 -10 -10 -5 0 -10 5 -10 10 0 6 5 10 10 10 6 0 10 -4 10 -10z m230 -5
c0 -8 -4 -15 -10 -15 -5 0 -10 7 -10 15 0 8 5 15 10 15 6 0 10 -7 10 -15z
m230 0 c0 -8 -4 -15 -10 -15 -5 0 -10 7 -10 15 0 8 5 15 10 15 6 0 10 -7 10
-15z m610 5 c0 -5 -2 -10 -4 -10 -3 0 -8 5 -11 10 -3 6 -1 10 4 10 6 0 11 -4
11 -10z m160 -5 c0 -8 -4 -15 -10 -15 -5 0 -10 7 -10 15 0 8 5 15 10 15 6 0
10 -7 10 -15z m230 0 c0 -8 -4 -15 -10 -15 -5 0 -10 7 -10 15 0 8 5 15 10 15
6 0 10 -7 10 -15z m380 0 c0 -8 -2 -15 -4 -15 -2 0 -6 7 -10 15 -3 8 -1 15 4
15 6 0 10 -7 10 -15z m230 0 c0 -8 -2 -15 -4 -15 -2 0 -6 7 -10 15 -3 8 -1 15
4 15 6 0 10 -7 10 -15z m230 0 c0 -8 -2 -15 -4 -15 -2 0 -6 7 -10 15 -3 8 -1
15 4 15 6 0 10 -7 10 -15z m240 0 c0 -8 -4 -15 -10 -15 -5 0 -10 7 -10 15 0 8
5 15 10 15 6 0 10 -7 10 -15z m150 0 c0 -8 -4 -15 -10 -15 -5 0 -10 7 -10 15
0 8 5 15 10 15 6 0 10 -7 10 -15z m230 0 c0 -8 -4 -15 -10 -15 -5 0 -10 7 -10
15 0 8 5 15 10 15 6 0 10 -7 10 -15z m390 0 c0 -8 -4 -15 -10 -15 -5 0 -10 7
-10 15 0 8 5 15 10 15 6 0 10 -7 10 -15z m230 0 c0 -8 -4 -15 -10 -15 -5 0
-10 7 -10 15 0 8 5 15 10 15 6 0 10 -7 10 -15z m300 0 c0 -8 -2 -15 -4 -15 -2
0 -6 7 -10 15 -3 8 -1 15 4 15 6 0 10 -7 10 -15z m90 -45 c0 -56 -2 -60 -22
-59 -17 1 -19 2 -5 6 13 3 17 15 17 53 0 38 -4 50 -17 53 -14 4 -12 5 5 6 20
1 22 -3 22 -59z m-4450 21 c0 -45 -10 -61 -36 -61 -13 0 -24 4 -24 9 0 5 8 8
18 7 25 -2 30 60 5 67 -12 3 -8 5 10 6 23 1 27 -3 27 -28z m300 19 c0 -5 -6
-7 -14 -4 -26 10 -26 -13 0 -25 33 -15 28 -45 -9 -49 -15 -2 -27 1 -27 6 0 6
9 8 20 5 13 -4 20 0 20 10 0 8 -9 17 -20 20 -31 8 -27 47 5 47 14 0 25 -4 25
-10z m366 -5 c9 -8 11 -15 5 -15 -19 0 -12 -48 7 -54 10 -3 7 -4 -8 -3 -19 2
-26 9 -31 32 -5 29 -2 55 8 55 2 0 11 -7 19 -15z m402 -27 c-3 -40 -5 -43 -33
-45 -20 -1 -23 0 -7 4 17 3 22 11 22 38 0 18 -6 36 -12 38 -7 3 -3 6 10 6 21
1 23 -3 20 -41z m312 33 c0 -5 -9 -7 -20 -4 -29 8 -25 -12 6 -26 36 -16 28
-45 -14 -49 -18 -2 -32 1 -32 8 0 6 10 8 25 4 32 -8 32 5 -2 31 -15 13 -23 27
-19 33 8 14 56 16 56 3z m700 -20 c0 -45 -10 -61 -36 -61 -13 0 -24 4 -24 9 0
5 8 8 18 7 25 -2 30 60 5 67 -12 3 -8 5 10 6 23 1 27 -3 27 -28z m616 22 c-4
-4 -15 -8 -24 -8 -19 0 -29 -42 -14 -57 15 -15 64 13 59 33 -3 9 -1 23 4 30 8
12 11 11 19 -1 6 -10 10 -11 10 -2 0 6 4 12 8 12 10 0 7 -79 -3 -88 -4 -4 -10
-1 -13 7 -4 11 -6 11 -13 0 -8 -12 -11 -11 -19 1 -6 10 -10 11 -10 3 0 -16
-42 -17 -58 -1 -7 7 -12 21 -12 33 0 28 18 45 49 45 13 0 21 -3 17 -7z m444
-2 c-19 -5 -25 -13 -25 -36 0 -25 4 -30 23 -29 12 0 22 -3 22 -8 0 -12 -44
-10 -58 4 -7 7 -12 21 -12 33 0 28 19 45 50 44 l25 -1 -25 -7z m360 -11 c0
-11 5 -20 10 -20 6 0 10 9 10 20 0 11 5 20 10 20 6 0 10 -20 10 -45 0 -25 -4
-45 -10 -45 -5 0 -10 9 -10 20 0 11 -4 20 -10 20 -5 0 -10 -9 -10 -20 0 -11
-4 -20 -10 -20 -5 0 -10 20 -10 45 0 25 5 45 10 45 6 0 10 -9 10 -20z m108 13
c-13 -3 -18 -16 -20 -46 l-1 -42 -4 42 c-3 29 -9 43 -21 46 -9 3 1 5 23 5 22
0 32 -2 23 -5z m50 -15 l11 -23 0 23 c1 13 7 22 16 22 11 0 15 -12 15 -45 0
-25 -4 -45 -10 -45 -5 0 -10 8 -10 18 0 14 -2 15 -10 2 -8 -12 -11 -11 -17 10
l-7 25 -7 -30 c-6 -26 -7 -23 -8 18 -1 51 9 61 27 25z m72 -17 c0 -33 4 -40
23 -44 16 -3 13 -5 -10 -6 -33 -1 -33 0 -33 44 0 25 5 45 10 45 6 0 10 -18 10
-39z m410 30 c-19 -5 -25 -13 -25 -36 0 -25 4 -30 23 -29 12 0 22 -3 22 -8 0
-12 -44 -10 -58 4 -7 7 -12 21 -12 33 0 28 19 45 50 44 l25 -1 -25 -7z m90 0
c0 -5 -9 -7 -20 -4 -11 3 -20 0 -20 -6 0 -6 4 -11 9 -11 17 0 40 -30 35 -45
-7 -16 -64 -21 -64 -6 0 5 8 7 19 4 30 -8 35 16 7 29 -25 11 -33 28 -19 41 10
10 53 8 53 -2z m70 -1 c0 -5 -6 -7 -14 -4 -26 10 -26 -13 0 -25 33 -15 28 -45
-9 -49 -15 -2 -27 1 -27 6 0 6 9 8 20 5 13 -4 20 0 20 10 0 8 -9 17 -20 20
-31 8 -27 47 5 47 14 0 25 -4 25 -10z m-4920 -19 c0 -5 -8 -8 -17 -7 -12 1
-18 -6 -18 -19 0 -13 6 -20 18 -19 9 1 17 -2 17 -7 0 -5 -11 -9 -24 -9 -29 0
-44 33 -26 55 14 16 50 20 50 6z m75 -26 c0 -25 -4 -30 -25 -30 -16 0 -26 6
-28 18 -6 30 6 49 30 45 18 -2 23 -9 23 -33z m153 13 c2 -13 -3 -18 -17 -18
-28 0 -27 -17 2 -23 20 -4 19 -4 -4 -6 -30 -1 -43 20 -33 51 7 24 47 21 52 -4z
m62 12 c0 -5 -4 -10 -10 -10 -5 0 -10 5 -10 10 0 6 5 10 10 10 6 0 10 -4 10
-10z m398 -28 c3 -31 2 -33 -24 -30 -34 4 -44 27 -15 35 26 7 27 20 4 27 -11
3 -7 4 7 3 21 -2 26 -8 28 -35z m46 16 l7 -23 11 25 c14 33 22 11 9 -23 -14
-36 -27 -34 -40 4 -13 38 -13 39 -2 39 5 0 12 -10 15 -22z m110 6 c14 -37 7
-54 -24 -54 -23 0 -30 4 -30 20 0 13 7 20 20 20 27 0 25 18 -2 23 -21 4 -20 4
3 6 16 0 29 -5 33 -15z m156 7 c0 -5 -8 -8 -17 -7 -27 2 -28 -33 -1 -44 l23
-10 -24 3 c-32 3 -49 30 -32 51 14 17 51 22 51 7z m80 -8 c0 -15 -2 -16 -10
-3 -8 12 -10 12 -16 -3 -3 -9 -4 -24 0 -32 3 -10 -1 -15 -12 -15 -13 0 -17 9
-17 35 0 32 3 35 28 35 19 0 27 -5 27 -17z m60 -12 c0 -16 6 -32 13 -34 6 -3
-4 -5 -23 -5 -19 0 -29 2 -22 5 6 2 12 15 12 28 0 13 -6 26 -12 28 -7 3 -3 6
10 6 18 1 22 -4 22 -28z m95 10 c8 -26 -4 -51 -25 -51 -10 0 -21 -8 -23 -17
-3 -10 -5 6 -6 35 -1 49 0 52 23 52 15 0 27 -7 31 -19z m533 -19 c3 -31 2 -33
-24 -30 -34 4 -44 27 -15 35 26 7 27 20 4 27 -11 3 -7 4 7 3 21 -2 26 -8 28
-35z m42 16 l9 -23 7 23 c3 12 10 22 15 22 11 0 11 -1 -2 -39 -13 -38 -26 -40
-39 -5 -17 44 -8 65 10 22z m112 -13 c4 -32 2 -35 -23 -35 -45 0 -47 32 -4 42
18 5 18 6 -5 16 l-25 11 26 0 c23 1 27 -4 31 -34z m141 28 c-16 -3 -23 -11
-23 -28 0 -16 7 -25 23 -28 15 -4 12 -5 -8 -4 -20 1 -31 8 -33 20 -6 31 6 47
35 46 24 -2 25 -2 6 -6z m97 -8 c0 -9 -6 -12 -16 -8 -14 5 -16 1 -12 -20 4
-20 1 -27 -11 -27 -12 0 -16 9 -16 35 0 32 3 35 28 35 17 0 27 -5 27 -15z m60
-14 c0 -16 6 -32 13 -34 6 -3 -4 -5 -23 -5 -19 0 -29 2 -22 5 6 2 12 15 12 28
0 13 -6 26 -12 28 -7 3 -3 6 10 6 18 1 22 -4 22 -28z m90 -2 c0 -22 -5 -32
-20 -36 -11 -3 -20 -12 -20 -20 0 -8 -4 -11 -10 -8 -5 3 -10 26 -10 51 0 42 1
44 30 44 27 0 30 -3 30 -31z m458 -7 c3 -31 2 -33 -24 -30 -34 4 -44 27 -15
35 26 7 27 20 4 27 -11 3 -7 4 7 3 21 -2 26 -8 28 -35z m42 16 l9 -23 7 23 c3
12 10 22 15 22 11 0 11 -1 -2 -39 -13 -38 -26 -40 -39 -5 -17 44 -8 65 10 22z
m112 -13 c4 -32 2 -35 -23 -35 -45 0 -47 32 -4 42 18 5 18 6 -5 16 l-25 11 26
0 c23 1 27 -4 31 -34z m-1478 -38 c-3 -9 -10 -17 -15 -17 -11 0 -12 34 -2 44
11 11 24 -9 17 -27z m1000 0 c-3 -9 -10 -17 -15 -17 -11 0 -12 34 -2 44 11 11
24 -9 17 -27z m617 20 c-1 -4 -1 -14 -1 -22 0 -8 -4 -15 -10 -15 -5 0 -10 12
-10 26 0 14 5 24 11 22 6 -2 10 -7 10 -11z m460 0 c-1 -4 -1 -14 -1 -22 0 -8
-4 -15 -10 -15 -5 0 -10 12 -10 26 0 14 5 24 11 22 6 -2 10 -7 10 -11z m389 4
c0 -16 -12 -41 -19 -41 -6 0 -7 32 -2 48 3 7 21 1 21 -7z m614 -24 c-3 -9 -10
-17 -15 -17 -11 0 -12 34 -2 44 11 11 24 -9 17 -27z m614 11 c-2 -12 -8 -23
-14 -25 -7 -2 -10 6 -7 22 6 30 26 34 21 3z m-4848 2 c0 -5 -4 -10 -10 -10 -5
0 -10 5 -10 10 0 6 5 10 10 10 6 0 10 -4 10 -10z m-80 -174 c0 -26 5 -46 13
-49 6 -3 2 -6 -10 -6 -21 -1 -23 4 -23 43 0 26 -5 46 -12 49 -7 3 -3 6 10 6
20 1 22 -4 22 -43z m313 37 c-8 -3 -13 -24 -13 -53 0 -29 5 -50 13 -53 7 -3 5
-6 -5 -6 -15 -1 -18 8 -18 59 0 51 3 60 18 59 10 0 12 -3 5 -6z m77 -8 c0 -8
-4 -15 -10 -15 -5 0 -10 7 -10 15 0 8 5 15 10 15 6 0 10 -7 10 -15z m460 0 c0
-8 -4 -15 -10 -15 -5 0 -10 7 -10 15 0 8 5 15 10 15 6 0 10 -7 10 -15z m230 0
c0 -8 -4 -15 -10 -15 -5 0 -10 7 -10 15 0 8 5 15 10 15 6 0 10 -7 10 -15z
m380 -29 c0 -26 5 -47 13 -50 6 -3 3 -5 -8 -3 -16 2 -21 11 -23 42 -2 22 -9
43 -15 47 -7 5 -3 8 11 8 19 0 22 -5 22 -44z m240 29 c0 -8 -4 -15 -10 -15 -5
0 -10 7 -10 15 0 8 5 15 10 15 6 0 10 -7 10 -15z m230 0 c0 -8 -4 -15 -10 -15
-5 0 -10 7 -10 15 0 8 5 15 10 15 6 0 10 -7 10 -15z m250 -41 c0 -42 -1 -44
-29 -44 -20 0 -30 6 -34 19 -6 23 10 51 28 51 8 0 15 7 15 16 0 8 5 12 10 9 6
-3 10 -26 10 -51z m290 41 c0 -8 -4 -15 -10 -15 -5 0 -10 7 -10 15 0 8 5 15
10 15 6 0 10 -7 10 -15z m230 0 c0 -8 -4 -15 -10 -15 -5 0 -10 7 -10 15 0 8 5
15 10 15 6 0 10 -7 10 -15z m380 0 c0 -8 -4 -15 -10 -15 -5 0 -10 7 -10 15 0
8 5 15 10 15 6 0 10 -7 10 -15z m230 0 c0 -8 -4 -15 -10 -15 -5 0 -10 7 -10
15 0 8 5 15 10 15 6 0 10 -7 10 -15z m290 -12 c0 -21 3 -24 12 -15 17 17 33
15 19 -2 -9 -11 -10 -20 -1 -35 12 -23 1 -28 -18 -9 -9 9 -12 9 -12 0 0 -7 -4
-12 -10 -12 -5 0 -10 23 -10 50 0 28 5 50 10 50 6 0 10 -12 10 -27z m250 12
c0 -8 -4 -15 -10 -15 -5 0 -10 7 -10 15 0 8 5 15 10 15 6 0 10 -7 10 -15z
m230 0 c0 -8 -4 -15 -10 -15 -5 0 -10 7 -10 15 0 8 5 15 10 15 6 0 10 -7 10
-15z m310 5 c0 -5 -4 -10 -10 -10 -5 0 -10 5 -10 10 0 6 5 10 10 10 6 0 10 -4
10 -10z m230 -5 c0 -8 -4 -15 -10 -15 -5 0 -10 7 -10 15 0 8 5 15 10 15 6 0
10 -7 10 -15z m80 -45 c0 -51 -3 -60 -17 -59 -11 0 -13 3 -5 6 7 3 12 24 12
53 0 29 -5 50 -12 53 -8 3 -6 6 5 6 14 1 17 -8 17 -59z m-4920 27 c12 -4 11
-6 -2 -6 -12 -1 -18 -9 -18 -25 0 -15 7 -26 18 -29 13 -4 11 -5 -5 -6 -19 -1
-23 4 -23 29 0 17 -5 30 -10 30 -6 0 -5 6 2 14 7 8 15 10 18 6 3 -4 12 -10 20
-13z m707 7 c3 -8 1 -20 -5 -26 -8 -8 -8 -17 -1 -30 6 -12 6 -18 0 -18 -6 0
-16 10 -23 23 l-12 22 -7 -25 c-5 -19 -7 -14 -8 23 -1 44 1 47 24 47 14 0 28
-7 32 -16z m293 -7 c12 -4 11 -6 -2 -6 -12 -1 -18 -9 -18 -25 0 -15 7 -26 18
-29 13 -4 11 -5 -5 -6 -19 -1 -23 4 -23 29 0 17 -5 30 -10 30 -6 0 -5 6 2 14
7 8 15 10 18 6 3 -4 12 -10 20 -13z m393 -22 c17 -49 17 -51 -14 -32 -17 10
-23 10 -26 0 -8 -23 -25 -14 -17 10 25 82 36 86 57 22z m824 18 l11 -28 1 28
c2 46 21 30 21 -18 0 -52 -22 -62 -38 -17 l-10 27 -1 -27 c-2 -47 -21 -31 -21
17 0 52 20 61 37 18z m331 -15 c-3 -40 -5 -43 -33 -45 -20 -1 -23 0 -7 4 17 3
22 11 22 38 0 18 -6 36 -12 38 -7 3 -3 6 10 6 21 1 23 -3 20 -41z m460 0 c-3
-40 -5 -43 -33 -45 -20 -1 -23 0 -7 4 17 3 22 11 22 38 0 18 -6 36 -12 38 -7
3 -3 6 10 6 21 1 23 -3 20 -41z m222 14 c-14 -5 -12 -49 3 -55 6 -3 2 -6 -10
-6 -19 -1 -23 4 -23 29 0 17 -5 30 -10 30 -6 0 -5 6 2 14 10 10 17 11 30 2 10
-6 14 -12 8 -14z m395 -17 c0 -36 -3 -40 -27 -43 -27 -3 -28 -2 -28 43 0 45 1
46 28 43 24 -3 27 -7 27 -43z m771 34 c4 -8 0 -9 -15 -4 -27 8 -27 -9 1 -27
28 -19 18 -48 -17 -48 -14 0 -25 4 -25 9 0 5 9 7 20 4 14 -4 20 0 20 11 0 9
-6 16 -14 16 -19 0 -29 17 -22 35 6 18 42 20 52 4z m-2843 -30 c-4 -12 -15
-24 -27 -27 -20 -6 -20 -6 4 -12 37 -9 32 -34 -7 -38 -19 -2 -33 1 -33 8 0 6
10 8 25 4 15 -4 25 -2 25 4 0 6 -10 12 -22 14 -18 2 -23 10 -23 33 0 23 5 30
25 35 33 9 39 4 33 -21z m3237 27 c0 -21 -23 -56 -37 -57 -12 -1 -9 -3 7 -8
14 -4 25 -13 25 -21 0 -19 -43 -26 -59 -10 -8 9 -4 10 17 5 17 -5 27 -3 27 4
0 6 -9 11 -19 11 -12 0 -21 10 -25 26 -8 29 -1 40 29 47 30 7 35 7 35 3z
m-4705 -41 c0 -25 -4 -30 -25 -30 -16 0 -26 6 -28 18 -6 30 6 49 30 45 18 -2
23 -9 23 -33z m80 0 c0 -25 -4 -30 -25 -30 -16 0 -26 6 -28 18 -6 30 6 49 30
45 18 -2 23 -9 23 -33z m145 25 c0 -5 -8 -7 -17 -4 -12 4 -10 0 6 -14 13 -11
21 -24 17 -31 -8 -13 -56 -15 -56 -2 0 5 9 7 20 4 11 -3 20 0 20 6 0 6 -6 11
-14 11 -18 0 -29 16 -21 30 8 13 45 13 45 0z m468 -12 c2 -13 -3 -18 -17 -18
-28 0 -27 -17 2 -23 20 -4 19 -4 -4 -6 -30 -1 -43 20 -33 51 7 24 47 21 52 -4z
m76 6 c14 -37 7 -54 -24 -54 -23 0 -30 4 -30 20 0 13 7 20 20 20 27 0 25 18
-2 23 -21 4 -20 4 3 6 16 0 29 -5 33 -15z m81 6 c-3 -5 -12 -7 -20 -3 -11 4
-15 -2 -15 -20 0 -18 6 -27 23 -30 15 -4 12 -5 -8 -4 -49 3 -49 67 0 67 15 0
24 -4 20 -10z m534 -27 c-1 -37 -2 -37 -8 -8 -3 17 -11 30 -16 30 -5 0 -13
-13 -16 -30 -6 -29 -7 -29 -8 8 -1 33 2 37 24 37 22 0 25 -4 24 -37z m121 7
c0 -16 5 -30 10 -30 6 0 10 14 10 30 0 17 5 30 10 30 6 0 10 -16 10 -36 0 -33
-2 -35 -27 -32 -23 2 -29 8 -31 36 -2 18 1 32 7 32 6 0 11 -13 11 -30z m188
-8 c3 -31 2 -33 -24 -30 -34 4 -44 27 -15 35 26 7 27 20 4 27 -11 3 -7 4 7 3
21 -2 26 -8 28 -35z m82 21 c0 -15 -2 -16 -10 -3 -8 12 -10 12 -16 -3 -3 -9
-4 -24 0 -32 3 -10 -1 -15 -12 -15 -13 0 -17 9 -17 35 0 32 3 35 28 35 19 0
27 -5 27 -17z m455 -18 c0 -25 -4 -30 -25 -30 -16 0 -26 6 -28 18 -6 30 6 49
30 45 18 -2 23 -9 23 -33z m155 31 c0 -2 3 -11 6 -19 4 -11 -2 -17 -23 -19
l-28 -4 25 -11 25 -12 -27 0 c-31 -1 -47 31 -28 54 11 13 50 21 50 11z m150
-6 c0 -5 -8 -7 -17 -4 -12 4 -10 0 6 -14 13 -11 21 -24 17 -31 -8 -13 -56 -15
-56 -2 0 5 9 7 20 4 11 -3 20 0 20 6 0 6 -6 11 -14 11 -18 0 -29 16 -21 30 8
13 45 13 45 0z m468 -12 c2 -13 -3 -18 -17 -18 -28 0 -27 -17 2 -23 20 -4 19
-4 -4 -6 -30 -1 -43 20 -33 51 7 24 47 21 52 -4z m72 12 c0 -5 -8 -7 -17 -4
-12 4 -10 0 6 -14 13 -11 21 -24 17 -31 -8 -13 -56 -15 -56 -2 0 5 9 7 20 4
11 -3 20 0 20 6 0 6 -6 11 -14 11 -18 0 -29 16 -21 30 8 13 45 13 45 0z m545
-25 c0 -25 -4 -30 -25 -30 -16 0 -26 6 -28 18 -6 30 6 49 30 45 18 -2 23 -9
23 -33z m75 26 c0 -5 -8 -8 -17 -7 -12 1 -18 -6 -18 -19 0 -13 6 -20 18 -19 9
1 17 -2 17 -7 0 -16 -39 -9 -49 8 -12 23 4 53 29 53 11 0 20 -4 20 -9z m158
-13 c2 -12 -5 -18 -25 -20 l-28 -4 25 -12 25 -12 -25 3 c-25 2 -37 25 -26 53
8 20 50 14 54 -8z m82 13 c0 -15 -20 -24 -21 -9 0 7 -5 3 -12 -10 -8 -19 -8
-25 4 -33 11 -7 10 -9 -6 -9 -16 0 -20 7 -20 35 0 32 3 35 28 35 15 0 27 -4
27 -9z m458 -24 c2 -19 -2 -29 -15 -34 -10 -4 -23 -14 -30 -22 -10 -13 -12 -7
-13 37 0 52 1 53 28 50 21 -2 28 -9 30 -31z m75 16 c-4 -11 -8 -13 -11 -5 -2
7 -8 10 -13 6 -13 -8 -11 -42 4 -47 6 -3 1 -6 -13 -6 -22 -1 -25 3 -25 34 0
33 2 35 32 35 26 0 31 -3 26 -17z m57 -12 c0 -16 6 -32 13 -34 6 -3 -4 -5 -23
-5 -19 0 -29 2 -22 5 6 2 12 15 12 28 0 13 -6 26 -12 28 -7 3 -3 6 10 6 18 1
22 -4 22 -28z m98 -8 c2 -19 -1 -33 -7 -33 -6 0 -11 14 -11 30 0 17 -4 30 -10
30 -5 0 -10 -13 -10 -30 0 -16 -4 -30 -10 -30 -5 0 -10 16 -10 36 0 33 2 35
28 32 22 -2 28 -8 30 -35z m-3558 -12 c0 -16 -12 -41 -19 -41 -6 0 -7 32 -2
48 3 7 21 1 21 -7z m844 -24 c-3 -9 -10 -17 -15 -17 -11 0 -12 34 -2 44 11 11
24 -9 17 -27z m767 20 c-1 -4 -1 -14 -1 -22 0 -8 -4 -15 -10 -15 -5 0 -10 12
-10 26 0 14 5 24 11 22 6 -2 10 -7 10 -11z m617 -9 c-2 -12 -8 -23 -14 -25 -7
-2 -10 6 -7 22 6 30 26 34 21 3z m770 0 c-2 -12 -8 -23 -14 -25 -7 -2 -10 6
-7 22 6 30 26 34 21 3z m-4468 -378 c0 -17 5 -30 13 -31 10 0 10 -2 0 -6 -7
-2 -13 -18 -13 -34 0 -21 -5 -29 -17 -28 -11 0 -13 3 -5 6 7 3 12 25 12 58 0
33 -5 55 -12 58 -8 3 -6 6 5 6 12 1 17 -7 17 -29z"/>
<path d="M1204 2746 c-4 -10 -2 -22 4 -28 8 -8 13 -7 18 6 4 10 2 22 -4 28 -8
8 -13 7 -18 -6z"/>
<path d="M1130 2745 c0 -8 4 -15 10 -15 5 0 7 7 4 15 -4 8 -8 15 -10 15 -2 0
-4 -7 -4 -15z"/>
<path d="M360 2735 c0 -14 5 -25 10 -25 6 0 10 11 10 25 0 14 -4 25 -10 25 -5
0 -10 -11 -10 -25z"/>
<path d="M430 2720 c0 -5 5 -10 10 -10 6 0 10 5 10 10 0 6 -4 10 -10 10 -5 0
-10 -4 -10 -10z"/>
<path d="M740 2735 c0 -17 5 -25 13 -22 6 2 12 12 12 22 0 10 -6 20 -12 23 -8
2 -13 -6 -13 -23z"/>
<path d="M895 2720 c-3 -5 -2 -10 4 -10 5 0 13 5 16 10 3 6 2 10 -4 10 -5 0
-13 -4 -16 -10z"/>
<path d="M1050 2750 c0 -5 5 -10 10 -10 6 0 10 5 10 10 0 6 -4 10 -10 10 -5 0
-10 -4 -10 -10z"/>
<path d="M1280 2735 c0 -17 5 -25 13 -22 6 2 12 12 12 22 0 10 -6 20 -12 23
-8 2 -13 -6 -13 -23z"/>
<path d="M590 2540 c0 -13 5 -20 13 -17 6 2 12 10 12 17 0 7 -6 15 -12 18 -8
2 -13 -5 -13 -18z"/>
<path d="M4360 2520 c0 -5 5 -10 10 -10 6 0 10 5 10 10 0 6 -4 10 -10 10 -5 0
-10 -4 -10 -10z"/>
<path d="M5746 2525 c-3 -8 -1 -15 4 -15 6 0 10 7 10 15 0 8 -2 15 -4 15 -2 0
-6 -7 -10 -15z"/>
<path d="M820 2525 c0 -8 5 -15 10 -15 6 0 10 7 10 15 0 8 -4 15 -10 15 -5 0
-10 -7 -10 -15z"/>
<path d="M1360 2525 c0 -8 5 -15 10 -15 6 0 10 7 10 15 0 8 -4 15 -10 15 -5 0
-10 -7 -10 -15z"/>
<path d="M2360 2525 c0 -8 5 -15 10 -15 6 0 10 7 10 15 0 8 -4 15 -10 15 -5 0
-10 -7 -10 -15z"/>
<path d="M740 2515 c0 -17 5 -25 13 -22 6 2 12 12 12 22 0 10 -6 20 -12 23 -8
2 -13 -6 -13 -23z"/>
<path d="M970 2500 c0 -5 5 -10 10 -10 6 0 10 5 10 10 0 6 -4 10 -10 10 -5 0
-10 -4 -10 -10z"/>
<path d="M1820 2530 c0 -5 5 -10 10 -10 6 0 10 5 10 10 0 6 -4 10 -10 10 -5 0
-10 -4 -10 -10z"/>
<path d="M2124 2525 c-3 -8 -3 -19 1 -25 11 -18 25 -11 25 15 0 27 -17 34 -26
10z"/>
<path d="M2280 2515 c0 -17 5 -25 13 -22 6 2 12 12 12 22 0 10 -6 20 -12 23
-8 2 -13 -6 -13 -23z"/>
<path d="M2894 2525 c-3 -8 -3 -19 1 -25 11 -18 25 -11 25 15 0 27 -17 34 -26
10z"/>
<path d="M3130 2530 c0 -5 5 -10 10 -10 6 0 10 5 10 10 0 6 -4 10 -10 10 -5 0
-10 -4 -10 -10z"/>
<path d="M3665 2530 c-3 -5 1 -10 9 -10 9 0 16 5 16 10 0 6 -4 10 -9 10 -6 0
-13 -4 -16 -10z"/>
<path d="M3895 2530 c-3 -5 1 -10 9 -10 9 0 16 5 16 10 0 6 -4 10 -9 10 -6 0
-13 -4 -16 -10z"/>
<path d="M4665 2530 c-3 -5 1 -10 9 -10 9 0 16 5 16 10 0 6 -4 10 -9 10 -6 0
-13 -4 -16 -10z"/>
<path d="M5130 2499 c0 -5 5 -7 10 -4 6 3 10 8 10 11 0 2 -4 4 -10 4 -5 0 -10
-5 -10 -11z"/>
<path d="M5285 2530 c-3 -5 1 -10 10 -10 9 0 13 5 10 10 -3 6 -8 10 -10 10 -2
0 -7 -4 -10 -10z"/>
<path d="M6050 2500 c0 -5 5 -10 10 -10 6 0 10 5 10 10 0 6 -4 10 -10 10 -5 0
-10 -4 -10 -10z"/>
<path d="M1590 2075 c0 -8 5 -15 10 -15 6 0 10 7 10 15 0 8 -4 15 -10 15 -5 0
-10 -7 -10 -15z"/>
<path d="M665 2080 c-3 -5 1 -10 9 -10 9 0 16 5 16 10 0 6 -4 10 -9 10 -6 0
-13 -4 -16 -10z"/>
<path d="M1125 2080 c-3 -5 1 -10 9 -10 9 0 16 5 16 10 0 6 -4 10 -9 10 -6 0
-13 -4 -16 -10z"/>
<path d="M1200 2050 c0 -5 5 -10 10 -10 6 0 10 5 10 10 0 6 -4 10 -10 10 -5 0
-10 -4 -10 -10z"/>
<path d="M2894 1845 c-3 -8 -3 -19 1 -25 11 -18 25 -11 25 15 0 27 -17 34 -26
10z"/>
<path d="M3510 1865 c0 -8 7 -15 15 -15 8 0 15 7 15 15 0 8 -7 15 -15 15 -8 0
-15 -7 -15 -15z"/>
<path d="M665 1820 c-3 -5 -2 -10 4 -10 5 0 13 5 16 10 3 6 2 10 -4 10 -5 0
-13 -4 -16 -10z"/>
<path d="M820 1819 c0 -5 5 -7 10 -4 6 3 10 8 10 11 0 2 -4 4 -10 4 -5 0 -10
-5 -10 -11z"/>
<path d="M1207 1854 c-11 -11 -8 -44 3 -44 15 0 24 30 13 41 -5 5 -12 6 -16 3z"/>
<path d="M1820 1835 c0 -14 5 -25 10 -25 6 0 10 11 10 25 0 14 -4 25 -10 25
-5 0 -10 -11 -10 -25z"/>
<path d="M1895 1850 c-3 -5 1 -10 9 -10 9 0 16 5 16 10 0 6 -4 10 -9 10 -6 0
-13 -4 -16 -10z"/>
<path d="M2287 1854 c-11 -11 -8 -44 3 -44 15 0 24 30 13 41 -5 5 -12 6 -16 3z"/>
<path d="M2820 1835 c0 -17 5 -25 13 -22 6 2 12 12 12 22 0 10 -6 20 -12 23
-8 2 -13 -6 -13 -23z"/>
<path d="M2975 1850 c-3 -5 1 -10 10 -10 9 0 13 5 10 10 -3 6 -8 10 -10 10 -2
0 -7 -4 -10 -10z"/>
<path d="M3590 1850 c0 -5 5 -10 10 -10 6 0 10 5 10 10 0 6 -4 10 -10 10 -5 0
-10 -4 -10 -10z"/>
<path d="M3665 1820 c-3 -5 -2 -10 4 -10 5 0 13 5 16 10 3 6 2 10 -4 10 -5 0
-13 -4 -16 -10z"/>
<path d="M4820 1820 c0 -5 5 -10 10 -10 6 0 10 5 10 10 0 6 -4 10 -10 10 -5 0
-10 -4 -10 -10z"/>
<path d="M4970 1820 c0 -5 5 -10 10 -10 6 0 10 5 10 10 0 6 -4 10 -10 10 -5 0
-10 -4 -10 -10z"/>
<path d="M818 1398 c-6 -17 1 -38 13 -38 5 0 9 11 9 25 0 26 -14 34 -22 13z"/>
<path d="M896 1401 c-4 -5 -2 -12 3 -15 5 -4 12 -2 15 3 4 5 2 12 -3 15 -5 4
-12 2 -15 -3z"/>
<path d="M510 1385 c0 -17 5 -25 13 -22 6 2 12 12 12 22 0 10 -6 20 -12 23 -8
2 -13 -6 -13 -23z"/>
<path d="M740 1400 c0 -5 7 -10 16 -10 8 0 12 5 9 10 -3 6 -10 10 -16 10 -5 0
-9 -4 -9 -10z"/>
<path d="M975 1400 c-3 -5 1 -10 10 -10 9 0 13 5 10 10 -3 6 -8 10 -10 10 -2
0 -7 -4 -10 -10z"/>
<path d="M740 1190 c0 -13 5 -20 13 -17 6 2 12 10 12 17 0 7 -6 15 -12 18 -8
2 -13 -5 -13 -18z"/>
<path d="M1900 1195 c0 -8 5 -15 10 -15 6 0 10 7 10 15 0 8 -4 15 -10 15 -5 0
-10 -7 -10 -15z"/>
<path d="M1900 1155 c0 -8 5 -15 10 -15 6 0 10 7 10 15 0 8 -4 15 -10 15 -5 0
-10 -7 -10 -15z"/>
<path d="M2510 1195 c0 -8 7 -15 15 -15 8 0 15 7 15 15 0 8 -7 15 -15 15 -8 0
-15 -7 -15 -15z"/>
<path d="M3200 1174 c0 -45 24 -42 28 4 2 24 -1 32 -12 32 -12 0 -16 -10 -16
-36z"/>
<path d="M3750 1190 c0 -11 5 -20 10 -20 6 0 10 9 10 20 0 11 -4 20 -10 20 -5
0 -10 -9 -10 -20z"/>
<path d="M2666 1181 c-4 -5 -2 -12 3 -15 5 -4 12 -2 15 3 4 5 2 12 -3 15 -5 4
-12 2 -15 -3z"/>
<path d="M3510 1175 c0 -8 5 -15 10 -15 6 0 10 7 10 15 0 8 -4 15 -10 15 -5 0
-10 -7 -10 -15z"/>
<path d="M510 1150 c0 -5 5 -10 10 -10 6 0 10 5 10 10 0 6 -4 10 -10 10 -5 0
-10 -4 -10 -10z"/>
<path d="M820 1149 c0 -5 5 -7 10 -4 6 3 10 8 10 11 0 2 -4 4 -10 4 -5 0 -10
-5 -10 -11z"/>
<path d="M1970 1150 c0 -5 5 -10 10 -10 6 0 10 5 10 10 0 6 -4 10 -10 10 -5 0
-10 -4 -10 -10z"/>
<path d="M2590 1180 c0 -5 5 -10 10 -10 6 0 10 5 10 10 0 6 -4 10 -10 10 -5 0
-10 -4 -10 -10z"/>
<path d="M2745 1180 c-3 -5 1 -10 10 -10 9 0 13 5 10 10 -3 6 -8 10 -10 10 -2
0 -7 -4 -10 -10z"/>
<path d="M3280 1180 c0 -5 7 -10 16 -10 8 0 12 5 9 10 -3 6 -10 10 -16 10 -5
0 -9 -4 -9 -10z"/>
<path d="M3820 1150 c0 -5 5 -10 10 -10 6 0 10 5 10 10 0 6 -4 10 -10 10 -5 0
-10 -4 -10 -10z"/>
<path d="M4050 1180 c0 -5 7 -10 16 -10 8 0 12 5 9 10 -3 6 -10 10 -16 10 -5
0 -9 -4 -9 -10z"/>
<path d="M664 945 c-7 -17 4 -37 17 -30 12 8 12 45 -1 45 -6 0 -13 -7 -16 -15z"/>
<path d="M3900 944 c0 -8 5 -12 10 -9 6 3 10 10 10 16 0 5 -4 9 -10 9 -5 0
-10 -7 -10 -16z"/>
<path d="M590 935 c0 -14 5 -25 10 -25 6 0 10 11 10 25 0 14 -4 25 -10 25 -5
0 -10 -11 -10 -25z"/>
<path d="M740 950 c0 -5 7 -10 16 -10 8 0 12 5 9 10 -3 6 -10 10 -16 10 -5 0
-9 -4 -9 -10z"/>
<path d="M1200 920 c0 -5 5 -10 10 -10 6 0 10 5 10 10 0 6 -4 10 -10 10 -5 0
-10 -4 -10 -10z"/>
<path d="M1360 919 c0 -5 5 -7 10 -4 6 3 10 8 10 11 0 2 -4 4 -10 4 -5 0 -10
-5 -10 -11z"/>
<path d="M1747 954 c-11 -11 -8 -44 3 -44 15 0 24 30 13 41 -5 5 -12 6 -16 3z"/>
<path d="M2280 920 c0 -5 5 -10 10 -10 6 0 10 5 10 10 0 6 -4 10 -10 10 -5 0
-10 -4 -10 -10z"/>
<path d="M2435 920 c-3 -5 -2 -10 4 -10 5 0 13 5 16 10 3 6 2 10 -4 10 -5 0
-13 -4 -16 -10z"/>
<path d="M2827 954 c-11 -11 -8 -44 3 -44 15 0 24 30 13 41 -5 5 -12 6 -16 3z"/>
<path d="M3280 920 c0 -5 5 -10 10 -10 6 0 10 5 10 10 0 6 -4 10 -10 10 -5 0
-10 -4 -10 -10z"/>
<path d="M3435 920 c-3 -5 -2 -10 4 -10 5 0 13 5 16 10 3 6 2 10 -4 10 -5 0
-13 -4 -16 -10z"/>
<path d="M2894 725 c-3 -8 -3 -19 1 -25 11 -18 25 -11 25 15 0 27 -17 34 -26
10z"/>
<path d="M1200 745 c0 -8 7 -15 15 -15 8 0 15 7 15 15 0 8 -7 15 -15 15 -8 0
-15 -7 -15 -15z"/>
<path d="M1900 725 c0 -8 4 -15 10 -15 5 0 7 7 4 15 -4 8 -8 15 -10 15 -2 0
-4 -7 -4 -15z"/>
<path d="M4130 725 c0 -19 4 -35 9 -35 13 0 23 34 15 54 -11 28 -24 18 -24
-19z"/>
<path d="M2050 725 c0 -8 5 -15 10 -15 6 0 10 7 10 15 0 8 -4 15 -10 15 -5 0
-10 -7 -10 -15z"/>
<path d="M5280 725 c0 -8 5 -15 10 -15 6 0 10 7 10 15 0 8 -4 15 -10 15 -5 0
-10 -7 -10 -15z"/>
<path d="M590 715 c0 -14 5 -25 10 -25 6 0 10 11 10 25 0 14 -4 25 -10 25 -5
0 -10 -11 -10 -25z"/>
<path d="M664 725 c-3 -8 -3 -19 1 -25 11 -18 25 -11 25 15 0 27 -17 34 -26
10z"/>
<path d="M1280 730 c0 -5 7 -10 16 -10 8 0 12 5 9 10 -3 6 -10 10 -16 10 -5 0
-9 -4 -9 -10z"/>
<path d="M1360 699 c0 -5 5 -7 10 -4 6 3 10 8 10 11 0 2 -4 4 -10 4 -5 0 -10
-5 -10 -11z"/>
<path d="M2280 700 c0 -5 5 -10 10 -10 6 0 10 5 10 10 0 6 -4 10 -10 10 -5 0
-10 -4 -10 -10z"/>
<path d="M2820 715 c0 -17 5 -25 13 -22 6 2 12 12 12 22 0 10 -6 20 -12 23 -8
2 -13 -6 -13 -23z"/>
<path d="M2975 730 c-3 -5 1 -10 10 -10 9 0 13 5 10 10 -3 6 -8 10 -10 10 -2
0 -7 -4 -10 -10z"/>
<path d="M3590 730 c0 -5 7 -10 16 -10 8 0 12 5 9 10 -3 6 -10 10 -16 10 -5 0
-9 -4 -9 -10z"/>
<path d="M4204 725 c-3 -8 -3 -19 1 -25 11 -18 25 -11 25 15 0 27 -17 34 -26
10z"/>
<path d="M4435 730 c-3 -5 1 -10 9 -10 9 0 16 5 16 10 0 6 -4 10 -9 10 -6 0
-13 -4 -16 -10z"/>
<path d="M4980 715 c0 -14 5 -25 10 -25 6 0 10 11 10 25 0 14 -4 25 -10 25 -5
0 -10 -11 -10 -25z"/>
</g>
</svg>
