<?xml version="1.0" encoding="utf-8"?>
<!-- Generator: Adobe Illustrator 22.1.0, SVG Export Plug-In . SVG Version: 6.00 Build 0)  -->
<svg version="1.1" xmlns="http://www.w3.org/2000/svg" xmlns:xlink="http://www.w3.org/1999/xlink" x="0px" y="0px"
	 viewBox="0 0 750 500" style="enable-background:new 0 0 750 500;" xml:space="preserve">
<style type="text/css">
	.st0{fill:#7524EA;}
	.st1{fill:#455A64;}
	.st2{fill:#263238;}
	.st3{fill:#EBEBEB;}
	.st4{fill:#F5F5F5;}
	.st5{fill:#E0E0E0;}
	.st6{fill:#E8505B;}
	.st7{fill:none;}
	.st8{fill:#343E40;}
	.st9{fill:#687D80;}
	.st10{opacity:0.3;}
	.st11{fill:#FFBE9D;}
	.st12{fill:#EB996E;}
	.st13{fill:#3F4545;}
	.st14{fill:#8C8F8F;}
	.st15{fill:#C0C0C0;}
	.st16{fill:#FBFAFC;}
	.st17{fill:#728645;}
	.st18{fill:#FFFFFF;}
	.st19{fill:#B2724E;}
	.st20{fill:#86563B;}
</style>
<g id="Background_Simple">
	<path class="st0" d="M703.6,114.2l-3.6-6C672,62,617.5,32.1,557.4,31.4c-8.2-0.1-16.4,0.3-24.6,1.3
		c-55.7,6.8-106.3,39.6-129.7,84.1c-13.7,26.1-19.4,56.8-43.2,76.8c-30.9,26-79.9,24-122.7,20.3c-42.9-3.7-91.8-5.6-122.6,20.5
		c-19.3,16.4-41.8,60.2-42.2,83.6c-1,62,48.3,121.9,114.7,144.6c69.8,23.8,151.2,27.7,222.1,19.8c99.2-11.1,188-54.3,249.6-122.8
		S742.3,194.3,703.6,114.2z"/>
</g>
<g id="Chair">
	<g>
		<g>
			<g>
				<path class="st1" d="M421,295c1.5-9.4,9.6-16.3,19.1-16.4c41.2-0.5,146.2-1.5,151.8,3c7,5.6,10.7,8.4,10.1,17.3
					c-0.5,8.1-9.4,148.4-9.4,148.4H396.2L421,295z"/>
			</g>
			<g>
				<g>
					<path class="st2" d="M570.3,447.2c0,0,0-0.1-0.1-0.4c0-0.3-0.1-0.7-0.1-1.2c-0.1-1.1-0.2-2.7-0.3-4.7c-0.2-2-0.3-4.5-0.4-7.4
						c-0.1-2.9-0.3-6.2-0.3-9.8c0-1.8,0-3.7-0.1-5.7c0-2,0-4.1,0.1-6.2c0-4.3,0.3-8.9,0.5-13.7c0.5-9.6,1.5-20.2,2.9-31.2
						c1.5-11,3.5-21.4,5.5-30.9c1.1-4.7,2.1-9.2,3.2-13.3c0.5-2.1,1-4.1,1.6-6c0.6-1.9,1.1-3.7,1.6-5.5c1-3.5,2-6.6,2.9-9.4
						c0.9-2.8,1.7-5.1,2.4-7c0.7-1.9,1.2-3.4,1.6-4.4c0.2-0.5,0.3-0.9,0.4-1.1c0.1-0.3,0.2-0.4,0.2-0.4c0,0,0,0.1-0.1,0.4
						c-0.1,0.3-0.2,0.7-0.4,1.2c-0.3,1.1-0.8,2.5-1.5,4.5c-0.7,1.9-1.4,4.3-2.3,7.1c-0.8,2.8-1.9,5.9-2.8,9.4
						c-0.5,1.8-1,3.6-1.5,5.5c-0.5,1.9-1,3.9-1.5,6c-1.1,4.1-2.1,8.6-3.2,13.3c-2,9.4-3.9,19.8-5.5,30.8c-1.5,11-2.4,21.5-3,31.1
						c-0.2,4.8-0.5,9.4-0.5,13.6c0,2.1-0.1,4.2-0.1,6.2c0,2,0,3.9,0,5.7c0,3.6,0.1,6.9,0.2,9.8c0.1,2.9,0.2,5.4,0.3,7.4
						c0.1,2,0.2,3.6,0.2,4.7c0,0.5,0,0.9,0,1.2C570.3,447.1,570.3,447.2,570.3,447.2z"/>
				</g>
			</g>
		</g>
		<g>
			<g>
				<path class="st2" d="M459.8,349.1c0,0,0.1-0.1,0.3-0.1c0.2,0,0.5-0.1,0.9-0.1c0.8,0.1,2,0.5,2.9,1.7c0.9,1.2,1.2,3.2,0.3,4.9
					c-0.4,0.9-1.1,1.7-1.9,2.3c-0.9,0.6-1.9,1-3,1.1c-1.1,0.1-2.2-0.2-3.1-0.8c-0.9-0.6-1.5-1.6-1.6-2.6c-0.3-2,0.5-3.7,1.5-4.7
					c2.2-1.9,4.2-1.9,4.1-1.8C460,349.1,459.9,349.1,459.8,349.1c-0.2,0-0.5,0.1-0.9,0.3c-0.7,0.3-1.7,0.8-2.7,1.7
					c-0.9,0.9-1.6,2.6-1.3,4.3c0.2,0.8,0.6,1.7,1.4,2.2c0.8,0.5,1.8,0.8,2.7,0.7c1-0.1,2-0.4,2.7-0.9c0.8-0.5,1.4-1.3,1.8-2.1
					c0.8-1.6,0.7-3.3-0.1-4.4c-0.8-1.1-1.8-1.6-2.6-1.7C460.2,349.1,459.8,349.2,459.8,349.1z"/>
			</g>
			<g>
				<path class="st2" d="M490.6,331.3c0,0.1-2-0.2-5.3,0.1c-3.2,0.3-7.7,1.4-11.8,4.3c-4.1,2.9-6.7,6.7-8.1,9.6
					c-1.4,2.9-1.7,5-1.9,4.9c0,0,0-0.5,0.2-1.4c0.2-0.9,0.6-2.2,1.2-3.7c1.3-3,3.9-7,8.1-9.9c4.2-2.9,8.8-4,12.1-4.2
					c1.7-0.1,3,0,3.9,0.1C490.1,331.2,490.6,331.3,490.6,331.3z"/>
			</g>
			<g>
				<path class="st2" d="M433.6,367.8c0,0,0.1-0.4,0.5-1c0.3-0.6,0.9-1.5,1.7-2.5c1.6-2,4.4-4.3,8.2-5.6c3.8-1.3,7.4-1.1,9.9-0.6
					c1.3,0.3,2.2,0.6,2.9,0.9c0.7,0.3,1,0.5,1,0.5c0,0.1-1.5-0.6-4-1c-2.5-0.4-6-0.5-9.6,0.7c-3.6,1.2-6.4,3.5-8.1,5.3
					C434.4,366.5,433.7,367.9,433.6,367.8z"/>
			</g>
			<g>
				<path class="st2" d="M471.6,372.7c0,0.1-0.9-0.4-2-1.5c-1.2-1-2.6-2.6-3.9-4.6c-1.3-2-2.1-4-2.5-5.5c-0.4-1.5-0.6-2.4-0.5-2.4
					c0.2-0.1,1,3.7,3.6,7.6C468.7,370.2,471.8,372.5,471.6,372.7z"/>
			</g>
		</g>
		<g>
			<g>
				<path class="st2" d="M526.1,350.8c0,0,0.1-0.1,0.3-0.1c0.2,0,0.5-0.1,0.9-0.1c0.8,0.1,2,0.5,2.9,1.7c0.9,1.2,1.2,3.2,0.3,4.9
					c-0.4,0.9-1.1,1.7-1.9,2.3c-0.9,0.6-1.9,1-3,1.1c-1.1,0.1-2.2-0.2-3.1-0.8c-0.9-0.6-1.5-1.6-1.6-2.6c-0.3-2,0.5-3.7,1.5-4.7
					c2.2-1.9,4.2-1.9,4.1-1.8C526.4,350.8,526.3,350.8,526.1,350.8c-0.2,0-0.5,0.1-0.9,0.3c-0.7,0.3-1.7,0.8-2.7,1.7
					c-0.9,0.9-1.6,2.6-1.3,4.3c0.2,0.8,0.6,1.7,1.4,2.2c0.8,0.5,1.8,0.8,2.7,0.7c1-0.1,2-0.4,2.7-0.9c0.8-0.5,1.4-1.3,1.8-2.1
					c0.8-1.6,0.7-3.3-0.1-4.4c-0.8-1.1-1.8-1.6-2.6-1.7C526.6,350.7,526.1,350.9,526.1,350.8z"/>
			</g>
			<g>
				<path class="st2" d="M556.9,333c0,0.1-2-0.2-5.3,0.1c-3.2,0.3-7.7,1.4-11.8,4.3c-4.1,2.9-6.7,6.7-8.1,9.6
					c-1.4,2.9-1.7,5-1.9,4.9c0,0,0-0.5,0.2-1.4c0.2-0.9,0.6-2.2,1.2-3.7c1.3-3,3.9-7,8.1-9.9c4.2-2.9,8.8-4,12.1-4.2
					c1.7-0.1,3,0,3.9,0.1C556.5,332.8,556.9,332.9,556.9,333z"/>
			</g>
			<g>
				<path class="st2" d="M500,369.5c0,0,0.1-0.4,0.5-1c0.3-0.6,0.9-1.5,1.7-2.5c1.6-2,4.4-4.3,8.2-5.6c3.8-1.3,7.4-1.1,9.9-0.6
					c1.3,0.3,2.2,0.6,2.9,0.9c0.7,0.3,1,0.5,1,0.5c0,0.1-1.5-0.6-4-1c-2.5-0.4-6-0.5-9.6,0.7c-3.6,1.2-6.4,3.5-8.1,5.3
					C500.8,368.1,500.1,369.5,500,369.5z"/>
			</g>
			<g>
				<path class="st2" d="M538,374.4c0,0.1-0.9-0.4-2-1.5c-1.2-1-2.6-2.6-3.9-4.6c-1.3-2-2.1-4-2.5-5.5c-0.4-1.5-0.6-2.4-0.5-2.4
					c0.2-0.1,1,3.7,3.6,7.6C535.1,371.9,538.1,374.2,538,374.4z"/>
			</g>
		</g>
	</g>
</g>
<g id="Notes">
	<g>
		<g>
			<path class="st3" d="M599.8,187.8l0.1,2.7c0.4-0.4,0.9-0.6,1.5-0.6c1.3-0.1,2.4,0.9,2.4,2.2c0.1,1.3-0.9,2.4-2.2,2.5
				c-0.6,0-1.1-0.2-1.5-0.5l0.1,2.7c0.4-0.4,0.9-0.6,1.5-0.6c1.3-0.1,2.4,0.9,2.4,2.2c0.1,1.3-0.9,2.4-2.2,2.5
				c-0.6,0-1.1-0.2-1.5-0.5l0.1,2.7c0.4-0.4,0.9-0.6,1.5-0.6c1.3-0.1,2.4,0.9,2.4,2.2c0.1,1.3-0.9,2.4-2.2,2.5
				c-0.6,0-1.1-0.2-1.5-0.5l0.1,2.7c0.4-0.4,0.9-0.6,1.5-0.6c1.3-0.1,2.4,0.9,2.4,2.2c0.1,1.3-0.9,2.4-2.2,2.5
				c-0.6,0-1.1-0.2-1.5-0.5l0.1,2.7c0.4-0.4,0.9-0.6,1.5-0.6c1.3-0.1,2.4,0.9,2.4,2.2c0.1,1.3-0.9,2.4-2.2,2.5
				c-0.6,0-1.1-0.2-1.5-0.5l0.1,2.7c0.4-0.4,0.9-0.6,1.5-0.6c1.3-0.1,2.4,0.9,2.4,2.2c0.1,1.3-0.9,2.4-2.2,2.5
				c-0.6,0-1.1-0.2-1.5-0.5l0.1,1.7l72.1-1.7l-3.7-42L599.8,187.8z"/>
		</g>
		<g>
			<g>
				<g>
					<path class="st4" d="M598.2,186l0.1,2.7c0.4-0.4,0.9-0.6,1.5-0.6c1.3-0.1,2.4,0.9,2.4,2.2c0.1,1.3-0.9,2.4-2.2,2.5
						c-0.6,0-1.1-0.2-1.5-0.5l0.1,2.7c0.4-0.4,0.9-0.6,1.5-0.6c1.3-0.1,2.4,0.9,2.4,2.2c0.1,1.3-0.9,2.4-2.2,2.5
						c-0.6,0-1.1-0.2-1.5-0.5l0.1,2.7c0.4-0.4,0.9-0.6,1.5-0.6c1.3-0.1,2.4,0.9,2.4,2.2c0.1,1.3-0.9,2.4-2.2,2.5
						c-0.6,0-1.1-0.2-1.5-0.5l0.1,2.7c0.4-0.4,0.9-0.6,1.5-0.6c1.3-0.1,2.4,0.9,2.4,2.2c0.1,1.3-0.9,2.4-2.2,2.5
						c-0.6,0-1.1-0.2-1.5-0.5l0.1,2.7c0.4-0.4,0.9-0.6,1.5-0.6c1.3-0.1,2.4,0.9,2.4,2.2c0.1,1.3-0.9,2.4-2.2,2.5
						c-0.6,0-1.1-0.2-1.5-0.5l0.1,2.7c0.4-0.4,0.9-0.6,1.5-0.6c1.3-0.1,2.4,0.9,2.4,2.2c0.1,1.3-0.9,2.4-2.2,2.5
						c-0.6,0-1.1-0.2-1.5-0.5l0.1,1.7l72.1-3.9l-2.1-39.2L598.2,186z"/>
				</g>
				<g>
					<g>
						<path class="st5" d="M670.7,189.9c0,0.1-16.1,1.1-36,2.2c-19.9,1.1-36,1.8-36.1,1.7c0-0.1,16.1-1.1,36-2.2
							C654.5,190.5,670.6,189.8,670.7,189.9z"/>
					</g>
				</g>
				<g>
					<g>
						<path class="st5" d="M671,196.2c0,0.1-16.1,1.1-36,2.2c-19.9,1.1-36,1.8-36.1,1.7c0-0.1,16.1-1.1,36-2.2
							C654.8,196.8,671,196.1,671,196.2z"/>
					</g>
				</g>
				<g>
					<g>
						<path class="st5" d="M671.3,202.5c0,0.1-16.1,1.1-36,2.2c-19.9,1.1-36,1.8-36.1,1.7c0-0.1,16.1-1.1,36-2.2
							C655.2,203.1,671.3,202.3,671.3,202.5z"/>
					</g>
				</g>
				<g>
					<g>
						<path class="st5" d="M671.7,208.8c0,0.1-16.1,1.1-36,2.2c-19.9,1.1-36,1.8-36.1,1.7c0-0.1,16.1-1.1,36-2.2
							C655.5,209.4,671.7,208.6,671.7,208.8z"/>
					</g>
				</g>
				<g>
					<g>
						<path class="st5" d="M672,215c0,0.1-16.1,1.1-36,2.2c-19.9,1.1-36,1.8-36.1,1.7c0-0.1,16.1-1.1,36-2.2
							C655.8,215.6,672,214.9,672,215z"/>
					</g>
				</g>
				<g>
					
						<rect x="609" y="185.5" transform="matrix(0.9986 -5.343448e-02 5.343448e-02 0.9986 -10.0892 32.847)" class="st6" width="0.5" height="39.3"/>
				</g>
				<g>
					<g>
						<path class="st5" d="M616.8,224.4c-0.1,0-0.7-8.8-1.3-19.6c-0.6-10.8-0.9-19.6-0.8-19.6s0.7,8.8,1.3,19.6
							C616.6,215.6,617,224.4,616.8,224.4z"/>
					</g>
				</g>
				<g>
					<g>
						<path class="st5" d="M604,225.1c-0.1,0-0.7-8.8-1.3-19.6c-0.6-10.8-0.9-19.6-0.8-19.6c0.1,0,0.7,8.8,1.3,19.6
							C603.8,216.3,604.1,225,604,225.1z"/>
					</g>
				</g>
				<g>
					<g>
						<path class="st5" d="M623.8,224c-0.1,0-0.7-8.8-1.3-19.6c-0.6-10.8-0.9-19.6-0.8-19.6c0.1,0,0.7,8.8,1.3,19.6
							C623.6,215.2,624,224,623.8,224z"/>
					</g>
				</g>
				<g>
					<g>
						<path class="st5" d="M630.9,223.6c-0.1,0-0.7-8.8-1.3-19.6c-0.6-10.8-0.9-19.6-0.8-19.6c0.1,0,0.7,8.8,1.3,19.6
							C630.7,214.8,631,223.6,630.9,223.6z"/>
					</g>
				</g>
				<g>
					<g>
						<path class="st5" d="M637.9,223.2c-0.1,0-0.7-8.8-1.3-19.6c-0.6-10.8-0.9-19.6-0.8-19.6c0.1,0,0.7,8.8,1.3,19.6
							C637.7,214.4,638,223.2,637.9,223.2z"/>
					</g>
				</g>
				<g>
					<g>
						<path class="st5" d="M644.9,222.9c-0.1,0-0.7-8.8-1.3-19.6c-0.6-10.8-0.9-19.6-0.8-19.6c0.1,0,0.7,8.8,1.3,19.6
							C644.7,214.1,645.1,222.9,644.9,222.9z"/>
					</g>
				</g>
				<g>
					<g>
						<path class="st5" d="M651.9,222.5c-0.1,0-0.7-8.8-1.3-19.6c-0.6-10.8-0.9-19.6-0.8-19.6c0.1,0,0.7,8.8,1.3,19.6
							C651.7,213.7,652.1,222.5,651.9,222.5z"/>
					</g>
				</g>
				<g>
					<g>
						<path class="st5" d="M659,222.1c-0.1,0-0.7-8.8-1.3-19.6c-0.6-10.8-0.9-19.6-0.8-19.6c0.1,0,0.7,8.8,1.3,19.6
							C658.8,213.3,659.1,222.1,659,222.1z"/>
					</g>
				</g>
				<g>
					<g>
						<path class="st5" d="M666,221.7c-0.1,0-0.7-8.8-1.3-19.6c-0.6-10.8-0.9-19.6-0.8-19.6c0.1,0,0.7,8.8,1.3,19.6
							C665.8,212.9,666.1,221.7,666,221.7z"/>
					</g>
				</g>
			</g>
			<g>
				<g>
					<path class="st2" d="M665.1,198c0,0-0.2,0-0.5,0.1c-0.4,0-0.9,0.1-1.5,0.1c-1.4,0.1-3.2,0.2-5.4,0.4c-4.6,0.3-10.9,0.6-17.9,1
						c-7,0.3-13.3,0.6-17.9,0.8c-4.6,0.1-7.4,0.2-7.4,0c2.7-0.1,12-0.6,25.3-1.3c7-0.3,13.2-0.6,17.9-0.8c2.2-0.1,4.1-0.2,5.4-0.2
						c0.6,0,1.1,0,1.5,0C664.9,198,665.1,198,665.1,198z"/>
				</g>
			</g>
			<g>
				<g>
					<path class="st2" d="M666.6,205.1c0,0.1-11.6,0.8-26,1.5c-14.4,0.7-26,1.1-26,0.9c0-0.1,11.6-0.8,26-1.5
						C654.9,205.4,666.6,205,666.6,205.1z"/>
				</g>
			</g>
			<g>
				<g>
					<path class="st2" d="M667.4,211.4c0,0.1-11.6,0.8-26,1.5c-14.4,0.7-26,1.1-26,0.9c0-0.1,11.6-0.8,26-1.5
						C655.7,211.7,667.3,211.3,667.4,211.4z"/>
				</g>
			</g>
			<g>
				<path class="st5" d="M606.2,190.1c0.3,1.6,1,3.1,2.3,4c1.5,1,3.7,0.9,5-0.3c1.4-1.2,1.8-3.3,1-4.9c-0.8-1.6-2.8-2.6-4.5-2.2"/>
			</g>
			<g>
				<g>
					<path class="st1" d="M606.1,190.1c0.1,1.8,1.6,3.2,3.4,3.1c1.8-0.1,3.2-1.6,3.1-3.4c-0.1-1.8-1.6-3.2-3.4-3.1
						S606,188.3,606.1,190.1z"/>
				</g>
				<g>
					<path class="st1" d="M604.2,188.9c0.1,1.1,1,1.9,2.1,1.9c1.1-0.1,1.9-1,1.9-2.1c-0.1-1.1-1-1.9-2.1-1.9
						C604.9,186.9,604.1,187.8,604.2,188.9z"/>
				</g>
				<g>
					<g>
						<path class="st2" d="M606,190.7c0-0.1,0.3-0.1,0.7-0.2c0.4-0.1,0.9-0.5,1.1-1.1c0.2-0.6,0-1.2-0.2-1.6
							c-0.2-0.4-0.4-0.6-0.4-0.6c0-0.1,0.4,0,0.7,0.4c0.3,0.4,0.6,1.1,0.3,1.9c-0.3,0.8-1,1.2-1.5,1.3
							C606.3,191,606,190.8,606,190.7z"/>
					</g>
				</g>
				<g>
					<g>
						<path class="st2" d="M607.7,187.6c0.1-0.1,0.6,0,1.1-0.1c0.6-0.1,0.9-0.5,1.1-0.4c0.1,0.1-0.2,0.7-0.9,0.9
							C608.1,188.2,607.6,187.7,607.7,187.6z"/>
					</g>
				</g>
				<g>
					<g>
						<path class="st2" d="M608.2,192.6c-0.1,0-0.3-0.6-0.8-1.1c-0.5-0.5-1.1-0.6-1.1-0.7c0-0.1,0.8-0.3,1.5,0.4
							C608.4,191.8,608.3,192.6,608.2,192.6z"/>
					</g>
				</g>
			</g>
			<g>
				<path class="st5" d="M661.6,187.8c0.3,1.6,1,3.1,2.3,4c1.5,1,3.7,0.9,5-0.3c1.4-1.2,1.8-3.3,1-4.9c-0.8-1.6-2.8-2.6-4.5-2.2"/>
			</g>
			<g>
				<g>
					<path class="st6" d="M668,186.9c0.1,1.7-1.2,3.2-3,3.3c-1.7,0.1-3.2-1.2-3.3-3c-0.1-1.7,1.2-3.2,3-3.3
						C666.4,183.8,667.9,185.2,668,186.9z"/>
				</g>
				<g>
					<path class="st6" d="M669.7,185.6c0.1,1-0.7,1.9-1.8,2c-1,0.1-1.9-0.7-2-1.8c-0.1-1,0.7-1.9,1.8-2
						C668.7,183.7,669.6,184.5,669.7,185.6z"/>
				</g>
				<g>
					<g>
						<path class="st2" d="M668.1,187.5c0,0.1-0.2,0.3-0.8,0.2c-0.5,0-1.2-0.3-1.6-1.1c-0.3-0.7-0.2-1.5,0.1-1.9
							c0.3-0.4,0.6-0.5,0.6-0.5c0,0.1-0.2,0.3-0.3,0.7c-0.2,0.4-0.2,1,0,1.5c0.3,0.5,0.8,0.8,1.2,0.9
							C667.8,187.5,668.1,187.4,668.1,187.5z"/>
					</g>
				</g>
				<g>
					<g>
						<path class="st2" d="M666.2,184.7c0.1,0.1-0.4,0.6-1.1,0.5c-0.8-0.1-1.1-0.7-1-0.8c0.1-0.1,0.5,0.2,1.1,0.3
							C665.6,184.7,666.1,184.6,666.2,184.7z"/>
					</g>
				</g>
				<g>
					<g>
						<path class="st2" d="M666.2,189.5c-0.1,0-0.3-0.7,0.3-1.5c0.6-0.7,1.4-0.6,1.4-0.5c0,0.1-0.6,0.3-1,0.8
							C666.4,188.9,666.3,189.5,666.2,189.5z"/>
					</g>
				</g>
			</g>
		</g>
	</g>
	<g>
		<g>
			<path class="st5" d="M169.9,233.6c0.2,0.4,0.4,0.8,0.4,1.3c0,1.4-1.1,2.5-2.5,2.5c-1.4,0-2.5-1.1-2.5-2.5c0-0.5,0.1-0.9,0.4-1.3
				h-3c0.2,0.4,0.4,0.8,0.4,1.3c0,1.4-1.1,2.5-2.5,2.5s-2.5-1.1-2.5-2.5c0-0.5,0.1-0.9,0.4-1.3h-3c0.2,0.4,0.4,0.8,0.4,1.3
				c0,1.4-1.1,2.5-2.5,2.5c-1.4,0-2.5-1.1-2.5-2.5c0-0.5,0.1-0.9,0.4-1.3h-3c0.2,0.4,0.4,0.8,0.4,1.3c0,1.4-1.1,2.5-2.5,2.5
				c-1.4,0-2.5-1.1-2.5-2.5c0-0.5,0.1-0.9,0.4-1.3h-3c0.2,0.4,0.4,0.8,0.4,1.3c0,1.4-1.1,2.5-2.5,2.5c-1.4,0-2.5-1.1-2.5-2.5
				c0-0.5,0.1-0.9,0.4-1.3h-3c0.2,0.4,0.4,0.8,0.4,1.3c0,1.4-1.1,2.5-2.5,2.5s-2.5-1.1-2.5-2.5c0-0.5,0.1-0.9,0.4-1.3H127v52.6
				l46,2.5l-2.2-55.1H169.9z"/>
		</g>
		<g>
			<g>
				<path class="st4" d="M169.2,232.2c0.2,0.4,0.4,0.8,0.4,1.3c0,1.4-1.1,2.5-2.5,2.5s-2.5-1.1-2.5-2.5c0-0.5,0.1-0.9,0.4-1.3h-3
					c0.2,0.4,0.4,0.8,0.4,1.3c0,1.4-1.1,2.5-2.5,2.5c-1.4,0-2.5-1.1-2.5-2.5c0-0.5,0.1-0.9,0.4-1.3h-3c0.2,0.4,0.4,0.8,0.4,1.3
					c0,1.4-1.1,2.5-2.5,2.5c-1.4,0-2.5-1.1-2.5-2.5c0-0.5,0.1-0.9,0.4-1.3h-3c0.2,0.4,0.4,0.8,0.4,1.3c0,1.4-1.1,2.5-2.5,2.5
					c-1.4,0-2.5-1.1-2.5-2.5c0-0.5,0.1-0.9,0.4-1.3h-3c0.2,0.4,0.4,0.8,0.4,1.3c0,1.4-1.1,2.5-2.5,2.5s-2.5-1.1-2.5-2.5
					c0-0.5,0.1-0.9,0.4-1.3h-3c0.2,0.4,0.4,0.8,0.4,1.3c0,1.4-1.1,2.5-2.5,2.5c-1.4,0-2.5-1.1-2.5-2.5c0-0.5,0.1-0.9,0.4-1.3h-1.8
					v52.6h43.8v-52.6H169.2z"/>
			</g>
			<g>
				<g>
					<path class="st5" d="M123.7,287.2c-0.1,0-0.4-12.8-0.6-28.5c-0.2-15.7-0.2-28.5,0-28.5c0.1,0,0.4,12.7,0.6,28.5
						C123.8,274.5,123.8,287.2,123.7,287.2z"/>
				</g>
			</g>
			<g>
				<g>
					<path class="st5" d="M130.7,287.2c-0.1,0-0.4-12.8-0.6-28.5c-0.2-15.7-0.2-28.5,0-28.5c0.1,0,0.4,12.7,0.6,28.5
						C130.8,274.4,130.8,287.2,130.7,287.2z"/>
				</g>
			</g>
			<g>
				<g>
					<path class="st5" d="M134.2,287.2c-0.1,0-0.4-12.8-0.6-28.5c-0.2-15.7-0.2-28.5,0-28.5c0.1,0,0.4,12.7,0.6,28.5
						C134.3,274.4,134.3,287.2,134.2,287.2z"/>
				</g>
			</g>
			<g>
				<g>
					<path class="st5" d="M141.3,287.2c-0.1,0-0.4-12.8-0.6-28.5c-0.2-15.7-0.2-28.5,0-28.5c0.1,0,0.4,12.7,0.6,28.5
						C141.4,274.4,141.4,287.2,141.3,287.2z"/>
				</g>
			</g>
			<g>
				<g>
					<path class="st5" d="M148.4,287.2c-0.1,0-0.4-12.8-0.6-28.5c-0.2-15.7-0.2-28.5,0-28.5c0.1,0,0.4,12.7,0.6,28.5
						C148.5,274.4,148.6,287.2,148.4,287.2z"/>
				</g>
			</g>
			<g>
				<g>
					<path class="st5" d="M155.5,287.2c-0.1,0-0.4-12.8-0.6-28.5c-0.2-15.7-0.2-28.5,0-28.5c0.1,0,0.4,12.7,0.6,28.5
						C155.7,274.4,155.7,287.2,155.5,287.2z"/>
				</g>
			</g>
			<g>
				<g>
					<path class="st5" d="M162.3,287.2c-0.1,0-0.4-12.8-0.6-28.5c-0.2-15.7-0.2-28.5,0-28.5c0.1,0,0.4,12.7,0.6,28.5
						C162.4,274.4,162.4,287.2,162.3,287.2z"/>
				</g>
			</g>
			<g>
				<g>
					<path class="st5" d="M169,287.2c-0.1,0-0.4-12.8-0.6-28.5c-0.2-15.7-0.2-28.5,0-28.5c0.1,0,0.4,12.7,0.6,28.5
						C169.2,274.4,169.2,287.2,169,287.2z"/>
				</g>
			</g>
			<g>
				<g>
					<path class="st5" d="M137.7,287.1c-0.1,0-0.4-12.8-0.6-28.5c-0.2-15.7-0.2-28.5,0-28.5c0.1,0,0.4,12.7,0.6,28.5
						C137.9,274.3,137.9,287.1,137.7,287.1z"/>
				</g>
			</g>
			<g>
				<g>
					<path class="st5" d="M144.8,287c-0.1,0-0.4-12.8-0.6-28.5c-0.2-15.7-0.2-28.5,0-28.5c0.1,0,0.4,12.7,0.6,28.5
						C144.9,274.3,144.9,287,144.8,287z"/>
				</g>
			</g>
			<g>
				<g>
					<path class="st5" d="M151.8,286.9c-0.1,0-0.4-12.8-0.6-28.5c-0.2-15.7-0.2-28.5,0-28.5c0.1,0,0.4,12.7,0.6,28.5
						C151.9,274.2,152,286.9,151.8,286.9z"/>
				</g>
			</g>
			<g>
				<g>
					<path class="st5" d="M158.8,286.9c-0.1,0-0.4-12.8-0.6-28.5c-0.2-15.7-0.2-28.5,0-28.5c0.1,0,0.4,12.7,0.6,28.5
						C159,274.1,159,286.9,158.8,286.9z"/>
				</g>
			</g>
			<g>
				<g>
					<path class="st5" d="M165.6,287.2c-0.1,0-0.4-12.8-0.6-28.5c-0.2-15.7-0.2-28.5,0-28.5c0.1,0,0.4,12.7,0.6,28.5
						C165.7,274.5,165.7,287.2,165.6,287.2z"/>
				</g>
			</g>
			<g>
				<g>
					<path class="st5" d="M172.9,286.7c-0.1,0-0.4-12.8-0.6-28.5c-0.2-15.7-0.2-28.5,0-28.5c0.1,0,0.4,12.7,0.6,28.5
						C173,274,173.1,286.7,172.9,286.7z"/>
				</g>
			</g>
			<g>
				<g>
					<path class="st5" d="M180.5,280.1c0,0.1-12.8,0.4-28.5,0.5c-15.7,0.2-28.5,0.2-28.5,0c0-0.1,12.7-0.4,28.5-0.5
						C167.7,279.9,180.5,279.9,180.5,280.1z"/>
				</g>
			</g>
			<g>
				<g>
					<path class="st5" d="M180.8,283.6c0,0.1-12.8,0.4-28.5,0.5c-15.7,0.2-28.5,0.2-28.5,0c0-0.1,12.7-0.4,28.5-0.5
						C168,283.5,180.8,283.5,180.8,283.6z"/>
				</g>
			</g>
			<g>
				<g>
					<path class="st5" d="M180.4,273c0,0.1-12.8,0.4-28.5,0.5c-15.7,0.2-28.5,0.2-28.5,0c0-0.1,12.7-0.4,28.5-0.5
						C167.6,272.9,180.4,272.9,180.4,273z"/>
				</g>
			</g>
			<g>
				<g>
					<path class="st5" d="M180.3,266c0,0.1-12.8,0.4-28.5,0.5c-15.7,0.2-28.5,0.2-28.5,0c0-0.1,12.7-0.4,28.5-0.5
						C167.6,265.8,180.3,265.8,180.3,266z"/>
				</g>
			</g>
			<g>
				<g>
					<path class="st5" d="M180.3,258.9c0,0.1-12.8,0.4-28.5,0.5c-15.7,0.2-28.5,0.2-28.5,0c0-0.1,12.7-0.4,28.5-0.5
						C167.5,258.8,180.3,258.8,180.3,258.9z"/>
				</g>
			</g>
			<g>
				<g>
					<path class="st5" d="M180.2,251.9c0,0.1-12.8,0.4-28.5,0.5c-15.7,0.2-28.5,0.2-28.5,0c0-0.1,12.7-0.4,28.5-0.5
						C167.4,251.8,180.2,251.8,180.2,251.9z"/>
				</g>
			</g>
			<g>
				<g>
					<path class="st5" d="M180.1,244.9c0,0.1-12.8,0.4-28.5,0.5c-15.7,0.2-28.5,0.2-28.5,0c0-0.1,12.7-0.4,28.5-0.5
						C167.4,244.7,180.1,244.7,180.1,244.9z"/>
				</g>
			</g>
			<g>
				<g>
					<path class="st5" d="M180,237.8c0,0.1-12.8,0.4-28.5,0.5c-15.7,0.2-28.5,0.2-28.5,0c0-0.1,12.7-0.4,28.5-0.5
						C167.3,237.7,180,237.7,180,237.8z"/>
				</g>
			</g>
			<g>
				<g>
					<path class="st5" d="M180,235c0,0.1-12.8,0.4-28.5,0.5c-15.7,0.2-28.5,0.2-28.5,0c0-0.1,12.7-0.4,28.5-0.5
						C167.3,234.9,180,234.9,180,235z"/>
				</g>
			</g>
			<g>
				<g>
					<path class="st5" d="M180,241.4c0,0.1-12.8,0.4-28.5,0.5c-15.7,0.2-28.5,0.2-28.5,0c0-0.1,12.7-0.4,28.5-0.5
						C167.3,241.3,180,241.3,180,241.4z"/>
				</g>
			</g>
			<g>
				<g>
					<path class="st5" d="M180,248.4c0,0.1-12.8,0.4-28.5,0.5c-15.7,0.2-28.5,0.2-28.5,0c0-0.1,12.7-0.4,28.5-0.5
						C167.3,248.3,180,248.3,180,248.4z"/>
				</g>
			</g>
			<g>
				<g>
					<path class="st5" d="M180,255.4c0,0.1-12.8,0.4-28.5,0.5c-15.7,0.2-28.5,0.2-28.5,0c0-0.1,12.7-0.4,28.5-0.5
						C167.3,255.3,180,255.2,180,255.4z"/>
				</g>
			</g>
			<g>
				<g>
					<path class="st5" d="M180,262.4c0,0.1-12.8,0.4-28.5,0.5c-15.7,0.2-28.5,0.2-28.5,0c0-0.1,12.7-0.4,28.5-0.5
						C167.3,262.2,180,262.2,180,262.4z"/>
				</g>
			</g>
			<g>
				<g>
					<path class="st5" d="M180,269.3c0,0.1-12.8,0.4-28.5,0.5c-15.7,0.2-28.5,0.2-28.5,0c0-0.1,12.7-0.4,28.5-0.5
						C167.3,269.2,180,269.2,180,269.3z"/>
				</g>
			</g>
			<g>
				<g>
					<path class="st5" d="M180,276.3c0,0.1-12.8,0.4-28.5,0.5c-15.7,0.2-28.5,0.2-28.5,0c0-0.1,12.7-0.4,28.5-0.5
						C167.3,276.2,180,276.2,180,276.3z"/>
				</g>
			</g>
			<g>
				<path class="st7" d="M169.2,232.2c0.2,0.4,0.4,0.8,0.4,1.3c0,1.4-1.1,2.5-2.5,2.5s-2.5-1.1-2.5-2.5c0-0.5,0.1-0.9,0.4-1.3h-3
					c0.2,0.4,0.4,0.8,0.4,1.3c0,1.4-1.1,2.5-2.5,2.5c-1.4,0-2.5-1.1-2.5-2.5c0-0.5,0.1-0.9,0.4-1.3h-3c0.2,0.4,0.4,0.8,0.4,1.3
					c0,1.4-1.1,2.5-2.5,2.5c-1.4,0-2.5-1.1-2.5-2.5c0-0.5,0.1-0.9,0.4-1.3h-3c0.2,0.4,0.4,0.8,0.4,1.3c0,1.4-1.1,2.5-2.5,2.5
					c-1.4,0-2.5-1.1-2.5-2.5c0-0.5,0.1-0.9,0.4-1.3h-3c0.2,0.4,0.4,0.8,0.4,1.3c0,1.4-1.1,2.5-2.5,2.5s-2.5-1.1-2.5-2.5
					c0-0.5,0.1-0.9,0.4-1.3h-3c0.2,0.4,0.4,0.8,0.4,1.3c0,1.4-1.1,2.5-2.5,2.5c-1.4,0-2.5-1.1-2.5-2.5c0-0.5,0.1-0.9,0.4-1.3h-1.8
					v52.6h43.8v-52.6H169.2z"/>
			</g>
			<g>
				<path class="st7" d="M169.2,232.2c0.2,0.4,0.4,0.8,0.4,1.3c0,1.4-1.1,2.5-2.5,2.5s-2.5-1.1-2.5-2.5c0-0.5,0.1-0.9,0.4-1.3h-3
					c0.2,0.4,0.4,0.8,0.4,1.3c0,1.4-1.1,2.5-2.5,2.5c-1.4,0-2.5-1.1-2.5-2.5c0-0.5,0.1-0.9,0.4-1.3h-3c0.2,0.4,0.4,0.8,0.4,1.3
					c0,1.4-1.1,2.5-2.5,2.5c-1.4,0-2.5-1.1-2.5-2.5c0-0.5,0.1-0.9,0.4-1.3h-3c0.2,0.4,0.4,0.8,0.4,1.3c0,1.4-1.1,2.5-2.5,2.5
					c-1.4,0-2.5-1.1-2.5-2.5c0-0.5,0.1-0.9,0.4-1.3h-3c0.2,0.4,0.4,0.8,0.4,1.3c0,1.4-1.1,2.5-2.5,2.5s-2.5-1.1-2.5-2.5
					c0-0.5,0.1-0.9,0.4-1.3h-3c0.2,0.4,0.4,0.8,0.4,1.3c0,1.4-1.1,2.5-2.5,2.5c-1.4,0-2.5-1.1-2.5-2.5c0-0.5,0.1-0.9,0.4-1.3h-1.8
					v52.6h43.8v-52.6H169.2z"/>
			</g>
			<g>
				<path class="st5" d="M145.2,239.8c0.3,1.6,1,3.1,2.3,4c1.5,1,3.7,0.9,5-0.3c1.4-1.2,1.8-3.3,1-4.9c-0.8-1.6-2.8-2.6-4.5-2.2"/>
			</g>
			<g>
				<g>
					<path class="st6" d="M145.2,239.8c0.1,1.8,1.6,3.2,3.4,3.1c1.8-0.1,3.2-1.6,3.1-3.4c-0.1-1.8-1.6-3.2-3.4-3.1
						C146.5,236.4,145.1,238,145.2,239.8z"/>
				</g>
				<g>
					<path class="st6" d="M143.3,238.6c0.1,1.1,1,1.9,2.1,1.9c1.1-0.1,1.9-1,1.9-2.1c-0.1-1.1-1-1.9-2.1-1.9
						C144.1,236.6,143.2,237.5,143.3,238.6z"/>
				</g>
				<g>
					<g>
						<path class="st2" d="M145.1,240.4c0-0.1,0.3-0.1,0.7-0.2c0.4-0.1,0.9-0.5,1.1-1.1c0.2-0.6,0-1.2-0.2-1.6
							c-0.2-0.4-0.4-0.6-0.4-0.6c0-0.1,0.4,0,0.7,0.4c0.3,0.4,0.6,1.1,0.3,1.9c-0.3,0.8-1,1.2-1.5,1.3
							C145.4,240.6,145.1,240.5,145.1,240.4z"/>
					</g>
				</g>
				<g>
					<g>
						<path class="st2" d="M146.8,237.3c0.1-0.1,0.6,0,1.1-0.1c0.6-0.1,0.9-0.5,1.1-0.4c0.1,0.1-0.2,0.7-0.9,0.9
							C147.2,237.8,146.7,237.4,146.8,237.3z"/>
					</g>
				</g>
				<g>
					<g>
						<path class="st2" d="M147.3,242.3c-0.1,0-0.3-0.6-0.8-1.1c-0.5-0.5-1.1-0.6-1.1-0.7c0-0.1,0.8-0.3,1.5,0.4
							C147.5,241.4,147.4,242.3,147.3,242.3z"/>
					</g>
				</g>
			</g>
		</g>
		<g>
			<g>
				<path class="st2" d="M165.3,251c0,0.1-7,0.3-15.6,0.3c-8.6,0-15.6-0.1-15.6-0.3s7-0.3,15.6-0.3
					C158.3,250.7,165.3,250.8,165.3,251z"/>
			</g>
		</g>
		<g>
			<g>
				<path class="st2" d="M165.3,254.2c0,0.1-7,0.3-15.6,0.3c-8.6,0-15.6-0.1-15.6-0.3c0-0.1,7-0.3,15.6-0.3
					C158.3,254,165.3,254.1,165.3,254.2z"/>
			</g>
		</g>
		<g>
			<g>
				<path class="st2" d="M165.3,257.5c0,0.1-7,0.3-15.6,0.3c-8.6,0-15.6-0.1-15.6-0.3c0-0.1,7-0.3,15.6-0.3
					C158.3,257.2,165.3,257.3,165.3,257.5z"/>
			</g>
		</g>
		<g>
			<g>
				<path class="st2" d="M165.3,260.7c0,0.1-7,0.3-15.6,0.3c-8.6,0-15.6-0.1-15.6-0.3c0-0.1,7-0.3,15.6-0.3
					C158.3,260.5,165.3,260.6,165.3,260.7z"/>
			</g>
		</g>
		<g>
			<g>
				<path class="st2" d="M165.3,264c0,0.1-7,0.3-15.6,0.3c-8.6,0-15.6-0.1-15.6-0.3c0-0.1,7-0.3,15.6-0.3
					C158.3,263.7,165.3,263.8,165.3,264z"/>
			</g>
		</g>
		<g>
			<g>
				<path class="st2" d="M165.3,267.2c0,0.1-7,0.3-15.6,0.3c-8.6,0-15.6-0.1-15.6-0.3c0-0.1,7-0.3,15.6-0.3
					C158.3,267,165.3,267.1,165.3,267.2z"/>
			</g>
		</g>
		<g>
			<g>
				<path class="st2" d="M165.3,270.5c0,0.1-7,0.3-15.6,0.3c-8.6,0-15.6-0.1-15.6-0.3s7-0.3,15.6-0.3
					C158.3,270.2,165.3,270.3,165.3,270.5z"/>
			</g>
		</g>
	</g>
</g>
<g id="Lamp">
	<g>
		<g>
			<g>
				<g>
					<g>
						<g>
							<g>
								<path class="st2" d="M88.1,420c-0.5,0-0.9-0.3-1-0.8L51.5,283.7c-0.1-0.6,0.2-1.2,0.8-1.3c0.6-0.1,1.2,0.2,1.3,0.8
									l35.6,135.5c0.1,0.6-0.2,1.2-0.8,1.3C88.3,420,88.2,420,88.1,420z"/>
							</g>
						</g>
					</g>
					<g>
						<g>
							<g>
								<path class="st2" d="M78.7,423.4c-0.5,0-0.9-0.3-1-0.8L42.1,287.1c-0.1-0.6,0.2-1.2,0.8-1.3c0.6-0.2,1.2,0.2,1.3,0.8
									L79.7,422c0.1,0.6-0.2,1.2-0.8,1.3C78.9,423.3,78.8,423.4,78.7,423.4z"/>
							</g>
						</g>
					</g>
					<g>
						<g>
							<g>
								<polygon class="st2" points="46.4,281.2 44.7,279.9 136,157 219.2,173 218.8,175.1 136.9,159.4 								"/>
							</g>
						</g>
					</g>
					<g>
						<g>
							<g>
								
									<rect x="22.9" y="221.1" transform="matrix(0.5951 -0.8037 0.8037 0.5951 -138.7632 168.9816)" class="st2" width="150.9" height="2.1"/>
							</g>
						</g>
					</g>
					<g>
						<g>
							<g>
								<path class="st8" d="M133.7,162.7c1.1,3.2,4.5,4.8,7.7,3.8c3.2-1.1,4.8-4.5,3.8-7.7c-1.1-3.2-4.5-4.8-7.7-3.8
									C134.3,156.1,132.6,159.5,133.7,162.7z"/>
							</g>
						</g>
					</g>
				</g>
			</g>
			<g>
				<g>
					<g>
						<polygon class="st9" points="215.3,166.1 213.8,157.5 220.2,157 220.7,165.4 						"/>
					</g>
				</g>
				<g class="st10">
					<g>
						<polygon class="st8" points="215.3,166.1 213.8,157.5 220.2,157 220.7,165.4 						"/>
					</g>
				</g>
				<g>
					<g>
						<polyline class="st9" points="210,165.5 204.1,197.7 189.1,240.3 273.6,228.1 239.5,190.9 225.3,163.3 210,165.5 						"/>
					</g>
				</g>
			</g>
		</g>
		<g>
			<g>
				<g>
					<path class="st8" d="M40.5,284.8c0,3.7,3,6.7,6.7,6.7s6.7-3,6.7-6.7c0-3.7-3-6.7-6.7-6.7S40.5,281.1,40.5,284.8z"/>
				</g>
			</g>
		</g>
		<g>
			<g>
				<g>
					<path class="st9" d="M61.3,447.1c0-0.4-0.1-0.9-0.1-1.3c0-14.8,12-26.8,26.8-26.8c14.8,0,26.8,12,26.8,26.8
						c0,0.5,0,0.9-0.1,1.3H61.3z"/>
				</g>
			</g>
		</g>
	</g>
</g>
<g id="Character">
	<g>
		<g>
			<path class="st11" d="M207.7,437.1c-0.3,0.1-1.7,1.5,0.3,3.8c2,2.3,14.1,8.5,16.4,4.8c2.2-3.7-3.2-6.3-3.2-6.3L207.7,437.1z"/>
			<g>
				<g>
					<path class="st11" d="M221,433.1c0,0,12.5-1.4,17.6-0.7c5.5,0.7,11.4-2.1,14.9-5.9c3.5-3.8,4.4-8.8,4.4-8.8l8-5.6
						c0,0,0.9-18.9-11.7-15.9l-14.7,0.5c0,0-29,4.8-33.5,8.4c0,0-5.5,5.3-7.1,7.4c-0.6,0.8-1.1,8.6,4.4,11.2c0,0-3.3,4.2-0.4,6.5
						l1.4,1c0,0-1.9,4.2-0.1,5.4c1.8,1.2,15.7,5.4,19.6,2.7C227.7,436.5,223.1,433.3,221,433.1"/>
				</g>
			</g>
			<g>
				<path class="st12" d="M205.4,423c0,0,0.6,0,1.6,0.2c1,0.1,2.6,0.3,4.5,0.5c0.9,0.1,2,0.1,3.1,0.1c1.1,0,2.3,0,3.6,0.1
					c1.3,0.1,2.6,0.4,3.8,1.2c1.1,0.8,2.1,2.2,1.9,3.9c-0.1,0.8-0.6,1.5-1.1,2c-0.6,0.5-1.2,0.8-1.9,1.1c-1.3,0.5-2.7,0.6-3.9,0.7
					c-2.5,0.2-4.8,0.1-6.7-0.1c-1.9-0.2-3.4-0.5-4.4-0.6c-1-0.2-1.6-0.3-1.6-0.3c0,0,0.6,0,1.6,0.1c1.1,0.1,2.6,0.3,4.5,0.5
					c1.9,0.2,4.1,0.3,6.6,0c1.2-0.1,2.5-0.3,3.8-0.7c0.6-0.2,1.2-0.5,1.7-1c0.5-0.4,0.9-1,0.9-1.7c0.2-1.3-0.6-2.6-1.7-3.4
					c-1-0.8-2.4-1-3.6-1.1c-1.2-0.1-2.4-0.1-3.5-0.1c-1.1,0-2.2-0.1-3.1-0.2c-1.9-0.2-3.4-0.4-4.5-0.6
					C206,423.1,205.4,423,205.4,423z"/>
			</g>
			<g>
				<path class="st12" d="M204.4,413.9c0,0,0.6,0,1.6,0.2c1,0.1,2.6,0.3,4.4,0.5c1.9,0.2,4.1,0.3,6.6,0.3c1.2,0,2.6-0.1,3.9,0.6
					c0.6,0.3,1.2,0.9,1.5,1.6c0.3,0.7,0.3,1.5,0.2,2.2c-0.3,1.5-1.3,2.7-2.5,3.5c-1.2,0.8-2.5,1.1-3.8,1.2c-2.5,0.2-4.8-0.2-6.7-0.3
					c-1.8-0.2-3.3-0.3-4.4-0.5c-1-0.1-1.6-0.2-1.6-0.2c0,0,0.6,0,1.6,0c1.1,0.1,2.6,0.2,4.5,0.3c1.9,0.1,4.1,0.4,6.6,0.2
					c1.2-0.1,2.5-0.5,3.6-1.2c1.1-0.7,2-1.8,2.3-3.1c0.3-1.3-0.3-2.8-1.4-3.3c-1.1-0.6-2.5-0.5-3.7-0.6c-2.5,0-4.8-0.2-6.6-0.4
					c-1.9-0.2-3.4-0.5-4.4-0.7C205,414.1,204.4,414,204.4,413.9z"/>
			</g>
			<g>
				<path class="st12" d="M210.8,415c-0.1,0-0.5-1.1-1.1-2.3c-0.6-1.2-1.3-2.2-1.2-2.3c0.1-0.1,1,0.7,1.7,2
					C210.8,413.8,211,415,210.8,415z"/>
			</g>
			<g>
				<path class="st11" d="M249.1,396.9l-11.8-1.6c0,0-33.4-6.8-33.7-5.9c-0.3,0.9-2,1.2-0.7,4.8c1.2,3.6,20.5,6.8,21.4,7.9
					c0.9,1.1,1.5,7.8,9,10.8c7.6,3,12.3,2,12.3,2"/>
				<g>
					<path class="st12" d="M245.5,414.9c0,0-0.1,0-0.3,0.1c-0.2,0-0.4,0.1-0.8,0.1c-0.7,0.1-1.7,0.1-3,0c-1.3-0.1-2.9-0.3-4.6-0.8
						c-1.8-0.5-3.8-1.1-5.8-2.3c-2-1.1-3.9-3-5.2-5.4c-0.7-1.2-1.1-2.6-1.6-3.9c-0.1-0.2-0.1-0.3-0.2-0.4c-0.1-0.1-0.2-0.1-0.4-0.2
						c-0.3-0.1-0.7-0.2-1-0.4c-0.7-0.2-1.4-0.4-2.2-0.6c-2.9-0.8-6-1.5-9.2-2.4c-1.6-0.5-3.2-1-4.8-1.6c-0.8-0.3-1.6-0.7-2.4-1.2
						c-0.4-0.2-0.7-0.5-1.1-0.8c-0.2-0.2-0.3-0.4-0.4-0.6c-0.1-0.2-0.1-0.4-0.2-0.6c-0.2-0.9-0.4-1.8-0.2-2.7
						c0.1-0.5,0.4-0.9,0.7-1.2c0.1-0.2,0.3-0.3,0.3-0.5c0,0,0,0,0.1-0.1c0.1-0.1,0.2-0.1,0.2-0.1c0.1,0,0.1,0,0.2,0
						c0.1,0,0.2,0,0.3,0c1.7,0.1,3.4,0.4,5,0.7c3.3,0.5,6.4,1.1,9.4,1.7c6,1.1,11.3,2.2,15.9,3.1c1.1,0.2,2.2,0.5,3.2,0.6
						c1,0.1,2,0.3,2.9,0.4c1.8,0.3,3.4,0.5,4.6,0.7c1.2,0.2,2.2,0.3,2.9,0.4c0.3,0.1,0.6,0.1,0.8,0.1c0.2,0,0.3,0.1,0.3,0.1
						c0,0-0.1,0-0.3,0c-0.2,0-0.5,0-0.8-0.1c-0.7-0.1-1.7-0.2-2.9-0.3c-1.3-0.2-2.9-0.4-4.7-0.6c-0.9-0.1-1.9-0.2-2.9-0.4
						c-1-0.2-2.1-0.4-3.2-0.6c-4.5-0.9-9.9-1.9-15.9-3c-3-0.6-6.1-1.1-9.4-1.7c-1.6-0.3-3.3-0.5-5-0.6c-0.1,0-0.2,0-0.3,0
						c0,0-0.1,0-0.1,0c0,0,0,0,0,0c-0.1-0.1,0-0.1,0-0.1c0,0,0,0,0,0c0.4,0.1,0.1,0.1,0.2,0.1l0,0c-0.1,0.2-0.3,0.4-0.4,0.6
						c-0.3,0.3-0.5,0.6-0.6,1c-0.2,0.7-0.1,1.6,0.2,2.4c0.1,0.4,0.2,0.8,0.5,1.1c0.3,0.3,0.6,0.5,1,0.8c0.7,0.4,1.5,0.8,2.3,1.1
						c1.6,0.6,3.2,1.2,4.7,1.6c3.2,0.9,6.3,1.7,9.2,2.5c0.7,0.2,1.5,0.4,2.2,0.6c0.4,0.1,0.7,0.2,1.1,0.4c0.2,0.1,0.4,0.2,0.5,0.4
						c0.1,0.2,0.2,0.4,0.3,0.5c0.5,1.4,0.9,2.7,1.6,3.9c1.2,2.4,3,4.2,5,5.3c2,1.1,4,1.8,5.7,2.3c1.7,0.5,3.3,0.8,4.6,0.9
						c1.3,0.1,2.3,0.1,2.9,0.1c0.3,0,0.6,0,0.8-0.1C245.4,414.9,245.5,414.9,245.5,414.9z"/>
				</g>
			</g>
			<g>
				<path class="st12" d="M217.3,432.5c0,0,0.4,0,1.2,0.1c0.8,0.1,1.9,0.4,3.2,1c0.6,0.3,1.3,0.7,2,1.2c0.7,0.5,1.4,1.3,1.5,2.3
					c0.1,1.1-0.6,2.1-1.5,2.6c-0.9,0.6-2.1,0.7-3.2,0.7c-4.3-0.3-8.2-0.9-10.9-1.6c-1.4-0.4-2.5-0.7-3.2-1c-0.7-0.3-1.1-0.5-1.1-0.5
					c0,0,0.4,0.1,1.2,0.3c0.8,0.2,1.9,0.5,3.2,0.8c2.7,0.6,6.6,1.2,10.9,1.4c1,0,2.1-0.1,2.9-0.6c0.8-0.5,1.4-1.3,1.3-2.2
					c-0.1-0.8-0.7-1.5-1.3-2c-0.6-0.5-1.3-0.9-1.9-1.2C219.1,432.6,217.3,432.6,217.3,432.5z"/>
			</g>
		</g>
		<g>
			<path class="st13" d="M304.3,364.2c0,0,14.8-24.4,18.1-40.5c3.3-16.1,20.5-41.6,26.1-48.3c5.5-6.7,27.7-14.4,27.7-14.4l8.2-4.4
				l63.4-5.6c0,0,42.2,4.4,54.9,16.1s22.7,38.3,22.7,51.6c0,13.3,12.9,128.6,12.9,128.6l-156.2-0.2l3.5-56.9
				c0,0-18.9-12.8-23.9-23.9c-5-11.1-2.2-5.5-2.2-5.5s-17.7,37.6-23.8,42.1c-6.1,4.4-77,26.2-77,26.2L249,392L304.3,364.2z"/>
		</g>
		<g>
			<path class="st13" d="M488.7,271.8c-1.7,0.5-22.9,55.2-24.4,60.2c-1.5,5,0,36.3,0,36.3l7,12.9c0,0-2,9.4-0.5,13.9l-31.3,6
				c0,0-8-5.5-15.4,0l-36.9,3.1c0,0,10.8,0.1,7.6,16.8c-3.2,16.3-5.6,19.9-5.6,19.9l129.9-3c0,0,14.4-0.7,12.2-28.5
				c-2.2-27.7-8.4-104.3-8.4-104.3S513.4,264.1,488.7,271.8z"/>
		</g>
		<g>
			<g>
				<path class="st14" d="M464.1,363.9c0,0-0.1-0.2-0.3-0.7c-0.2-0.5-0.5-1.2-0.8-2c-0.3-0.9-0.8-1.9-1.2-3.2
					c-0.4-1.2-0.9-2.6-1.4-4.2c-0.5-1.6-1-3.3-1.4-5.2c-0.5-1.9-0.9-3.9-1.3-6.1c-0.7-4.3-1.3-9.1-1.5-14.1c-0.2-5,0-9.8,0.4-14.2
					c0.3-2.2,0.5-4.2,0.8-6.1c0.2-1,0.3-1.9,0.5-2.8c0.2-0.9,0.4-1.7,0.5-2.5c0.3-1.6,0.7-3.1,1.1-4.3c0.3-1.3,0.6-2.3,0.9-3.2
					c0.3-0.8,0.5-1.5,0.7-2c0.2-0.5,0.2-0.7,0.3-0.7c0,0,0,0.3-0.2,0.7c-0.1,0.5-0.3,1.2-0.6,2c-0.3,0.9-0.6,2-0.8,3.2
					c-0.3,1.3-0.7,2.7-1,4.3c-0.2,0.8-0.3,1.6-0.5,2.5c-0.2,0.9-0.3,1.8-0.4,2.8c-0.3,1.9-0.5,4-0.8,6.1c-0.4,4.3-0.6,9.1-0.4,14.1
					c0.2,5,0.8,9.7,1.5,14c0.4,2.1,0.8,4.2,1.2,6c0.4,1.9,0.9,3.6,1.3,5.2c0.4,1.6,0.9,3,1.3,4.2c0.4,1.3,0.8,2.3,1.1,3.2
					c0.3,0.8,0.5,1.5,0.7,2C464,363.6,464.1,363.8,464.1,363.9z"/>
			</g>
		</g>
		<g>
			<g>
				<path class="st14" d="M509.3,423.1c0,0-0.1-0.1-0.3-0.4c-0.2-0.3-0.5-0.7-0.9-1.1c-0.4-0.5-0.8-1.1-1.4-1.8
					c-0.6-0.7-1.2-1.5-1.9-2.3c-0.7-0.8-1.5-1.8-2.5-2.7c-0.9-1-1.9-1.9-3-2.9c-2.2-2-4.7-4-7.5-6c-2.8-1.9-5.6-3.5-8.2-4.9
					c-1.3-0.6-2.6-1.3-3.8-1.8c-1.2-0.5-2.3-1-3.4-1.3c-1-0.4-2-0.7-2.8-1c-0.8-0.3-1.6-0.5-2.2-0.7c-0.6-0.2-1-0.3-1.4-0.4
					c-0.3-0.1-0.5-0.2-0.5-0.2c0,0,0.2,0,0.5,0.1c0.4,0.1,0.8,0.2,1.4,0.3c0.6,0.1,1.4,0.3,2.2,0.6c0.9,0.3,1.8,0.5,2.9,0.9
					c1.1,0.4,2.2,0.8,3.4,1.3c1.2,0.5,2.5,1.1,3.8,1.7c2.7,1.3,5.5,2.9,8.3,4.9c2.8,2,5.3,4,7.5,6.1c1.1,1,2.1,2,3,3
					c0.9,1,1.7,1.9,2.4,2.8c0.7,0.8,1.3,1.7,1.9,2.4c0.5,0.7,1,1.3,1.3,1.9c0.3,0.5,0.6,0.9,0.8,1.2
					C509.2,423,509.3,423.1,509.3,423.1z"/>
			</g>
		</g>
		<g>
			<g>
				<path class="st14" d="M520.2,415.8c-0.1,0.1-1.2-1.2-3.4-3c-1.1-0.9-2.4-1.8-4-2.8c-1.6-0.9-3.4-1.8-5.4-2.6
					c-2-0.7-4-1.3-5.8-1.6c-1.8-0.3-3.5-0.5-4.9-0.6c-2.8-0.1-4.5,0.1-4.5,0c0,0,0.4-0.1,1.2-0.2c0.4-0.1,0.9-0.1,1.4-0.1
					c0.6,0,1.2-0.1,1.9,0c1.4,0,3.1,0.2,4.9,0.5c1.8,0.3,3.8,0.9,5.9,1.6c2,0.8,3.9,1.7,5.5,2.7c1.6,1,2.9,2,4,2.9
					c0.6,0.4,1,0.9,1.4,1.3c0.4,0.4,0.7,0.7,1,1C519.9,415.5,520.2,415.8,520.2,415.8z"/>
			</g>
		</g>
		<g>
			<g>
				<path class="st14" d="M508.2,397.6c-0.1,0.1-1.6-1.1-4.4-2.5c-0.7-0.3-1.5-0.7-2.3-1c-0.8-0.4-1.8-0.6-2.8-0.9
					c-2-0.5-4.2-1-6.6-1.2c-2.4-0.1-4.6,0-6.7,0.2c-1,0.2-2,0.3-2.9,0.6c-0.9,0.2-1.7,0.4-2.5,0.7c-3,1-4.6,2-4.7,1.9
					c0,0,0.4-0.3,1.2-0.7c0.4-0.2,0.9-0.5,1.4-0.7c0.6-0.2,1.2-0.6,2-0.8c0.7-0.3,1.6-0.6,2.5-0.8c0.9-0.3,1.9-0.4,2.9-0.6
					c2.1-0.3,4.4-0.4,6.8-0.3c2.4,0.2,4.7,0.6,6.7,1.2c1,0.3,1.9,0.6,2.8,1c0.9,0.3,1.6,0.7,2.3,1.1c0.7,0.3,1.3,0.7,1.8,1.1
					c0.5,0.3,1,0.6,1.3,0.9C507.8,397.2,508.2,397.5,508.2,397.6z"/>
			</g>
		</g>
		<g>
			<g>
				<path class="st14" d="M432.2,438.5c-0.1,0,0.7-2.1,0.9-5.6c0.2-1.7,0.1-3.8,0-6.1c-0.2-2.3-0.7-4.8-1.3-7.4
					c-0.7-2.6-1.6-4.9-2.5-7.1c-1-2.1-2-3.9-3-5.3c-1.9-2.9-3.6-4.3-3.5-4.4c0,0,0.4,0.3,1.1,1c0.4,0.3,0.8,0.8,1.2,1.3
					c0.2,0.3,0.5,0.6,0.7,0.9c0.2,0.3,0.5,0.7,0.7,1c1.1,1.4,2.1,3.3,3.1,5.3c1,2.1,1.9,4.5,2.6,7.1c0.7,2.6,1.1,5.1,1.3,7.5
					c0.2,2.3,0.2,4.4-0.1,6.2c0,0.4-0.1,0.9-0.1,1.2c-0.1,0.4-0.1,0.8-0.2,1.1c-0.1,0.7-0.3,1.3-0.4,1.7
					C432.5,438,432.3,438.6,432.2,438.5z"/>
			</g>
		</g>
		<g>
			<g>
				<path class="st14" d="M410.5,401c0,0,0-0.1-0.1-0.3c0-0.2-0.1-0.5-0.1-0.9c-0.1-0.8-0.3-1.9-0.5-3.3c-0.4-2.9-0.9-7-1.6-12.1
					c-1.2-10.3-2.7-24.5-3.9-40.2c-1.1-15.7-1.7-30-2-40.3c-0.1-5.2-0.2-9.3-0.2-12.2c0-1.4,0-2.5,0-3.3c0-0.4,0-0.6,0-0.9
					c0-0.2,0-0.3,0-0.3c0,0,0,0.1,0,0.3c0,0.2,0,0.5,0,0.9c0,0.8,0.1,1.9,0.1,3.3c0.1,2.9,0.2,7.1,0.4,12.2
					c0.4,10.3,1,24.6,2.2,40.3c1.1,15.7,2.6,29.9,3.7,40.2c0.6,5.1,1.1,9.2,1.4,12.1c0.2,1.4,0.3,2.5,0.4,3.3c0,0.4,0.1,0.6,0.1,0.9
					C410.5,400.9,410.5,401,410.5,401z"/>
			</g>
		</g>
		<g>
			<g>
				<path class="st14" d="M359.5,361.6c0,0-0.3-0.5-0.7-1.5c-0.4-1-1-2.4-1.7-4.2c-1.5-3.5-3.7-8.3-6.4-13.6
					c-2.7-5.2-5.1-9.8-6.9-13.3c-0.9-1.7-1.6-3.1-2-4.1c-0.5-1-0.7-1.5-0.7-1.5c0,0,0.3,0.5,0.9,1.4c0.6,1,1.3,2.4,2.2,4
					c1.8,3.4,4.4,8,7.1,13.3c2.7,5.2,4.9,10.1,6.3,13.7c0.7,1.8,1.3,3.2,1.6,4.3C359.3,361,359.5,361.6,359.5,361.6z"/>
			</g>
		</g>
		<g>
			<g>
				<path class="st14" d="M351.5,343.1c0,0-0.3,0-0.9-0.2c-0.6-0.1-1.4-0.4-2.4-0.7c-2-0.7-4.7-1.7-7.6-3.1c-2.9-1.4-5.4-3-7.1-4.2
					c-0.9-0.6-1.6-1.1-2-1.5c-0.5-0.4-0.7-0.6-0.7-0.6c0-0.1,1.1,0.7,2.9,1.8c1.8,1.1,4.3,2.6,7.2,4c2.9,1.4,5.6,2.5,7.5,3.3
					C350.3,342.7,351.5,343.1,351.5,343.1z"/>
			</g>
		</g>
		<g>
			<g>
				<path class="st14" d="M338.1,377.3c0,0-0.4-0.2-1.1-0.7c-0.7-0.5-1.6-1.1-2.9-1.8c-2.5-1.5-6-3.4-10.1-4.9
					c-4.1-1.5-8-2.4-10.8-2.9c-1.4-0.2-2.6-0.4-3.4-0.5c-0.8-0.1-1.2-0.2-1.2-0.2c0,0,0.4,0,1.3,0c0.8,0,2,0.1,3.4,0.3
					c2.9,0.4,6.8,1.2,11,2.8c4.1,1.6,7.7,3.5,10.1,5.1c1.2,0.8,2.2,1.5,2.8,2C337.8,377,338.1,377.3,338.1,377.3z"/>
			</g>
		</g>
		<g>
			<g>
				<path class="st14" d="M446.2,251.1c0,0,0,0.3-0.1,0.8c-0.1,0.6-0.2,1.4-0.3,2.3c-0.3,2-0.6,4.9-1.2,8.5
					c-0.6,3.6-1.4,7.8-2.8,12.4c-1.4,4.6-3.3,9.6-6.3,14.3c-1.5,2.5-3.4,4.7-5.2,6.7l-0.2,0.2l-0.2-0.2c-2.7-3.6-6.1-6.2-9.5-7.9
					c-1.7-0.9-3.4-1.4-5-1.8c-1.6-0.4-3.1-0.6-4.5-0.6c-2.8-0.1-5,0.4-6.5,0.9c-1.5,0.5-2.2,0.9-2.2,0.8c0,0,0.2-0.1,0.5-0.3
					c0.4-0.2,0.9-0.5,1.6-0.7c1.5-0.6,3.7-1.1,6.5-1.1c1.4,0,3,0.2,4.6,0.6c1.6,0.4,3.4,1,5.1,1.8c3.5,1.7,7,4.3,9.7,8l-0.4,0
					c1.8-2,3.6-4.2,5.1-6.6c2.9-4.7,4.9-9.6,6.3-14.1c1.4-4.6,2.2-8.8,2.9-12.4c0.7-3.6,1.1-6.5,1.4-8.5c0.2-1,0.3-1.7,0.4-2.3
					C446.1,251.4,446.2,251.1,446.2,251.1z"/>
			</g>
		</g>
		<g>
			<polygon class="st13" points="447,251.8 437.4,239 426.9,239.3 392.9,257.3 			"/>
		</g>
		<g>
			<g>
				<path class="st14" d="M402.2,287.6c0,0-0.2,0-0.6,0c-0.4,0-0.9-0.1-1.6-0.3c-1.4-0.3-3.2-1-5.4-2.3c-1.1-0.6-2.2-1.2-3.7-1.5
					c-1.4-0.3-2.9-0.3-4.5,0c-3.1,0.6-6.2,3.1-7.6,6.6l-0.5,1.5l0-1.6c0-0.4,0-0.8,0-1.2c0.1-7.9,0.1-15,0.5-20.2
					c0.1-2.6,0.4-4.7,0.6-6.1c0.1-0.7,0.2-1.3,0.3-1.6c0.1-0.4,0.1-0.6,0.1-0.6c0,0-0.1,0.8-0.2,2.2c-0.1,1.4-0.3,3.5-0.4,6.1
					c-0.2,5.2-0.2,12.3-0.3,20.2c0,0.4,0,0.8,0,1.2l-0.5-0.1c1.4-3.7,4.7-6.2,7.9-6.8c3.3-0.7,6.4,0.3,8.4,1.7
					c2.1,1.3,3.9,2.1,5.2,2.4C401.4,287.5,402.2,287.5,402.2,287.6z"/>
			</g>
		</g>
		<g>
			<g>
				<g>
					<g>
						<g>
							<g>
								<g>
									<g>
										<g>
											<g>
												<g>
													<g>
														<g>
															<path class="st11" d="M437.4,177.1l0,76.7c0,4.4-1.5,8.6-4.4,12l0,0c-4.3,5.1-9.5,9.5-15.4,12.8l-15.5,8.7
																l-12.8-11.4c-3.8-3.4-6-8.1-6.2-13.1c-0.2-5.6-0.2-11.2-0.2-11.2s-21.7-1.6-23.7-22.9c-1-10.1-1.3-30.7-1.3-49.7
																c-0.1-21.7,16.6-39.7,38.2-41.5l0.6-0.1C419.1,136.8,437.5,154.8,437.4,177.1z"/>
														</g>
													</g>
												</g>
											</g>
										</g>
									</g>
								</g>
							</g>
							<g>
								<g>
									<g>
										<g>
											<g>
												<g>
													<g>
														<g>
															<path class="st12" d="M382.9,251.2c0,0,13.6,0,27.2-10.2c0,0-5.3,15.9-26.8,15.8L382.9,251.2z"/>
														</g>
													</g>
												</g>
											</g>
										</g>
									</g>
								</g>
							</g>
						</g>
					</g>
				</g>
				<g>
					<g>
						<g>
							<g>
								<g>
									<g>
										<g>
											<g>
												<g>
													<g>
														<g>
															<g>
																<g>
																	<g>
																		<path class="st2" d="M365.2,193.2c0.1,1.6,1.5,2.9,3.2,2.8c1.7,0,3-1.4,2.9-3c-0.1-1.6-1.5-2.9-3.2-2.8
																			C366.4,190.3,365.1,191.6,365.2,193.2z"/>
																	</g>
																</g>
															</g>
														</g>
													</g>
												</g>
											</g>
										</g>
										<g>
											<g>
												<g>
													<g>
														<g>
															<g>
																<g>
																	<g>
																		<g>
																			<path class="st2" d="M363.4,187.5c0.4,0.4,2.6-1.5,5.9-1.8c3.3-0.3,5.8,1.2,6.2,0.7c0.2-0.2-0.3-0.9-1.4-1.6
																				c-1.1-0.7-2.9-1.3-5-1.1c-2,0.2-3.7,1.1-4.6,1.9C363.5,186.6,363.2,187.3,363.4,187.5z"/>
																		</g>
																	</g>
																</g>
															</g>
														</g>
													</g>
												</g>
											</g>
										</g>
									</g>
									<g>
										<g>
											<g>
												<g>
													<g>
														<g>
															<g>
																<g>
																	<g>
																		<path class="st2" d="M396.4,191.9c0.1,1.6,1.5,2.9,3.2,2.8c1.7,0,3-1.4,2.9-3c-0.1-1.6-1.5-2.9-3.2-2.8
																			C397.7,188.9,396.4,190.3,396.4,191.9z"/>
																	</g>
																</g>
															</g>
														</g>
													</g>
												</g>
											</g>
										</g>
										<g>
											<g>
												<g>
													<g>
														<g>
															<g>
																<g>
																	<g>
																		<g>
																			<path class="st2" d="M395.8,185.4c0.4,0.4,2.6-1.5,5.9-1.8c3.3-0.3,5.8,1.2,6.2,0.7c0.2-0.2-0.3-0.9-1.4-1.6
																				c-1.1-0.7-2.9-1.3-5-1.1c-2,0.2-3.7,1.1-4.6,1.9C395.9,184.5,395.6,185.3,395.8,185.4z"/>
																		</g>
																	</g>
																</g>
															</g>
														</g>
													</g>
												</g>
											</g>
										</g>
									</g>
									<g>
										<g>
											<g>
												<g>
													<g>
														<g>
															<g>
																<g>
																	<g>
																		<path class="st2" d="M385.9,210.8c0-0.2-2.1-0.4-5.4-0.5c-0.8,0-1.7-0.1-1.8-0.7c-0.2-0.6,0-1.5,0.4-2.5
																			c0.6-2.1,1.3-4.3,2-6.6c2.7-9.4,4.6-17.1,4.2-17.2c-0.4-0.1-2.9,7.4-5.6,16.8c-0.6,2.3-1.3,4.5-1.8,6.6
																			c-0.2,1-0.7,2.1-0.2,3.3c0.3,0.6,0.9,1,1.5,1.1c0.6,0.1,1,0.1,1.4,0.1C383.8,211.2,385.9,211,385.9,210.8z"/>
																	</g>
																</g>
															</g>
														</g>
													</g>
												</g>
											</g>
										</g>
									</g>
									<g>
										<g>
											<g>
												<g>
													<g>
														<g>
															<g>
																<g>
																	<g>
																		<path class="st2" d="M395.7,212.3c-0.5,0-0.2,3.6-3.1,6.4c-2.8,2.8-6.7,2.7-6.7,3.2c0,0.2,0.9,0.6,2.5,0.5
																			c1.6-0.1,3.8-0.8,5.6-2.5c1.7-1.7,2.4-3.8,2.4-5.3C396.4,213.1,396,212.2,395.7,212.3z"/>
																	</g>
																</g>
															</g>
														</g>
													</g>
												</g>
											</g>
										</g>
									</g>
								</g>
							</g>
						</g>
						<g>
							<g>
								<g>
									<g>
										<g>
											<g>
												<g>
													<g>
														<path class="st2" d="M393.9,172.6c0.4,0.9,3.6,0.2,7.5,0.3c3.9,0.1,7.1,0.9,7.5,0.1c0.2-0.4-0.4-1.2-1.7-2
															c-1.3-0.8-3.4-1.4-5.7-1.5c-2.3-0.1-4.4,0.5-5.8,1.2C394.3,171.4,393.7,172.2,393.9,172.6z"/>
													</g>
												</g>
											</g>
										</g>
									</g>
								</g>
							</g>
						</g>
						<g>
							<g>
								<g>
									<g>
										<g>
											<g>
												<g>
													<g>
														<path class="st2" d="M363.8,177.9c0.6,0.7,2.8-0.3,5.6-0.5c2.7-0.4,5.1,0.1,5.5-0.7c0.2-0.4-0.2-1.1-1.3-1.7
															c-1.1-0.6-2.8-1.1-4.6-0.8c-1.9,0.2-3.4,1-4.3,1.9C363.8,176.7,363.5,177.5,363.8,177.9z"/>
													</g>
												</g>
											</g>
										</g>
									</g>
								</g>
							</g>
						</g>
					</g>
				</g>
				<g>
					<g>
						<path class="st2" d="M412.2,155.6c0,0,0.1,0.1,0.1,0.1c3.6,2.4,6.2,6.1,7.2,10.4c0,0.1,0.1,0.3,0.1,0.4
							c1.3,6,1.7,12.3,3.1,18.3c1.4,6,1.1,10.6,7.2,12c3.8,0.9,7-1.3,8.4-3.4c0.5-0.8,0.5-1.9,0.5-2.9c-0.1-14.8,2.9-20.6,1.6-36
							c-0.4-4.2-2.7-8-6.3-10.1c-3.4-2-7.6-4.1-11-2.1c-3.5,2-7.5,9.1-10.1,12.2"/>
					</g>
				</g>
				<g>
					<g>
						<g>
							<g>
								<g>
									<g>
										<g>
											<g>
												<g>
													<path class="st11" d="M431,187.4c0.4-0.2,14.3-5.6,15.1,9.1c0.7,14.7-14.1,12.4-14.2,12
														C431.9,208.1,431,187.4,431,187.4z"/>
												</g>
											</g>
										</g>
									</g>
								</g>
							</g>
						</g>
					</g>
					<g>
						<g>
							<g>
								<g>
									<g>
										<g>
											<g>
												<g>
													<g>
														<path class="st12" d="M436.1,202.7c0.1-0.1,0.3,0.2,0.7,0.3c0.4,0.2,1.2,0.3,1.9-0.1c1.5-0.6,2.7-3.2,2.6-5.8
															c0-1.3-0.4-2.6-0.9-3.6c-0.5-1.1-1.2-1.8-2-1.9c-0.8-0.1-1.3,0.4-1.5,0.8c-0.2,0.4-0.1,0.7-0.1,0.7
															c0,0-0.3-0.2-0.2-0.8c0-0.3,0.2-0.6,0.5-0.9c0.3-0.3,0.8-0.5,1.4-0.4c1.1,0,2.2,1,2.8,2.1c0.6,1.1,1.1,2.5,1.1,4
															c0.1,3-1.3,5.8-3.4,6.5c-1,0.3-1.9,0.1-2.4-0.3C436.1,203.1,436,202.7,436.1,202.7z"/>
													</g>
												</g>
											</g>
										</g>
									</g>
								</g>
							</g>
						</g>
					</g>
				</g>
				<g>
					<g>
						<path class="st2" d="M423.8,144.4c3.1-6.1-7.4-13.7-14.9-15.4c-7.4-1.7-16.6,2.6-23.6,5.6c-4.4,1.9-8.8,4.4-13.5,4.5
							c-3.2,0.1-6.4-0.8-9.5-1.6c-3.1-0.8-6.3-1.6-9.5-1.1c-3.2,0.5-6.3,2.5-7.3,5.5c-1,3.1,1.1,7,4.3,7.2
							c-4.2-1.9-9.8,1.5-10.1,6.1c-0.3,4.6,4.9,8.7,9.3,7.3c-2.2-1.4-5.2,1.5-4.7,4c0.5,2.6,3,4.3,5.5,5.1
							c6.3,2.2,13.4,0.7,19.5-1.9c6.1-2.6,11.7-6.4,17.8-9.2c6.1-2.8,16.2-7.8,22.7-6.1c4.8,1.2,8.4,6.6,11,5.1
							c2.4-1.4,3.8-4.2,4.1-7C425.1,150,424.5,147.2,423.8,144.4"/>
					</g>
				</g>
				<g>
					<g>
						<g>
							<path class="st1" d="M348.1,148.9c0.1-0.1,0.8,1,2.6,2.6c1.7,1.5,4.5,3.5,8.6,4.6c3.9,1,9.2,1,13.9-1.7
								c4.8-2.6,8.7-7.5,13.2-12.1c4.5-4.6,10-8.3,15.8-9.3c5.7-1,11.2,0.6,14.4,3.7c3.2,3.1,4.1,6.8,4.1,9.2c0,1.2-0.2,2.1-0.4,2.7
								c-0.2,0.6-0.4,0.9-0.4,0.9c-0.1,0,0.4-1.3,0.2-3.6c-0.1-2.3-1.2-5.7-4.2-8.4c-3-2.7-8.1-4.2-13.5-3.1c-5.3,1-10.6,4.4-15,9
								c-4.5,4.5-8.5,9.4-13.6,12.2c-5.1,2.9-10.7,2.7-14.8,1.5c-4.2-1.2-7-3.4-8.7-5.1c-0.8-0.9-1.4-1.6-1.7-2.2
								C348.2,149.3,348,149,348.1,148.9z"/>
						</g>
					</g>
				</g>
				<g>
					<g>
						<g>
							<path class="st1" d="M434.7,186.5c0,0.1-0.7-0.4-1.3-1.5c-0.7-1.1-1.2-2.9-1.2-5.2c-0.1-4.7,3.7-10.1,3.7-16.7
								c0.1-3.2-0.8-6.3-2.3-8.6c-1.6-2.3-3.8-3.6-5.8-4.2c-2-0.6-3.8-0.5-4.9-0.3c-1.2,0.3-1.8,0.6-1.8,0.5c0-0.1,0.5-0.6,1.7-1
								c1.2-0.4,3.1-0.8,5.4-0.2c2.2,0.6,4.8,1.9,6.6,4.5c1.8,2.5,2.8,5.9,2.7,9.4c0,3.5-1,6.7-2.1,9.5c-1,2.7-1.9,5.2-2,7.3
								C432.8,184.2,434.9,186.4,434.7,186.5z"/>
						</g>
					</g>
				</g>
			</g>
		</g>
		<g>
			<g>
				<path class="st14" d="M525.6,322c0,0,0,0.2,0.1,0.6c0,0.4,0.1,1,0.1,1.7c0.1,1.5,0.3,3.8,0.5,6.7c0.4,5.9,1,14.5,1.7,25.4
					c0.7,10.9,1.6,24.1,2.6,39.2c0.2,3.8,0.5,7.7,0.8,11.6c0.1,2,0.2,4,0.3,6.1c0.1,1,0,2.1,0,3.1c-0.1,1,0,2.1-0.2,3.2
					c-0.1,1.1-0.3,2.1-0.4,3.2c-0.2,1.1-0.5,2.1-0.7,3.2c-0.3,1-0.7,2.1-1,3.1c-0.5,1-0.8,2-1.4,3c-2.1,3.9-5.4,7.5-9.9,9l0,0h0
					c-29.2,0-62.5,0-97.8,0c-10.5,0-20.9,0-31,0l-0.3,0l0.1-0.3c0.9-3.4,1.9-6.7,2.8-10c0.5-1.7,0.9-3.3,1.4-5
					c0.5-1.6,0.9-3.3,1.2-4.9c0.5-3.3,0.2-6.7-0.9-9.8c-0.5-1.5-1.3-3-2.3-4.2c-1-1.2-2.5-2.1-4-2.3l-2.1-0.3l2-0.2
					c12.9-1.1,25.3-2.1,36.9-3.1l-0.1,0c2.3-1.7,5.2-2.6,8-2.4c2.8,0.1,5.4,1,7.7,2.5l-0.2,0c11.3-2.1,21.8-4.1,31.3-5.9l-0.1,0.2
					c-0.4-1.2-0.5-2.5-0.5-3.7c0-1.2,0-2.4,0.1-3.6c0.2-2.3,0.5-4.6,0.9-6.8l0,0.1c-2.5-4.7-4.8-9-6.9-12.9l0,0l0,0
					c-0.5-11.5-0.7-20.6-0.6-26.8c0-3.1,0.2-5.5,0.3-7.1c0.1-0.8,0.2-1.4,0.3-1.8c0.1-0.4,0.1-0.6,0.1-0.6s0,0.2-0.1,0.6
					c-0.1,0.4-0.2,1-0.2,1.8c-0.1,1.6-0.2,4-0.2,7.1c0,6.2,0.2,15.3,0.7,26.8l0-0.1c2.1,4,4.5,8.2,7,12.9l0,0.1l0,0.1
					c-0.4,2.1-0.7,4.4-0.9,6.7c-0.1,1.2-0.1,2.3-0.1,3.5c0,1.2,0.1,2.4,0.5,3.6l0.1,0.2l-0.2,0c-9.6,1.8-20,3.8-31.3,6l-0.1,0
					l-0.1,0c-2.2-1.4-4.8-2.3-7.5-2.4c-2.7-0.1-5.4,0.7-7.7,2.4l-0.1,0l-0.1,0c-11.7,1-24,2-36.9,3.1l0-0.5c1.7,0.3,3.2,1.2,4.3,2.5
					c1.1,1.3,1.9,2.8,2.4,4.4c1.1,3.2,1.4,6.7,0.9,10.1c-0.2,1.7-0.7,3.4-1.2,5c-0.5,1.6-0.9,3.3-1.4,5c-0.9,3.3-1.9,6.7-2.8,10
					l-0.2-0.3c10.1,0,20.5,0,31,0c35.3,0,68.7,0.1,97.8,0.1l-0.1,0c2.1-0.7,4.1-2,5.7-3.5c1.6-1.6,2.9-3.4,4-5.3c0.5-1,0.9-2,1.4-3
					c0.3-1,0.7-2.1,1-3.1c0.2-1.1,0.5-2.1,0.7-3.1c0.1-1.1,0.3-2.1,0.4-3.1c0.2-1,0.1-2.1,0.2-3.1c0-1,0.1-2.1,0-3.1
					c-0.1-2-0.2-4.1-0.3-6.1c-0.3-4-0.5-7.9-0.7-11.7c-1-15.1-1.8-28.3-2.5-39.2c-0.7-10.9-1.2-19.5-1.6-25.4
					c-0.2-2.9-0.3-5.2-0.4-6.7c0-0.8-0.1-1.3-0.1-1.7C525.6,322.2,525.6,322,525.6,322z"/>
			</g>
		</g>
		<g>
			<g>
				<path class="st14" d="M497.3,267.5c0,0-0.6,0.4-1.8,1.1c-1.1,0.7-2.8,1.8-4.6,3.3c-3.7,3-8.3,8-12,14.3c-3.7,6.3-6.2,12.5-8,17
					c-0.9,2.2-1.6,4-2.1,5.3c-0.2,0.6-0.4,1.1-0.6,1.4c-0.1,0.3-0.2,0.5-0.2,0.5c0,0,0-0.2,0.1-0.5c0.1-0.4,0.3-0.9,0.5-1.5
					c0.4-1.3,1.1-3.1,1.9-5.4c1.7-4.5,4.1-10.8,7.9-17.2c3.8-6.4,8.4-11.4,12.2-14.4c1.9-1.5,3.6-2.6,4.8-3.2
					c0.6-0.3,1.1-0.6,1.4-0.7C497.1,267.6,497.3,267.5,497.3,267.5z"/>
			</g>
		</g>
		<g class="st10">
			<g>
				<path class="st14" d="M458.2,305.7c-4.3,9.2-6,19.7-5.6,29.9c0.4,10.2,1.6,20.4,0.6,30.5c-1,10.1-4.5,20.5-12.1,27.3
					c-0.9,0.8-1.9,1.6-2.4,2.7s-0.5,2.6,0.5,3.4c0.9,0.7,2.1,0.5,3.1,0.3c7.2-1.3,14.6-2.2,21.8-3.4c1.6-0.3,6.8-1.3,6.8-1.3
					s-0.7-4-0.4-5.9c0.2-1.8,0.9-8,0.9-8c-0.2-0.9-0.9-1.7-1.4-2.6c-4.8-8.8-6-15.4-6-15.4c-2.5-5.1-3.6-10.1-4.7-14.9
					C456,335.2,456.1,322.3,458.2,305.7"/>
			</g>
		</g>
		<g class="st10">
			<g>
				<path class="st14" d="M378.9,290.8c0.6,1.5,1.2,3,1.8,4.5c0.2,0.5,0.4,1,0.9,1.1c0.9,0.3,1.6-0.8,2-1.6c1.7-3.4,5.1-5.8,8.9-6.2
					c3-0.3,6.2,0.5,9.2-0.1c-2.6-1.6-5.3-3.2-8.3-4.1c-2.9-0.9-6.2-1.2-9.1-0.1c-2.9,1.1-5.3,3.8-5.5,6.8"/>
			</g>
		</g>
		<g class="st10">
			<g>
				<path class="st14" d="M403.6,287c3.6,0.1,7.1,0.1,10.6,0.9s6.8,2.5,9.1,5.2c2.4,2.9,3.3,6.8,4.3,10.5c0.2,0.7,0.5,1.6,1.3,1.6
					c0.4,0,0.8-0.2,1.2-0.5c6-4.4,9.9-11.1,12.1-18.2c2.2-7.1,2.7-14.6,2.8-22c-2.9,5.1-4.1,10.9-6,16.5s-4.7,11.1-9.6,14.3
					c0.2-1.3-0.3-2.5-1.1-3.5c-0.8-1-1.8-1.7-2.9-2.4c-6.6-4-14.9-5-22.3-2.7"/>
			</g>
		</g>
		<g>
			<g>
				<path class="st11" d="M388.1,404.8h-12.2c0,0-27.6-10-33.3-9c-5.1,0.9-23.8,13.3-27.5,15.8c-0.4,0.3-0.7,0.7-0.9,1.1l0,0
					c-0.7,2,0.2,4.3,2.2,5.1l0.4,0.2l-0.2,0.6c-0.2,0.7-0.3,1.5-0.3,2.2c0.1,2.6,3.7,3.4,5,1.2l-0.7,1.3c-0.3,0.5-0.4,1.1-0.4,1.7
					l0.1,1.1c0.1,1.3,0.9,2.4,2.1,2.8l0,0c1.1,0.4,2.4,0,3.2-0.8c2.4-2.6,7.5-7.8,11-8.4c3.1-0.5,8.2-0.6,11.3-0.6
					c1.6,0,3,1,3.6,2.5l0,0c-2.1,0.1-16.4,7.6-21.5,10.3c-1.6,0.8-2.7,2.3-3,4.1c-0.2,1.6,0.6,3.3,3.8,2.5
					c6.7-1.6,18.9-7.2,18.9-7.2s6.3-1.8,10.3,1.1c5.7,4,8.3,5.5,13.2,3.9c4.9-1.6,8.5-4,8.5-4l9.7-1
					C391.4,431.1,400.6,408.3,388.1,404.8z"/>
			</g>
			<g>
				<g>
					<path class="st12" d="M351.6,409.5c0,0.1-2-0.5-5.2-0.7c-3.2-0.2-7.8,0.2-12.3,2.1c-4.5,1.9-8,5-10,7.4c-2.1,2.5-3,4.3-3.1,4.2
						c0,0,0.2-0.5,0.6-1.3c0.4-0.8,1.2-1.9,2.2-3.2c2-2.6,5.5-5.7,10.1-7.7c4.6-2,9.3-2.3,12.5-2c1.6,0.2,2.9,0.4,3.8,0.6
						C351.1,409.2,351.6,409.4,351.6,409.5z"/>
				</g>
			</g>
			<g>
				<g>
					<path class="st12" d="M348.7,402.7c0,0.1-2-0.8-5.4-0.9c-3.4-0.1-8.1,0.9-12.6,3.6c-4.4,2.7-7.8,6.1-10.1,8.6
						c-1.1,1.2-2.1,2.2-2.8,2.9c-0.7,0.7-1,1.1-1.1,1c0,0,0.3-0.4,0.9-1.2c0.6-0.7,1.5-1.8,2.7-3.1c2.3-2.5,5.6-6,10.1-8.8
						c4.5-2.7,9.4-3.7,12.8-3.5c1.7,0.1,3.1,0.4,4,0.7c0.5,0.1,0.8,0.3,1,0.4C348.5,402.7,348.7,402.7,348.7,402.7z"/>
				</g>
			</g>
		</g>
	</g>
</g>
<g id="Cat">
	<g>
		<g>
			<g>
				<path class="st2" d="M598.5,437.3c-2.6,0.4-5.1,1.6-6.6,3.7c-1.6,2.1-2,5-0.9,7.4c1.1,2.3,3.9,3.8,6.4,3.2
					c0.1,1.8,1.7,3.5,3.6,3.5c1.8,0,3.6-1.5,3.7-3.4c1.2,1.4,3.3,1.8,5,1.1c1.7-0.7,2.8-2.5,2.7-4.3c-0.1-1.1-0.6-2.2-0.7-3.4
					c-0.2-1.2,0.2-2.5,0.1-3.7c0-1.3-0.6-2.7-1.8-3.1"/>
			</g>
			<g>
				<path class="st2" d="M547.2,444.1c3.9-2.5,8.3-3.9,12.8-5.1c3.2-0.8,6.7-1.5,9.9-0.5c3,1,5.4,3.5,6.2,6.6
					c0.3,1.2,0.4,2.4-0.2,3.5c-0.7,1.4-2.4,2.1-4,2.4c-1.2,0.3-2.7,0.4-3.4-0.6c-0.8,1-2,1.6-3.2,1.7c-1.3,0.1-2.5-0.4-3.5-1.2
					c-0.9,2-3.3,3.1-5.3,2.5c-2.1-0.6-3.5-2.9-3.1-5c-0.9,1.4-2.6,2.3-4.3,2.1c-1.7-0.1-3.2-1.4-3.5-3c-0.3-1.6,0.7-3.5,2.4-3.8"/>
			</g>
			<g>
				<path class="st2" d="M509.8,443.5c-1-4.3,0.7-8.8,4.3-11.4c4-2.9,6.8-6.2,12.1-9.4c3.7-2.2,10-4.5,12.8-5.5
					c10.3-3.4,17.2-4.3,21.4-6.5c4.6-2.4,10.8-6.2,10.8-6.2l52.3,4.1c0,0,6.3,38.6-3.2,42.4c0,0-44.3,0.5-47.8-1.1
					c-3.8-1.7-61.5-1.6-61.3-1.3L509.8,443.5z"/>
			</g>
			<g>
				<g>
					<path class="st2" d="M538.1,436.1c-11.2,1.7-16.8,2.2-28.1,2.3c-3.3,0-6.7,0-9.9,0.6c-2,0.4-4,1.1-5.4,2.5
						c-1.4,1.4-2.2,3.6-1.5,5.5c0.7,1.9,3.2,3,4.9,2c0.3,1.6,1.6,2.9,3.2,3.2c1.6,0.3,3.3-0.4,4.1-1.8c0.7,0.9,2,1.2,3.2,1
						c1.2-0.2,2.2-0.8,3.3-1.3c4.6-2.1,9.4-1.6,14.4-1.6c8.8,0.1,18.8,0,15.1,0"/>
				</g>
				<g>
					<g>
						<path class="st1" d="M541.4,448.5c0,0,0.3,0,0.7,0l0,0l0,0l0,0c0,0.2,0,0.1,0,0.1h0l0,0l-0.1,0c-0.1,0-0.1,0-0.2,0
							C541.7,448.6,541.5,448.6,541.4,448.5c-0.4,0.1-0.9,0.1-1.3,0.1c-1.9,0-4.6,0.1-8,0.1c-1.7,0-3.6,0-5.6,0c-2,0-4.2-0.1-6.5,0
							c-2.3,0.1-4.7,0.3-7.1,1.3c-1.2,0.4-2.3,1.2-3.6,1.5c-0.7,0.2-1.4,0.3-2.1,0.1c-0.7-0.1-1.4-0.5-1.9-1.1l0.4,0
							c-0.9,1.4-2.6,2.2-4.3,1.9c-1.7-0.3-3.1-1.7-3.5-3.4l0.4,0.2c-1.3,0.8-3,0.5-4.1-0.5c-0.7-0.6-1.2-1.5-1.4-2.4
							c-0.2-0.9,0-1.9,0.4-2.7c0.7-1.7,2.1-3,3.7-3.7c1.6-0.7,3.2-1.1,4.9-1.3c1.6-0.2,3.2-0.3,4.8-0.3c6.2,0,11.8-0.1,16.5-0.4
							c4.7-0.3,8.5-0.8,11.1-1.1c1.3-0.2,2.3-0.3,3-0.4c0.3,0,0.6-0.1,0.8-0.1c0.2,0,0.3,0,0.3,0c0,0-0.1,0-0.3,0.1
							c-0.2,0-0.5,0.1-0.8,0.1c-0.7,0.1-1.7,0.3-3,0.5c-2.6,0.4-6.4,0.9-11.1,1.3c-4.7,0.4-10.3,0.5-16.5,0.5
							c-1.6,0-3.1,0.1-4.7,0.3c-1.6,0.2-3.2,0.6-4.7,1.3c-1.5,0.7-2.8,1.9-3.4,3.4c-0.6,1.5-0.5,3.5,0.9,4.6c1,0.9,2.5,1.1,3.5,0.5
							l0.3-0.2l0.1,0.4c0.3,1.5,1.6,2.8,3,3c1.5,0.3,3-0.5,3.8-1.7l0.2-0.3l0.2,0.3c0.8,1,2.3,1.2,3.5,0.8c1.2-0.3,2.4-1,3.6-1.5
							c2.4-0.9,4.9-1.2,7.3-1.3c2.3,0,4.5,0.1,6.5,0.1c2,0,3.9,0,5.6,0.1c3.4,0,6.1,0,8,0.1C540.6,448.5,541,448.5,541.4,448.5
							c0.1-0.1,0.3-0.1,0.4-0.1c0.1,0,0.1,0,0.2,0l0.1,0l0,0l0,0c0,0,0-0.1,0,0.1l0,0l0,0l0,0C541.7,448.6,541.4,448.6,541.4,448.5z
							"/>
					</g>
				</g>
			</g>
			<g>
				<g>
					<path class="st1" d="M611.5,446.5c0,0,0.3,0.2,0.6,0.8c0.3,0.6,0.6,1.5,0.5,2.7c-0.1,0.6-0.3,1.3-0.7,1.9
						c-0.4,0.6-1,1.2-1.8,1.5c-1.5,0.7-3.9,0.5-5.3-1.1l0.4-0.1c-0.5,1.4-1.9,2.7-3.6,2.8c-1.7,0.1-3.5-1-4.1-2.8l0.3,0.2
						c-2.8,0.7-5.9-1.2-7-4c-0.9-2.1-0.5-4.5,0.4-6.4c1-1.9,2.5-3.3,4.2-4.3c1.7-0.9,3.5-1.4,5.2-1.6c1.7-0.2,3.3-0.2,4.7-0.1
						c2.9,0.2,5.1,0.8,6.7,1c0.7,0.1,1.3,0.3,1.8,0.4c0.4,0.1,0.6,0.1,0.6,0.2c0,0-0.2,0-0.6,0c-0.4-0.1-1-0.1-1.8-0.3
						c-1.6-0.2-3.8-0.7-6.7-0.9c-2.8-0.2-6.3,0-9.6,1.8c-1.6,0.9-3,2.3-4,4.1c-0.9,1.8-1.2,4-0.4,5.9c1.1,2.6,4,4.3,6.4,3.7l0.2-0.1
						l0.1,0.2c0.5,1.6,2.1,2.6,3.6,2.5c1.5-0.1,2.8-1.2,3.3-2.4l0.1-0.4l0.2,0.3c1.3,1.5,3.4,1.7,4.9,1.1c1.5-0.6,2.2-2,2.4-3.1
						c0.2-1.1-0.1-2.1-0.4-2.6C611.7,446.8,611.4,446.5,611.5,446.5z"/>
				</g>
			</g>
			<g>
				<g>
					<path class="st1" d="M619.3,436.5c-0.1,0.1-0.6-0.5-1.6-1c-1-0.6-2.6-1.1-4.4-1c-1.8,0.1-3.3,0.8-4.3,1.5
						c-1,0.7-1.5,1.3-1.5,1.2c0,0,0.3-0.7,1.3-1.5c1-0.8,2.6-1.6,4.5-1.7c1.9-0.1,3.6,0.6,4.6,1.2
						C618.9,435.8,619.3,436.4,619.3,436.5z"/>
				</g>
			</g>
			<g>
				<g>
					<path class="st1" d="M547.1,450.2c0,0-0.1-0.1-0.4-0.3c-0.2-0.2-0.6-0.5-0.9-1c-0.6-1-1.1-2.8-0.6-4.8c0.6-2.1,2.3-4.1,4.7-5.4
						c2.4-1.4,5.3-2.2,8.1-3.5c5.7-2.6,9.7-6.9,11.8-10.3c1.1-1.7,1.8-3.2,2.2-4.3c0.4-1.1,0.6-1.7,0.7-1.6c0,0,0,0.2-0.1,0.5
						c-0.1,0.3-0.2,0.7-0.4,1.3c-0.4,1.1-1,2.6-2.1,4.4c-2.1,3.5-6.1,8-11.9,10.6c-2.9,1.3-5.8,2-8.1,3.4c-2.3,1.3-4,3.2-4.6,5.1
						c-0.6,1.9-0.2,3.6,0.4,4.6C546.5,449.8,547.1,450.2,547.1,450.2z"/>
				</g>
			</g>
			<g>
				<g>
					<path class="st1" d="M567.9,449.9c0,0,0.3,0.5,1.1,0.9c0.8,0.4,2.2,0.7,3.7,0.1c1.5-0.6,2.7-2.6,2.6-4.7c0-1.1-0.3-2.2-0.9-3.2
						c-0.6-1-1.5-1.9-2.5-2.6c-2.1-1.4-4.5-2-6.7-2c-2.2,0-4.2,0.4-5.8,0.9c-1.6,0.5-2.9,0.9-3.8,1.2c-0.9,0.3-1.4,0.5-1.4,0.4
						c0,0,0.5-0.3,1.3-0.6c0.9-0.4,2.1-0.9,3.8-1.4c1.6-0.5,3.6-1,5.9-1c2.3,0,4.8,0.6,7,2.1c1.1,0.8,2,1.7,2.6,2.8
						c0.6,1.1,1,2.3,1,3.5c0,2.3-1.2,4.4-2.9,5.1c-1.7,0.7-3.2,0.3-4-0.2c-0.4-0.2-0.7-0.5-0.8-0.7
						C567.9,450,567.9,449.9,567.9,449.9z"/>
				</g>
			</g>
			<g>
				<g>
					<path class="st1" d="M562.1,450.6c0.1,0,0.5,0.7,1.7,1.1c0.6,0.2,1.3,0.4,2.1,0.4c0.8-0.1,1.6-0.6,2-1.3
						c0.4-0.8,0.4-1.7,0.2-2.5c-0.2-0.8-0.6-1.4-1-1.9c-0.8-1-1.3-1.6-1.3-1.6c0,0,0.7,0.4,1.6,1.4c0.4,0.5,0.9,1.1,1.2,2
						c0.3,0.8,0.3,1.9-0.2,2.9c-0.5,0.9-1.5,1.5-2.4,1.6c-0.9,0.1-1.7-0.2-2.3-0.5c-0.6-0.3-1-0.6-1.3-0.9
						C562.1,450.9,562,450.7,562.1,450.6z"/>
				</g>
			</g>
			<g>
				<g>
					<path class="st1" d="M553.7,448.8c0,0,0,0.3,0,0.8c0,0.5,0.1,1.2,0.5,2c0.4,0.8,1.3,1.5,2.4,1.7c1.1,0.2,2.5,0,3.5-0.8
						c1-0.8,1.6-2.1,1.7-3.2c0.1-1.2-0.2-2.2-0.6-3c-0.8-1.6-1.9-2.2-1.8-2.3c0,0,0.3,0.1,0.7,0.4c0.4,0.3,1,0.9,1.4,1.7
						c0.5,0.8,0.9,1.9,0.7,3.2c-0.1,1.3-0.7,2.7-1.9,3.6c-1.2,0.9-2.7,1.2-3.9,0.9c-1.3-0.3-2.2-1.2-2.6-2c-0.4-0.9-0.5-1.7-0.4-2.2
						C553.5,449,553.6,448.8,553.7,448.8z"/>
				</g>
			</g>
			<g>
				<path class="st2" d="M574.4,413.5c0,0,11.1,12.2,24.8,10.6s24.3-14.9,24.3-14.9c2.1-3.4,1.2-6.8,0.6-9.4c-0.7-2.6-1.9-5-1.9-7.7
					c0-2.3,0.9-4.4,1.5-6.6c1.5-4.8,1.7-10,1.9-15c0.1-2.2,0-4.8-1.9-5.9c-1.1-0.7-2.6-0.6-3.9-0.1c-1.2,0.5-2.2,1.5-3.2,2.4
					c-4.1,4-8,8.2-11.6,12.7c-5.6-3.9-13.9-3.3-18.8,1.5c-5.9-2.5-7.8-10.7-13.8-12.8c-1.3-0.5-2.9-0.5-4,0.3
					c-1.5,1.1-1.5,3.2-1.5,5c0.2,8.2,0.5,16.7,3.9,24.2c-1.5,5.1-0.2,10.8,3.2,14.8"/>
			</g>
			<g>
				<path class="st1" d="M594.5,415.3c0.7-1.1,1.8-1.9,3.1-2.2c1.2-0.4,2.6-0.3,3.8,0.3c0.3,0.1,0.6,0.3,0.8,0.6s0.2,0.6,0.1,0.9
					c-0.2-0.3-0.7-0.3-1,0c-0.3,0.3-0.3,0.7-0.4,1.1c0,0.4,0,0.8-0.1,1.2c-0.2,0.4-0.6,0.8-1,0.9c-0.5,0.1-1-0.1-1.3-0.4
					c-0.3-0.3-0.4-0.7-0.6-1.1c-0.2-0.4-0.5-0.7-0.9-0.8c-0.3-0.1-0.6,0.1-0.9,0.2c-0.3,0.1-0.7,0.2-1,0.1c-0.3-0.1-0.4-0.6-0.2-0.8
					"/>
			</g>
			<g>
				<g>
					<path class="st1" d="M599.6,416.8c0.1,0,0.1,0.4,0.2,1.1c0.2,0.6,0.5,1.5,1.3,2.2c0.8,0.6,1.7,0.9,2.3,0.9c0.7,0.1,1.1,0,1.1,0
						c0,0.1-0.4,0.3-1.1,0.3c-0.7,0-1.8-0.2-2.7-0.9c-0.9-0.7-1.3-1.8-1.3-2.5C599.4,417.2,599.6,416.8,599.6,416.8z"/>
				</g>
			</g>
			<g>
				<g>
					<path class="st1" d="M599.7,416.1c0.1,0,0.3,0.5,0.4,1.4c0,0.9-0.3,2.2-1.3,3.1c-1,1-2.4,1.2-3.2,1.1c-0.9-0.1-1.4-0.4-1.3-0.5
						c0-0.1,0.5,0.1,1.3,0.1c0.8,0,2-0.3,2.8-1.1c0.9-0.8,1.2-2,1.3-2.8C599.8,416.7,599.6,416.2,599.7,416.1z"/>
				</g>
			</g>
			<g>
				<g>
					<path class="st1" d="M620.9,420.7c-0.1,0.2-3.1-1.5-7.3-2c-4.2-0.5-7.6,0.3-7.6,0.2c0-0.1,0.8-0.4,2.2-0.6
						c1.4-0.2,3.3-0.4,5.5-0.1c2.1,0.3,4,0.9,5.3,1.4C620.2,420.2,620.9,420.7,620.9,420.7z"/>
				</g>
			</g>
			<g>
				<g>
					<path class="st1" d="M627.3,418c0,0.1-1.3-0.2-3.3-0.6c-2-0.4-4.8-0.7-7.9-0.8c-3.1,0-5.9,0.2-7.9,0.5c-2,0.3-3.3,0.6-3.3,0.5
						c0,0,0.3-0.1,0.8-0.3c0.6-0.2,1.4-0.3,2.4-0.5c2-0.4,4.9-0.7,8-0.7c3.1,0.1,6,0.5,8,0.9c1,0.2,1.8,0.4,2.4,0.6
						C627,417.9,627.3,418,627.3,418z"/>
				</g>
			</g>
			<g>
				<g>
					<path class="st1" d="M630.6,410.9c0,0.1-1.5,0-3.9,0c-2.4,0-5.8,0.1-9.4,0.8c-3.6,0.7-6.8,1.8-9,2.9c-2.2,1.1-3.4,2-3.4,1.9
						c0,0,0.3-0.3,0.8-0.7c0.5-0.4,1.4-1,2.5-1.6c2.1-1.2,5.3-2.4,9-3.1c3.7-0.7,7.1-0.7,9.5-0.6c1.2,0,2.2,0.1,2.9,0.2
						C630.3,410.8,630.6,410.9,630.6,410.9z"/>
				</g>
			</g>
			<g>
				<g>
					<path class="st1" d="M573.3,426.8c0,0,0.2-0.2,0.6-0.6c0.4-0.4,1-0.8,1.8-1.3c1.6-1.1,3.9-2.3,6.6-3.3c2.7-0.9,5.3-1.3,7.2-1.4
						c0.9,0,1.7,0,2.2,0c0.5,0,0.8,0.1,0.8,0.1c0,0.1-1.2,0.1-3,0.3c-1.9,0.2-4.4,0.6-7.1,1.5c-2.7,0.9-5,2.1-6.6,3.1
						C574.3,426.2,573.4,426.9,573.3,426.8z"/>
				</g>
			</g>
			<g>
				<g>
					<path class="st1" d="M572.5,421.2c0,0,0.3-0.2,0.8-0.4c0.5-0.2,1.2-0.5,2.2-0.8c1.9-0.6,4.5-1.3,7.5-1.6c3-0.3,5.7-0.2,7.7,0
						c1,0.1,1.8,0.2,2.3,0.3c0.5,0.1,0.8,0.2,0.8,0.2c0,0.1-1.2-0.1-3.2-0.2c-1.9-0.1-4.6-0.2-7.6,0.2c-2.9,0.3-5.6,0.9-7.4,1.5
						C573.6,420.9,572.5,421.3,572.5,421.2z"/>
				</g>
			</g>
			<g>
				<g>
					<path class="st1" d="M565.5,418.9c0,0,0.4-0.2,1-0.5c0.7-0.3,1.7-0.6,2.9-1c2.5-0.7,6.1-1.4,10.1-1.6c4-0.1,7.6,0.3,10.2,0.9
						c1.3,0.3,2.3,0.5,3,0.8c0.7,0.2,1.1,0.4,1.1,0.4c0,0.1-1.6-0.4-4.1-0.8c-2.6-0.5-6.2-0.9-10.1-0.7c-4,0.1-7.5,0.8-10,1.4
						C567,418.4,565.5,419,565.5,418.9z"/>
				</g>
			</g>
			<g>
				<g>
					<path class="st1" d="M592.2,405.2c0,0-0.5,0.6-1.5,1.1c-1.1,0.5-2.8,0.9-4.5,0.4c-1.8-0.5-3.1-1.6-3.8-2.6
						c-0.7-1-0.9-1.7-0.8-1.7c0.1,0,0.4,0.6,1.1,1.5c0.7,0.8,2,1.9,3.6,2.3c1.6,0.4,3.2,0.2,4.3-0.2
						C591.5,405.6,592.1,405.1,592.2,405.2z"/>
				</g>
			</g>
			<g>
				<g>
					<path class="st1" d="M614.4,400.4c0.1,0,0.2,0.7-0.2,1.8c-0.4,1.1-1.4,2.4-3.1,3.1c-1.6,0.7-3.2,0.8-4.3,0.8
						c-1.1,0-1.8-0.1-1.8-0.1c0-0.1,0.7-0.1,1.8-0.2c1.1-0.1,2.6-0.2,4.1-0.9c1.5-0.6,2.5-1.8,2.9-2.8
						C614.4,401.1,614.3,400.4,614.4,400.4z"/>
				</g>
			</g>
			<g>
				<path class="st1" d="M575.7,385.7c0.6-0.6,1.2-1.3,1.7-2.1c0.5-0.8,0.7-1.8,0.6-2.8c-0.1-1-0.7-1.9-1.3-2.7
					c-1.6-2.2-3.4-4.1-5.5-5.6c0,0-1.6-1.2-2.3,0c-0.5,0.8-0.2,13.9,1.7,14.8C572.4,388.1,575.7,385.7,575.7,385.7z"/>
			</g>
			<g>
				<path class="st1" d="M621.1,366.9c-2.9,2.3-4,6.2-6.2,9.2c-0.4,0.5-0.8,1.1-1.1,1.7c-0.3,0.6-0.4,1.3-0.2,2
					c0.2,0.7,0.7,1.2,1.3,1.6c1.2,1,2.5,1.8,3.9,2.4c0,0,3,0.9,3.8-1.8S623,365.4,621.1,366.9z"/>
			</g>
			<g>
				<path class="st2" d="M528.1,423.5c-3.5,0.5-11.6-0.8-14-3.3c-2.5-2.6-1.7-6.3-0.4-9.6c1.3-3.3,3.3-6.3,5-9.4
					c2.8-5.2,4.9-11,5.1-16.9c0.2-5.9-1.8-12.1-6-16.3c-4.2-4.2-10.9-6.1-16.4-3.9c-4.6,1.8-8.1,7-6.3,11.6c1.1,2.9,3.9,4.7,5.8,7
					c2.7,3.3,3.8,8,2.9,12.2c-1,4.6-4.3,8.4-5.5,12.9c-1.9,6.9,1.5,14.6,7.2,18.9c5.7,4.3,13.3,5.6,20.4,4.8"/>
			</g>
		</g>
		<g>
			<path class="st6" d="M602.1,421.1c0,0,0.4,2.7-0.5,3.8c-0.4,0.5-1,0.9-1.6,0.9c-0.9,0.1-1.8-0.5-2.3-1.4
				c-0.5-0.8-0.6-1.8-0.6-2.7c0,0,2.4-0.9,2.7-2.2C599.8,419.5,600.7,421,602.1,421.1z"/>
		</g>
		<g>
			<g>
				<path class="st1" d="M614.2,422.2c0,0-0.2,0.3-0.8,0.9c-0.5,0.5-1.4,1.3-2.5,2c-2.2,1.5-5.7,3.2-9.9,3.5
					c-4.2,0.3-7.9-0.7-10.3-1.9c-1.2-0.6-2.2-1.2-2.8-1.6c-0.6-0.4-0.9-0.7-0.9-0.7c0.1-0.1,1.4,1,3.8,2c2.4,1.1,6.1,2,10.1,1.7
					c4.1-0.3,7.5-1.9,9.7-3.3C613,423.4,614.1,422.2,614.2,422.2z"/>
			</g>
		</g>
		<g>
			<g>
				<path class="st1" d="M599.9,440.2c0,0.1-0.7,0.4-1.6,1.4c-0.9,0.9-1.9,2.4-2.2,4.3c-0.3,1.9,0.2,3.7,0.8,4.8
					c0.6,1.1,1.2,1.7,1.1,1.8c0,0-0.7-0.4-1.4-1.6c-0.7-1.1-1.3-3-1-5.1c0.3-2.1,1.5-3.7,2.5-4.5
					C599.1,440.4,599.9,440.2,599.9,440.2z"/>
			</g>
		</g>
		<g>
			<g>
				<path class="st1" d="M609.7,441.4c0,0.1-0.8,0-2,0.5c-1.1,0.5-2.5,1.7-3.1,3.5c-0.6,1.8-0.4,3.6-0.1,4.8c0.3,1.2,0.6,2,0.6,2
					c-0.1,0-0.5-0.6-0.9-1.9c-0.4-1.2-0.7-3.1-0.1-5.1c0.7-2,2.2-3.2,3.5-3.7C608.9,441.1,609.7,441.4,609.7,441.4z"/>
			</g>
		</g>
		<g>
			<g>
				<path class="st1" d="M582.6,434.9c0.1,0-0.2,0.6-0.8,1.4c-0.6,0.8-1.5,2-2.7,3c-1.2,1-2.5,1.7-3.4,2.1c-1,0.4-1.6,0.5-1.6,0.5
					c-0.1-0.2,2.3-1,4.7-3C581,436.9,582.4,434.8,582.6,434.9z"/>
			</g>
		</g>
		<g>
			<g>
				<path class="st1" d="M570.5,404.9c0,0-0.2,0.2-0.6,0.4c-0.4,0.3-1,0.7-1.7,1.1c-1.5,1-3.8,2.2-6.7,3.6c-2.9,1.3-6.5,2.7-10.5,4
					c-4,1.3-8.5,2.6-13.1,4.1c-4.6,1.5-8.9,3.2-12.6,5.2c-3.7,2-6.8,4.3-9.1,6.4c-2.3,2.2-3.9,4.2-4.8,5.7c-1,1.5-1.4,2.4-1.4,2.4
					c0,0,0.1-0.2,0.3-0.7c0.2-0.4,0.5-1,1-1.8c0.9-1.5,2.5-3.6,4.8-5.9c2.3-2.2,5.4-4.6,9.1-6.6c3.7-2,8.1-3.8,12.7-5.3
					c4.6-1.5,9.1-2.8,13.1-4c4-1.3,7.6-2.6,10.5-3.9c2.9-1.3,5.2-2.5,6.7-3.4c0.8-0.5,1.4-0.8,1.8-1.1
					C570.3,405,570.5,404.9,570.5,404.9z"/>
			</g>
		</g>
		<g>
			<g>
				<path class="st1" d="M575.8,413.8c0,0-0.7-0.6-1.6-1.8c-0.9-1.2-1.8-3-2.5-5.1c-0.7-2.1-0.8-4.2-0.8-5.7c0-1.5,0.2-2.4,0.3-2.3
					c0.2,0-0.3,3.6,1,7.8C573.5,411,575.9,413.7,575.8,413.8z"/>
			</g>
		</g>
	</g>
</g>
<g id="Device">
	<g>
		<g>
			<path class="st15" d="M213.2,447.7l-38.3-96.1c-3.4-8.3,2.7-17.3,11.6-17.3h119.3c5.4,0,10.2,3.4,11.9,8.5l32.9,96.9l38.4,0.2
				c3.1,0,5.6,4.6,5.6,7.7l0,0l-42.3-0.5L213.2,447.7z"/>
		</g>
		<g>
			<path class="st16" d="M268.3,394.9c0,4.3-3.5,7.7-7.7,7.7c-4.3,0-7.7-3.5-7.7-7.7c0-4.3,3.5-7.7,7.7-7.7
				C264.9,387.2,268.3,390.6,268.3,394.9z"/>
		</g>
	</g>
</g>
<g id="Desk">
	<g>
		<g>
			<path class="st2" d="M657.8,447.2c0,0.1-137.5,0.3-307,0.3c-169.6,0-307-0.1-307-0.3c0-0.1,137.4-0.3,307-0.3
				C520.4,446.9,657.8,447,657.8,447.2z"/>
		</g>
	</g>
</g>
<g id="Plant">
	<g>
		<g>
			<g>
				<g>
					<path class="st17" d="M135.2,412.8c-9.8-5.7-15-18.9-15.4-29.7c-0.4-10.8,4.1-22.1,13-28.2c9.3-6.5,22.6-6.4,32.2-0.3
						c9.6,6.1,15.2,17.7,14.8,29.1c-0.4,11.4-6.6,22.2-15.8,29"/>
				</g>
			</g>
			<g>
				<g>
					<g>
						<path class="st18" d="M150.8,413.9c-0.1,0-0.1-0.9-0.2-2.5c-0.1-1.8-0.1-4-0.2-6.7c-0.1-5.7-0.4-13.5-0.7-22.2
							c-0.4-8.7-0.8-16.5-1.2-22.2c-0.2-2.7-0.3-5-0.4-6.7c-0.1-1.6-0.1-2.5,0-2.5c0.1,0,0.2,0.9,0.4,2.4c0.2,1.6,0.4,3.9,0.7,6.7
							c0.5,5.7,1.1,13.5,1.5,22.2c0.4,8.7,0.5,16.5,0.5,22.2c0,2.8,0,5.1-0.1,6.7C151,413,150.9,413.9,150.8,413.9z"/>
					</g>
				</g>
			</g>
			<g>
				<g>
					<g>
						<path class="st2" d="M122.7,380.7c0,0.3-1.6,0.3-3.5,0.2c-1.9-0.2-3.4-0.5-3.4-0.7c0-0.3,1.6-0.3,3.5-0.2
							C121.2,380.1,122.7,380.5,122.7,380.7z"/>
					</g>
				</g>
			</g>
			<g>
				<g>
					<g>
						<path class="st2" d="M123.2,371c-0.1,0.2-1.4-0.1-3-0.8c-1.6-0.7-2.7-1.4-2.6-1.7c0.1-0.2,1.4,0.1,3,0.8
							C122.2,370.1,123.4,370.8,123.2,371z"/>
					</g>
				</g>
			</g>
			<g>
				<g>
					<g>
						<path class="st2" d="M128.2,363.9c-0.1,0.2-1.6-0.5-3.2-1.8c-1.6-1.3-2.6-2.7-2.4-2.8c0.2-0.2,1.4,0.9,3,2.1
							C127.1,362.6,128.4,363.6,128.2,363.9z"/>
					</g>
				</g>
			</g>
			<g>
				<g>
					<g>
						<path class="st2" d="M133.2,357.1c-0.2,0.1-1-1-1.6-2.5c-0.7-1.5-1-2.8-0.8-2.9c0.2-0.1,1,1,1.6,2.5
							C133.1,355.7,133.5,357,133.2,357.1z"/>
					</g>
				</g>
			</g>
			<g>
				<g>
					<g>
						<path class="st2" d="M141.1,352.3c-0.2,0.1-1-1.1-1.5-2.8c-0.5-1.7-0.6-3.1-0.3-3.1c0.3,0,0.7,1.3,1.2,2.9
							C141,350.8,141.3,352.2,141.1,352.3z"/>
					</g>
				</g>
			</g>
			<g>
				<g>
					<g>
						<path class="st2" d="M154.2,346.8c0.2,0.1,0.1,1.1-0.3,2.3c-0.4,1.2-1,2.1-1.2,2c-0.2-0.1-0.1-1.1,0.3-2.3
							C153.5,347.6,154,346.8,154.2,346.8z"/>
					</g>
				</g>
			</g>
			<g>
				<g>
					<g>
						<path class="st2" d="M164,351c0.2,0.2-0.5,1-1.4,1.9c-0.9,0.9-1.8,1.4-2,1.2c-0.2-0.2,0.5-1,1.4-1.9
							C162.9,351.4,163.8,350.8,164,351z"/>
					</g>
				</g>
			</g>
			<g>
				<g>
					<g>
						<path class="st2" d="M172.5,356.5c0.1,0.2-0.6,1-1.7,1.7c-1.1,0.7-2.1,1.2-2.2,0.9c-0.1-0.2,0.6-1,1.7-1.7
							C171.4,356.8,172.4,356.3,172.5,356.5z"/>
					</g>
				</g>
			</g>
			<g>
				<g>
					<g>
						<path class="st2" d="M178.6,364.8c0.1,0.2-1.1,1-2.7,1.6c-1.6,0.7-2.9,1-3,0.8c-0.1-0.2,1.1-1,2.7-1.6
							C177.2,364.9,178.5,364.6,178.6,364.8z"/>
					</g>
				</g>
			</g>
			<g>
				<g>
					<g>
						<path class="st2" d="M181,373.8c0,0.3-1.2,0.6-2.7,0.8c-1.5,0.2-2.8,0.1-2.8-0.1c0-0.3,1.2-0.6,2.7-0.8
							C179.7,373.5,181,373.5,181,373.8z"/>
					</g>
				</g>
			</g>
			<g>
				<g>
					<g>
						<path class="st2" d="M182.3,384.9c-0.1,0.2-1.4-0.1-2.9-0.8c-1.5-0.7-2.6-1.4-2.5-1.6c0.1-0.2,1.4,0.1,2.9,0.8
							C181.2,383.9,182.4,384.6,182.3,384.9z"/>
					</g>
				</g>
			</g>
			<g>
				<g>
					<g>
						<path class="st2" d="M181.2,394.4c-0.1,0.2-1.7-0.2-3.4-1.3c-1.7-1.1-2.7-2.5-2.6-2.6c0.2-0.2,1.4,0.8,3.1,1.9
							C179.8,393.4,181.3,394.1,181.2,394.4z"/>
					</g>
				</g>
			</g>
			<g>
				<g>
					<g>
						<path class="st2" d="M176.2,403c-0.2,0.2-1.5-0.6-2.7-1.9c-1.3-1.4-1.9-2.7-1.7-2.9c0.2-0.1,1.2,0.9,2.4,2.2
							C175.4,401.8,176.4,402.8,176.2,403z"/>
					</g>
				</g>
			</g>
			<g>
				<g>
					<g>
						<path class="st2" d="M129.2,404c0.1,0.2-1.3,1.2-3.1,2.1c-1.8,0.9-3.4,1.5-3.5,1.3c-0.1-0.2,1.3-1.2,3.1-2.1
							C127.5,404.4,129.1,403.8,129.2,404z"/>
					</g>
				</g>
			</g>
			<g>
				<g>
					<g>
						<path class="st2" d="M124.9,396.2c0.1,0.2-1,1-2.5,1.6c-1.5,0.7-2.7,1-2.8,0.8c-0.1-0.2,1-1,2.5-1.6
							C123.6,396.3,124.8,396,124.9,396.2z"/>
					</g>
				</g>
			</g>
			<g>
				<g>
					<g>
						<path class="st2" d="M121.8,389.3c0,0.3-1.3,0.7-3,0.9c-1.7,0.2-3.1,0.2-3.2,0c0-0.3,1.3-0.7,3-0.9
							C120.3,389,121.7,389,121.8,389.3z"/>
					</g>
				</g>
			</g>
			<g>
				<g>
					<g>
						<path class="st2" d="M132.1,385.5c0.1,0.2-1.2,0.9-3,1c-1.8,0.2-3.2-0.1-3.2-0.4c0-0.3,1.4-0.4,3.1-0.6
							C130.7,385.4,132,385.2,132.1,385.5z"/>
					</g>
				</g>
			</g>
			<g>
				<g>
					<g>
						<path class="st2" d="M140.7,376.9c0.1,0.2-1,0.8-2.4,0.9c-1.4,0.1-2.6-0.2-2.5-0.4c0-0.3,1.1-0.4,2.4-0.5
							C139.6,376.8,140.6,376.7,140.7,376.9z"/>
					</g>
				</g>
			</g>
			<g>
				<g>
					<g>
						<path class="st2" d="M142.4,370.1c-0.1,0.2-1.2,0.1-2.5-0.4c-1.3-0.5-2.3-1-2.2-1.3c0.1-0.2,1.2-0.1,2.5,0.4
							C141.4,369.3,142.4,369.8,142.4,370.1z"/>
					</g>
				</g>
			</g>
			<g>
				<g>
					<g>
						<path class="st2" d="M145.5,363.1c-0.2,0.2-1-0.3-1.5-1.3c-0.6-1-0.6-1.9-0.4-2c0.2-0.1,0.7,0.7,1.2,1.5
							C145.3,362.2,145.7,362.9,145.5,363.1z"/>
					</g>
				</g>
			</g>
			<g>
				<g>
					<g>
						<path class="st2" d="M141.7,391.5c0.1,0.2-0.9,0.7-2.2,1c-0.7,0.2-1.4,0.3-1.9,0.3l-0.2-0.5c0.3-0.1,0.5,0,0.6,0.1
							c0,0.1-0.1,0.3-0.4,0.5l-0.2-0.5c0.4-0.2,1-0.4,1.8-0.6C140.6,391.3,141.7,391.3,141.7,391.5z"/>
					</g>
				</g>
			</g>
			<g>
				<g>
					<g>
						<path class="st2" d="M143.5,403.6c0.1,0.2-1.2,1-2.8,1.6c-1.6,0.6-3.1,1-3.1,0.7c-0.1-0.2,1.2-1,2.8-1.6
							C142,403.7,143.4,403.4,143.5,403.6z"/>
					</g>
				</g>
			</g>
			<g>
				<g>
					<g>
						<path class="st2" d="M133.8,398.2c0.1,0.2-0.8,0.7-1.9,1.1c-1.1,0.4-2.1,0.5-2.2,0.3c-0.1-0.2,0.8-0.7,1.9-1.1
							C132.7,398.1,133.7,398,133.8,398.2z"/>
					</g>
				</g>
			</g>
			<g>
				<g>
					<g>
						<path class="st2" d="M134.5,373.5c-0.1,0.2-1.5,0.1-3.2-0.5c-1.7-0.6-2.9-1.4-2.8-1.6c0.1-0.2,1.5,0.2,3.1,0.8
							C133.3,372.7,134.6,373.3,134.5,373.5z"/>
					</g>
				</g>
			</g>
			<g>
				<g>
					<g>
						<path class="st2" d="M158,370.8c0.1,0.2-0.7,1-1.8,1.8c-1.2,0.8-2.2,1.2-2.3,1c-0.1-0.2,0.7-1,1.8-1.8
							C156.8,371.1,157.9,370.6,158,370.8z"/>
					</g>
				</g>
			</g>
			<g>
				<g>
					<g>
						<path class="st2" d="M159.3,383c0.1,0.2-0.8,0.6-1.9,0.9c-1.1,0.2-2.1,0.2-2.1,0c-0.1-0.2,0.8-0.6,1.9-0.9
							C158.3,382.8,159.2,382.8,159.3,383z"/>
					</g>
				</g>
			</g>
			<g>
				<g>
					<g>
						<path class="st2" d="M160.8,396.7c-0.1,0.2-1.4-0.1-2.8-0.8c-1.4-0.7-2.5-1.4-2.4-1.6c0.1-0.2,1.4,0.1,2.8,0.8
							C159.8,395.8,160.9,396.5,160.8,396.7z"/>
					</g>
				</g>
			</g>
			<g>
				<g>
					<g>
						<path class="st2" d="M157.6,410.1c-0.2,0.2-1-0.5-1.8-1.5c-0.8-1-1.3-1.9-1.1-2.1c0.2-0.2,1,0.5,1.8,1.5
							C157.3,409,157.8,409.9,157.6,410.1z"/>
					</g>
				</g>
			</g>
			<g>
				<g>
					<g>
						<path class="st2" d="M157,361.8c0.2,0.2-0.4,0.9-1.3,1.3c-0.9,0.5-1.8,0.5-1.8,0.2c-0.1-0.2,0.6-0.6,1.4-1.1
							C156.1,361.9,156.8,361.6,157,361.8z"/>
					</g>
				</g>
			</g>
			<g>
				<g>
					<g>
						<path class="st2" d="M168.5,374.2c0.1,0.2-1,0.8-2.4,1c-1.5,0.2-2.6-0.1-2.6-0.3c0-0.3,1.1-0.4,2.5-0.6
							C167.3,374.1,168.4,373.9,168.5,374.2z"/>
					</g>
				</g>
			</g>
			<g>
				<g>
					<g>
						<path class="st2" d="M166.2,363.1c0.1,0.2-0.9,1-2.4,1.5c-1.5,0.5-2.8,0.5-2.8,0.2c0-0.3,1.1-0.6,2.6-1.1
							C164.9,363.2,166.1,362.9,166.2,363.1z"/>
					</g>
				</g>
			</g>
			<g>
				<g>
					<g>
						<path class="st2" d="M171,391.3c0,0.2-1.8,0.4-4,0c-2.2-0.4-3.8-1.2-3.7-1.4c0.1-0.2,1.8,0.1,3.9,0.5
							C169.3,390.8,171,391,171,391.3z"/>
					</g>
				</g>
			</g>
			<g>
				<g>
					<g>
						<path class="st2" d="M166.7,407.3c-0.2,0.2-1.5-0.6-2.8-1.9c-1.3-1.3-2.1-2.7-1.9-2.8c0.2-0.2,1.3,0.9,2.6,2.2
							C165.9,406,166.9,407.1,166.7,407.3z"/>
					</g>
				</g>
			</g>
			<g>
				<g>
					<g>
						<path class="st18" d="M147.9,350c0.1,0.2-3.7,1.7-8,6.3c-4.4,4.5-8.9,12.5-10,22.1c-0.5,4.8-0.1,9.4,0.6,13.6
							c0.7,4.1,1.7,7.8,2.5,10.9c0.9,3.1,1.7,5.5,2.2,7.2c0.5,1.7,0.8,2.6,0.8,2.7c-0.1,0-0.5-0.9-1.1-2.5c-0.6-1.7-1.6-4.1-2.5-7.1
							c-1-3.1-2-6.7-2.7-10.9c-0.7-4.2-1.2-8.9-0.7-13.8c1.1-9.9,5.9-18,10.4-22.5c2.3-2.3,4.4-3.8,6-4.7c0.8-0.5,1.4-0.7,1.8-1
							C147.7,350.1,147.9,350,147.9,350z"/>
					</g>
				</g>
			</g>
			<g>
				<g>
					<g>
						<path class="st18" d="M160.4,413.4c-0.2-0.1,2.1-3.6,4.1-9.8c2.1-6.2,3.9-15.4,2.5-25.3c-0.7-5-2.1-9.6-3.9-13.5
							c-1.9-3.9-4.3-7.1-6.7-9.3c-2.4-2.2-4.8-3.4-6.5-4.1c-1.7-0.7-2.7-0.9-2.7-0.9c0,0,0.3,0,0.7,0.1c0.5,0.1,1.2,0.2,2.1,0.6
							c1.8,0.6,4.2,1.8,6.8,4c2.5,2.2,5,5.4,7,9.4c1.9,4,3.4,8.7,4,13.7c1.4,10.1-0.5,19.4-2.8,25.6c-0.5,1.6-1.2,2.9-1.7,4.2
							c-0.6,1.2-1.1,2.2-1.5,3C161,412.6,160.5,413.4,160.4,413.4z"/>
					</g>
				</g>
			</g>
		</g>
		<g>
			<g>
				<polygon class="st19" points="124.9,411.2 175.4,411.2 175.8,421.4 124.9,421.4 				"/>
			</g>
		</g>
		<g>
			<g>
				<polygon class="st19" points="129.2,416.3 132.1,447.2 169.1,447.2 172,416.6 				"/>
			</g>
		</g>
		<g>
			<g>
				<g>
					<path class="st20" d="M175.8,421.5c0,0.3-11.4,0.5-25.4,0.5c-14,0-25.4-0.2-25.4-0.5c0-0.3,11.4-0.5,25.4-0.5
						C164.4,421,175.8,421.2,175.8,421.5z"/>
				</g>
			</g>
		</g>
		<g>
			<g>
				<g>
					<path class="st20" d="M170.6,430.9c0,0-0.3,0.7-1.1,1.9c-0.8,1.2-2.1,2.8-3.9,4.6l-0.2,0.2l-0.2-0.2c-2.4-2.6-5.8-5.7-9.9-8.7
						l0.6,0c-1.4,1.2-2.9,2.5-4.4,3.9c-1.8,1.6-3.5,3.1-5.2,4.5l-0.3,0.2l-0.3-0.2c-3.1-2.6-6-5-8.4-7.1l0.5-0.1
						c-1.7,2.1-3.2,3.9-4.4,5.3c-1.1,1.2-1.7,1.9-1.7,1.9s0.5-0.8,1.4-2.1c1.1-1.5,2.5-3.3,4.1-5.5l0.2-0.3l0.3,0.2
						c2.5,2,5.4,4.4,8.6,6.9l-0.6,0c1.7-1.4,3.4-3,5.2-4.5c1.5-1.3,3-2.6,4.4-3.8l0.3-0.2l0.3,0.2c4.2,3.1,7.5,6.3,9.9,8.9l-0.5,0
						C168.9,433.6,170.5,430.8,170.6,430.9z"/>
				</g>
			</g>
		</g>
	</g>
</g>
</svg>
